# Tiled2Unity generated file. Do not modify by hand.
# Wavefront file for 'map2-1_mesh_0002.obj'

# Vertices (Count = 980)
v -128 -16 0
v -144 -16 0
v -144 0 0
v -128 0 0
v -144 -16 0
v -160 -16 0
v -160 0 0
v -144 0 0
v -160 -16 0
v -176 -16 0
v -176 0 0
v -160 0 0
v -592 -16 0
v -608 -16 0
v -608 0 0
v -592 0 0
v -608 -16 0
v -624 -16 0
v -624 0 0
v -608 0 0
v -624 -16 0
v -640 -16 0
v -640 0 0
v -624 0 0
v -128 -32 0
v -144 -32 0
v -144 -16 0
v -128 -16 0
v -144 -32 0
v -160 -32 0
v -160 -16 0
v -144 -16 0
v -160 -32 0
v -176 -32 0
v -176 -16 0
v -160 -16 0
v -176 -32 0
v -192 -32 0
v -192 -16 0
v -176 -16 0
v -208 -32 0
v -224 -32 0
v -224 -16 0
v -208 -16 0
v -576 -32 0
v -592 -32 0
v -592 -16 0
v -576 -16 0
v -592 -32 0
v -608 -32 0
v -608 -16 0
v -592 -16 0
v -608 -32 0
v -624 -32 0
v -624 -16 0
v -608 -16 0
v -624 -32 0
v -640 -32 0
v -640 -16 0
v -624 -16 0
v -128 -48 0
v -144 -48 0
v -144 -32 0
v -128 -32 0
v -144 -48 0
v -160 -48 0
v -160 -32 0
v -144 -32 0
v -160 -48 0
v -176 -48 0
v -176 -32 0
v -160 -32 0
v -176 -48 0
v -192 -48 0
v -192 -32 0
v -176 -32 0
v -240 -48 0
v -256 -48 0
v -256 -32 0
v -240 -32 0
v -528 -48 0
v -544 -48 0
v -544 -32 0
v -528 -32 0
v -544 -48 0
v -560 -48 0
v -560 -32 0
v -544 -32 0
v -560 -48 0
v -576 -48 0
v -576 -32 0
v -560 -32 0
v -576 -48 0
v -592 -48 0
v -592 -32 0
v -576 -32 0
v -592 -48 0
v -608 -48 0
v -608 -32 0
v -592 -32 0
v -608 -48 0
v -624 -48 0
v -624 -32 0
v -608 -32 0
v -624 -48 0
v -640 -48 0
v -640 -32 0
v -624 -32 0
v -96 -64 0
v -112 -64 0
v -112 -48 0
v -96 -48 0
v -112 -64 0
v -128 -64 0
v -128 -48 0
v -112 -48 0
v -128 -64 0
v -144 -64 0
v -144 -48 0
v -128 -48 0
v -160 -64 0
v -176 -64 0
v -176 -48 0
v -160 -48 0
v -208 -64 0
v -224 -64 0
v -224 -48 0
v -208 -48 0
v -240 -64 0
v -256 -64 0
v -256 -48 0
v -240 -48 0
v -288 -64 0
v -304 -64 0
v -304 -48 0
v -288 -48 0
v -304 -64 0
v -320 -64 0
v -320 -48 0
v -304 -48 0
v -528 -64 0
v -544 -64 0
v -544 -48 0
v -528 -48 0
v -544 -64 0
v -560 -64 0
v -560 -48 0
v -544 -48 0
v -560 -64 0
v -576 -64 0
v -576 -48 0
v -560 -48 0
v -576 -64 0
v -592 -64 0
v -592 -48 0
v -576 -48 0
v -80 -80 0
v -96 -80 0
v -96 -64 0
v -80 -64 0
v -96 -80 0
v -112 -80 0
v -112 -64 0
v -96 -64 0
v -112 -80 0
v -128 -80 0
v -128 -64 0
v -112 -64 0
v -128 -80 0
v -144 -80 0
v -144 -64 0
v -128 -64 0
v -144 -80 0
v -160 -80 0
v -160 -64 0
v -144 -64 0
v -160 -80 0
v -176 -80 0
v -176 -64 0
v -160 -64 0
v -176 -80 0
v -192 -80 0
v -192 -64 0
v -176 -64 0
v -224 -80 0
v -240 -80 0
v -240 -64 0
v -224 -64 0
v -240 -80 0
v -256 -80 0
v -256 -64 0
v -240 -64 0
v -272 -80 0
v -288 -80 0
v -288 -64 0
v -272 -64 0
v -288 -80 0
v -304 -80 0
v -304 -64 0
v -288 -64 0
v -304 -80 0
v -320 -80 0
v -320 -64 0
v -304 -64 0
v -528 -80 0
v -544 -80 0
v -544 -64 0
v -528 -64 0
v -544 -80 0
v -560 -80 0
v -560 -64 0
v -544 -64 0
v -560 -80 0
v -576 -80 0
v -576 -64 0
v -560 -64 0
v -96 -96 0
v -112 -96 0
v -112 -80 0
v -96 -80 0
v -112 -96 0
v -128 -96 0
v -128 -80 0
v -112 -80 0
v -128 -96 0
v -144 -96 0
v -144 -80 0
v -128 -80 0
v -144 -96 0
v -160 -96 0
v -160 -80 0
v -144 -80 0
v -160 -96 0
v -176 -96 0
v -176 -80 0
v -160 -80 0
v -176 -96 0
v -192 -96 0
v -192 -80 0
v -176 -80 0
v -192 -96 0
v -208 -96 0
v -208 -80 0
v -192 -80 0
v -208 -96 0
v -224 -96 0
v -224 -80 0
v -208 -80 0
v -224 -96 0
v -240 -96 0
v -240 -80 0
v -224 -80 0
v -272 -96 0
v -288 -96 0
v -288 -80 0
v -272 -80 0
v -288 -96 0
v -304 -96 0
v -304 -80 0
v -288 -80 0
v -336 -96 0
v -352 -96 0
v -352 -80 0
v -336 -80 0
v -352 -96 0
v -368 -96 0
v -368 -80 0
v -352 -80 0
v -368 -96 0
v -384 -96 0
v -384 -80 0
v -368 -80 0
v -608 -96 0
v -624 -96 0
v -624 -80 0
v -608 -80 0
v -64 -112 0
v -80 -112 0
v -80 -96 0
v -64 -96 0
v -80 -112 0
v -96 -112 0
v -96 -96 0
v -80 -96 0
v -112 -112 0
v -128 -112 0
v -128 -96 0
v -112 -96 0
v -144 -112 0
v -160 -112 0
v -160 -96 0
v -144 -96 0
v -160 -112 0
v -176 -112 0
v -176 -96 0
v -160 -96 0
v -176 -112 0
v -192 -112 0
v -192 -96 0
v -176 -96 0
v -272 -112 0
v -288 -112 0
v -288 -96 0
v -272 -96 0
v -288 -112 0
v -304 -112 0
v -304 -96 0
v -288 -96 0
v -304 -112 0
v -320 -112 0
v -320 -96 0
v -304 -96 0
v -320 -112 0
v -336 -112 0
v -336 -96 0
v -320 -96 0
v -336 -112 0
v -352 -112 0
v -352 -96 0
v -336 -96 0
v -352 -112 0
v -368 -112 0
v -368 -96 0
v -352 -96 0
v -368 -112 0
v -384 -112 0
v -384 -96 0
v -368 -96 0
v -560 -112 0
v -576 -112 0
v -576 -96 0
v -560 -96 0
v -576 -112 0
v -592 -112 0
v -592 -96 0
v -576 -96 0
v -592 -112 0
v -608 -112 0
v -608 -96 0
v -592 -96 0
v -608 -112 0
v -624 -112 0
v -624 -96 0
v -608 -96 0
v -624 -112 0
v -640 -112 0
v -640 -96 0
v -624 -96 0
v -96 -128 0
v -112 -128 0
v -112 -112 0
v -96 -112 0
v -144 -128 0
v -160 -128 0
v -160 -112 0
v -144 -112 0
v -304 -128 0
v -320 -128 0
v -320 -112 0
v -304 -112 0
v -320 -128 0
v -336 -128 0
v -336 -112 0
v -320 -112 0
v -336 -128 0
v -352 -128 0
v -352 -112 0
v -336 -112 0
v -352 -128 0
v -368 -128 0
v -368 -112 0
v -352 -112 0
v -368 -128 0
v -384 -128 0
v -384 -112 0
v -368 -112 0
v -544 -128 0
v -560 -128 0
v -560 -112 0
v -544 -112 0
v -560 -128 0
v -576 -128 0
v -576 -112 0
v -560 -112 0
v -576 -128 0
v -592 -128 0
v -592 -112 0
v -576 -112 0
v -592 -128 0
v -608 -128 0
v -608 -112 0
v -592 -112 0
v -288 -144 0
v -304 -144 0
v -304 -128 0
v -288 -128 0
v -304 -144 0
v -320 -144 0
v -320 -128 0
v -304 -128 0
v -544 -144 0
v -560 -144 0
v -560 -128 0
v -544 -128 0
v -576 -144 0
v -592 -144 0
v -592 -128 0
v -576 -128 0
v -592 -144 0
v -608 -144 0
v -608 -128 0
v -592 -128 0
v -608 -144 0
v -624 -144 0
v -624 -128 0
v -608 -128 0
v -256 -160 0
v -272 -160 0
v -272 -144 0
v -256 -144 0
v -272 -160 0
v -288 -160 0
v -288 -144 0
v -272 -144 0
v -288 -160 0
v -304 -160 0
v -304 -144 0
v -288 -144 0
v -560 -160 0
v -576 -160 0
v -576 -144 0
v -560 -144 0
v -576 -160 0
v -592 -160 0
v -592 -144 0
v -576 -144 0
v -592 -160 0
v -608 -160 0
v -608 -144 0
v -592 -144 0
v -608 -160 0
v -624 -160 0
v -624 -144 0
v -608 -144 0
v -624 -160 0
v -640 -160 0
v -640 -144 0
v -624 -144 0
v -224 -176 0
v -240 -176 0
v -240 -160 0
v -224 -160 0
v -240 -176 0
v -256 -176 0
v -256 -160 0
v -240 -160 0
v -256 -176 0
v -272 -176 0
v -272 -160 0
v -256 -160 0
v -272 -176 0
v -288 -176 0
v -288 -160 0
v -272 -160 0
v -288 -176 0
v -304 -176 0
v -304 -160 0
v -288 -160 0
v -576 -176 0
v -592 -176 0
v -592 -160 0
v -576 -160 0
v -592 -176 0
v -608 -176 0
v -608 -160 0
v -592 -160 0
v -608 -176 0
v -624 -176 0
v -624 -160 0
v -608 -160 0
v -624 -176 0
v -640 -176 0
v -640 -160 0
v -624 -160 0
v -288 -192 0
v -304 -192 0
v -304 -176 0
v -288 -176 0
v -304 -192 0
v -320 -192 0
v -320 -176 0
v -304 -176 0
v -576 -192 0
v -592 -192 0
v -592 -176 0
v -576 -176 0
v -592 -192 0
v -608 -192 0
v -608 -176 0
v -592 -176 0
v -608 -192 0
v -624 -192 0
v -624 -176 0
v -608 -176 0
v -624 -192 0
v -640 -192 0
v -640 -176 0
v -624 -176 0
v -592 -208 0
v -608 -208 0
v -608 -192 0
v -592 -192 0
v -608 -208 0
v -624 -208 0
v -624 -192 0
v -608 -192 0
v -48 -224 0
v -64 -224 0
v -64 -208 0
v -48 -208 0
v -64 -224 0
v -80 -224 0
v -80 -208 0
v -64 -208 0
v -608 -224 0
v -624 -224 0
v -624 -208 0
v -608 -208 0
v -624 -224 0
v -640 -224 0
v -640 -208 0
v -624 -208 0
v -64 -240 0
v -80 -240 0
v -80 -224 0
v -64 -224 0
v -80 -240 0
v -96 -240 0
v -96 -224 0
v -80 -224 0
v -528 -240 0
v -544 -240 0
v -544 -224 0
v -528 -224 0
v -624 -240 0
v -640 -240 0
v -640 -224 0
v -624 -224 0
v -80 -256 0
v -96 -256 0
v -96 -240 0
v -80 -240 0
v -512 -256 0
v -528 -256 0
v -528 -240 0
v -512 -240 0
v -528 -256 0
v -544 -256 0
v -544 -240 0
v -528 -240 0
v -80 -272 0
v -96 -272 0
v -96 -256 0
v -80 -256 0
v -96 -272 0
v -112 -272 0
v -112 -256 0
v -96 -256 0
v -112 -272 0
v -128 -272 0
v -128 -256 0
v -112 -256 0
v -128 -272 0
v -144 -272 0
v -144 -256 0
v -128 -256 0
v -208 -272 0
v -224 -272 0
v -224 -256 0
v -208 -256 0
v -480 -272 0
v -496 -272 0
v -496 -256 0
v -480 -256 0
v -496 -272 0
v -512 -272 0
v -512 -256 0
v -496 -256 0
v -512 -272 0
v -528 -272 0
v -528 -256 0
v -512 -256 0
v -128 -288 0
v -144 -288 0
v -144 -272 0
v -128 -272 0
v -144 -288 0
v -160 -288 0
v -160 -272 0
v -144 -272 0
v -464 -288 0
v -480 -288 0
v -480 -272 0
v -464 -272 0
v -480 -288 0
v -496 -288 0
v -496 -272 0
v -480 -272 0
v -144 -304 0
v -160 -304 0
v -160 -288 0
v -144 -288 0
v -160 -304 0
v -176 -304 0
v -176 -288 0
v -160 -288 0
v -176 -304 0
v -192 -304 0
v -192 -288 0
v -176 -288 0
v -192 -304 0
v -208 -304 0
v -208 -288 0
v -192 -288 0
v -208 -304 0
v -224 -304 0
v -224 -288 0
v -208 -288 0
v -224 -304 0
v -240 -304 0
v -240 -288 0
v -224 -288 0
v -240 -304 0
v -256 -304 0
v -256 -288 0
v -240 -288 0
v -256 -304 0
v -272 -304 0
v -272 -288 0
v -256 -288 0
v -96 -320 0
v -112 -320 0
v -112 -304 0
v -96 -304 0
v -272 -320 0
v -288 -320 0
v -288 -304 0
v -272 -304 0
v -288 -320 0
v -304 -320 0
v -304 -304 0
v -288 -304 0
v -304 -320 0
v -320 -320 0
v -320 -304 0
v -304 -304 0
v -320 -320 0
v -336 -320 0
v -336 -304 0
v -320 -304 0
v -336 -320 0
v -352 -320 0
v -352 -304 0
v -336 -304 0
v -352 -320 0
v -368 -320 0
v -368 -304 0
v -352 -304 0
v -224 -336 0
v -240 -336 0
v -240 -320 0
v -224 -320 0
v -240 -336 0
v -256 -336 0
v -256 -320 0
v -240 -320 0
v -240 -352 0
v -256 -352 0
v -256 -336 0
v -240 -336 0
v -256 -352 0
v -272 -352 0
v -272 -336 0
v -256 -336 0
v -432 -416 0
v -448 -416 0
v -448 -400 0
v -432 -400 0
v -432 -432 0
v -448 -432 0
v -448 -416 0
v -432 -416 0
v -432 -448 0
v -448 -448 0
v -448 -432 0
v -432 -432 0
v -16 -464 0
v -32 -464 0
v -32 -448 0
v -16 -448 0
v -32 -464 0
v -48 -464 0
v -48 -448 0
v -32 -448 0
v -400 -464 0
v -416 -464 0
v -416 -448 0
v -400 -448 0
v -416 -464 0
v -432 -464 0
v -432 -448 0
v -416 -448 0
v -432 -464 0
v -448 -464 0
v -448 -448 0
v -432 -448 0
v 0 -480 0
v -16 -480 0
v -16 -464 0
v 0 -464 0
v -16 -480 0
v -32 -480 0
v -32 -464 0
v -16 -464 0
v -32 -480 0
v -48 -480 0
v -48 -464 0
v -32 -464 0
v -48 -480 0
v -64 -480 0
v -64 -464 0
v -48 -464 0
v -64 -480 0
v -80 -480 0
v -80 -464 0
v -64 -464 0
v -208 -480 0
v -224 -480 0
v -224 -464 0
v -208 -464 0
v -224 -480 0
v -240 -480 0
v -240 -464 0
v -224 -464 0
v -240 -480 0
v -256 -480 0
v -256 -464 0
v -240 -464 0
v -368 -480 0
v -384 -480 0
v -384 -464 0
v -368 -464 0
v -384 -480 0
v -400 -480 0
v -400 -464 0
v -384 -464 0
v -400 -480 0
v -416 -480 0
v -416 -464 0
v -400 -464 0
v -416 -480 0
v -432 -480 0
v -432 -464 0
v -416 -464 0
v -64 -496 0
v -80 -496 0
v -80 -480 0
v -64 -480 0
v -80 -496 0
v -96 -496 0
v -96 -480 0
v -80 -480 0
v -176 -496 0
v -192 -496 0
v -192 -480 0
v -176 -480 0
v -192 -496 0
v -208 -496 0
v -208 -480 0
v -192 -480 0
v -208 -496 0
v -224 -496 0
v -224 -480 0
v -208 -480 0
v -352 -496 0
v -368 -496 0
v -368 -480 0
v -352 -480 0
v -368 -496 0
v -384 -496 0
v -384 -480 0
v -368 -480 0
v -32 -512 0
v -48 -512 0
v -48 -496 0
v -32 -496 0
v -48 -512 0
v -64 -512 0
v -64 -496 0
v -48 -496 0
v -64 -512 0
v -80 -512 0
v -80 -496 0
v -64 -496 0
v -144 -512 0
v -160 -512 0
v -160 -496 0
v -144 -496 0
v -160 -512 0
v -176 -512 0
v -176 -496 0
v -160 -496 0
v -176 -512 0
v -192 -512 0
v -192 -496 0
v -176 -496 0
v -16 -528 0
v -32 -528 0
v -32 -512 0
v -16 -512 0
v -32 -528 0
v -48 -528 0
v -48 -512 0
v -32 -512 0
v -48 -528 0
v -64 -528 0
v -64 -512 0
v -48 -512 0
v -64 -528 0
v -80 -528 0
v -80 -512 0
v -64 -512 0
v -16 -544 0
v -32 -544 0
v -32 -528 0
v -16 -528 0
v -32 -544 0
v -48 -544 0
v -48 -528 0
v -32 -528 0
v -48 -544 0
v -64 -544 0
v -64 -528 0
v -48 -528 0
v -64 -544 0
v -80 -544 0
v -80 -528 0
v -64 -528 0
v -80 -544 0
v -96 -544 0
v -96 -528 0
v -80 -528 0
v -96 -544 0
v -112 -544 0
v -112 -528 0
v -96 -528 0
v -112 -544 0
v -128 -544 0
v -128 -528 0
v -112 -528 0
v -64 -560 0
v -80 -560 0
v -80 -544 0
v -64 -544 0
v -80 -560 0
v -96 -560 0
v -96 -544 0
v -80 -544 0
v -96 -560 0
v -112 -560 0
v -112 -544 0
v -96 -544 0
v -112 -560 0
v -128 -560 0
v -128 -544 0
v -112 -544 0
v -32 -576 0
v -48 -576 0
v -48 -560 0
v -32 -560 0
v -64 -576 0
v -80 -576 0
v -80 -560 0
v -64 -560 0
v -80 -576 0
v -96 -576 0
v -96 -560 0
v -80 -560 0
v -96 -576 0
v -112 -576 0
v -112 -560 0
v -96 -560 0
v -112 -576 0
v -128 -576 0
v -128 -560 0
v -112 -560 0
v -176 -576 0
v -192 -576 0
v -192 -560 0
v -176 -560 0
v 0 -592 0
v -16 -592 0
v -16 -576 0
v 0 -576 0
v 0 -608 0
v -16 -608 0
v -16 -592 0
v 0 -592 0
v -16 -608 0
v -32 -608 0
v -32 -592 0
v -16 -592 0
v -32 -608 0
v -48 -608 0
v -48 -592 0
v -32 -592 0
v -80 -608 0
v -96 -608 0
v -96 -592 0
v -80 -592 0
v -96 -608 0
v -112 -608 0
v -112 -592 0
v -96 -592 0
v -112 -608 0
v -128 -608 0
v -128 -592 0
v -112 -592 0
v 0 -624 0
v -16 -624 0
v -16 -608 0
v 0 -608 0
v -16 -624 0
v -32 -624 0
v -32 -608 0
v -16 -608 0
v -32 -624 0
v -48 -624 0
v -48 -608 0
v -32 -608 0
v -48 -624 0
v -64 -624 0
v -64 -608 0
v -48 -608 0
v -112 -624 0
v -128 -624 0
v -128 -608 0
v -112 -608 0
v -128 -624 0
v -144 -624 0
v -144 -608 0
v -128 -608 0
v -144 -624 0
v -160 -624 0
v -160 -608 0
v -144 -608 0
v 0 -640 0
v -16 -640 0
v -16 -624 0
v 0 -624 0
v -16 -640 0
v -32 -640 0
v -32 -624 0
v -16 -624 0
v -32 -640 0
v -48 -640 0
v -48 -624 0
v -32 -624 0
v -48 -640 0
v -64 -640 0
v -64 -624 0
v -48 -624 0
v -64 -640 0
v -80 -640 0
v -80 -624 0
v -64 -624 0
v -128 -640 0
v -144 -640 0
v -144 -624 0
v -128 -624 0

# Texture cooridinates (Count = 32)
vt 0.2 0.375
vt 0.2333333 0.375
vt 0.2333333 0.4375
vt 0.2 0.4375
vt 0.2666667 0.375
vt 0.2666667 0.4375
vt 0.3 0.375
vt 0.3 0.4375
vt 0.2333333 0.3125
vt 0.2666667 0.3125
vt 0.2 0.3125
vt 0.3 0.3125
vt 0.2333333 0.5
vt 0.2 0.5
vt 0.2 0.25
vt 0.2333333 0.25
vt 0.2666667 0.25
vt 0.3 0.25
vt 0.3666667 0.4375
vt 0.4 0.4375
vt 0.4 0.5
vt 0.3666667 0.5
vt 0.3333333 0.375
vt 0.3333333 0.4375
vt 0.3666667 0.375
vt 0.4 0.375
vt 0.3333333 0.3125
vt 0.3666667 0.3125
vt 0.4 0.3125
vt 0.3333333 0.25
vt 0.3666667 0.25
vt 0.4 0.25

# Normal
vn 0 0 -1

# Mesh description
g map2-1_mesh_0002

# Faces
f 1/1/1 2/2/1 3/3/1 4/4/1
f 5/2/1 6/5/1 7/6/1 8/3/1
f 9/5/1 10/7/1 11/8/1 12/6/1
f 13/1/1 14/2/1 15/3/1 16/4/1
f 17/2/1 18/5/1 19/6/1 20/3/1
f 21/9/1 22/10/1 23/5/1 24/2/1
f 25/11/1 26/9/1 27/2/1 28/1/1
f 29/9/1 30/10/1 31/5/1 32/2/1
f 33/10/1 34/12/1 35/7/1 36/5/1
f 37/4/1 38/3/1 39/13/1 40/14/1
f 41/4/1 42/3/1 43/13/1 44/14/1
f 45/2/1 46/5/1 47/6/1 48/3/1
f 49/11/1 50/9/1 51/2/1 52/1/1
f 53/9/1 54/10/1 55/5/1 56/2/1
f 57/10/1 58/12/1 59/7/1 60/5/1
f 61/15/1 62/16/1 63/9/1 64/11/1
f 65/16/1 66/17/1 67/10/1 68/9/1
f 69/17/1 70/18/1 71/12/1 72/10/1
f 73/4/1 74/3/1 75/13/1 76/14/1
f 77/4/1 78/3/1 79/13/1 80/14/1
f 81/1/1 82/2/1 83/3/1 84/4/1
f 85/2/1 86/5/1 87/6/1 88/3/1
f 89/2/1 90/5/1 91/6/1 92/3/1
f 93/16/1 94/17/1 95/10/1 96/9/1
f 97/15/1 98/16/1 99/9/1 100/11/1
f 101/16/1 102/17/1 103/10/1 104/9/1
f 105/17/1 106/18/1 107/12/1 108/10/1
f 109/1/1 110/2/1 111/3/1 112/4/1
f 113/2/1 114/5/1 115/6/1 116/3/1
f 117/10/1 118/12/1 119/7/1 120/5/1
f 121/4/1 122/3/1 123/13/1 124/14/1
f 125/4/1 126/3/1 127/13/1 128/14/1
f 129/4/1 130/3/1 131/13/1 132/14/1
f 133/1/1 134/2/1 135/3/1 136/4/1
f 137/5/1 138/7/1 139/8/1 140/6/1
f 141/11/1 142/9/1 143/2/1 144/1/1
f 145/9/1 146/10/1 147/5/1 148/2/1
f 149/10/1 150/12/1 151/7/1 152/5/1
f 153/4/1 154/3/1 155/13/1 156/14/1
f 157/4/1 158/3/1 159/13/1 160/14/1
f 161/11/1 162/9/1 163/2/1 164/1/1
f 165/9/1 166/10/1 167/5/1 168/2/1
f 169/10/1 170/12/1 171/7/1 172/5/1
f 173/1/1 174/2/1 175/3/1 176/4/1
f 177/2/1 178/5/1 179/6/1 180/3/1
f 181/5/1 182/7/1 183/8/1 184/6/1
f 185/4/1 186/3/1 187/13/1 188/14/1
f 189/4/1 190/3/1 191/13/1 192/14/1
f 193/1/1 194/2/1 195/3/1 196/4/1
f 197/9/1 198/10/1 199/5/1 200/2/1
f 201/10/1 202/12/1 203/7/1 204/5/1
f 205/15/1 206/16/1 207/9/1 208/11/1
f 209/16/1 210/17/1 211/10/1 212/9/1
f 213/17/1 214/18/1 215/12/1 216/10/1
f 217/15/1 218/16/1 219/9/1 220/11/1
f 221/16/1 222/17/1 223/10/1 224/9/1
f 225/17/1 226/18/1 227/12/1 228/10/1
f 229/11/1 230/9/1 231/2/1 232/1/1
f 233/9/1 234/10/1 235/5/1 236/2/1
f 237/10/1 238/12/1 239/7/1 240/5/1
f 241/4/1 242/3/1 243/13/1 244/14/1
f 245/4/1 246/3/1 247/13/1 248/14/1
f 249/4/1 250/3/1 251/13/1 252/14/1
f 253/9/1 254/10/1 255/5/1 256/2/1
f 257/10/1 258/12/1 259/7/1 260/5/1
f 261/1/1 262/2/1 263/3/1 264/4/1
f 265/2/1 266/5/1 267/6/1 268/3/1
f 269/5/1 270/7/1 271/8/1 272/6/1
f 273/4/1 274/3/1 275/13/1 276/14/1
f 277/4/1 278/3/1 279/13/1 280/14/1
f 281/4/1 282/3/1 283/13/1 284/14/1
f 285/4/1 286/3/1 287/13/1 288/14/1
f 289/15/1 290/16/1 291/9/1 292/11/1
f 293/16/1 294/17/1 295/10/1 296/9/1
f 297/17/1 298/18/1 299/12/1 300/10/1
f 301/15/1 302/16/1 303/9/1 304/11/1
f 305/15/1 306/16/1 307/9/1 308/11/1
f 309/2/1 310/5/1 311/6/1 312/3/1
f 313/2/1 314/5/1 315/6/1 316/3/1
f 317/11/1 318/9/1 319/2/1 320/1/1
f 321/9/1 322/10/1 323/5/1 324/2/1
f 325/10/1 326/12/1 327/7/1 328/5/1
f 329/1/1 330/2/1 331/3/1 332/4/1
f 333/2/1 334/5/1 335/6/1 336/3/1
f 337/2/1 338/5/1 339/6/1 340/3/1
f 341/4/1 342/3/1 343/13/1 344/14/1
f 345/4/1 346/3/1 347/13/1 348/14/1
f 349/4/1 350/3/1 351/13/1 352/14/1
f 353/4/1 354/3/1 355/13/1 356/14/1
f 357/4/1 358/3/1 359/13/1 360/14/1
f 361/4/1 362/3/1 363/13/1 364/14/1
f 365/15/1 366/16/1 367/9/1 368/11/1
f 369/16/1 370/17/1 371/10/1 372/9/1
f 373/17/1 374/18/1 375/12/1 376/10/1
f 377/4/1 378/3/1 379/13/1 380/14/1
f 381/15/1 382/16/1 383/9/1 384/11/1
f 385/9/1 386/10/1 387/5/1 388/2/1
f 389/10/1 390/12/1 391/7/1 392/5/1
f 393/4/1 394/3/1 395/13/1 396/14/1
f 397/4/1 398/3/1 399/13/1 400/14/1
f 401/4/1 402/3/1 403/13/1 404/14/1
f 405/15/1 406/16/1 407/9/1 408/11/1
f 409/9/1 410/10/1 411/5/1 412/2/1
f 413/5/1 414/7/1 415/8/1 416/6/1
f 417/4/1 418/3/1 419/13/1 420/14/1
f 421/4/1 422/3/1 423/13/1 424/14/1
f 425/4/1 426/3/1 427/13/1 428/14/1
f 429/4/1 430/3/1 431/13/1 432/14/1
f 433/15/1 434/16/1 435/9/1 436/11/1
f 437/11/1 438/9/1 439/2/1 440/1/1
f 441/2/1 442/5/1 443/6/1 444/3/1
f 445/2/1 446/5/1 447/6/1 448/3/1
f 449/4/1 450/3/1 451/13/1 452/14/1
f 453/4/1 454/3/1 455/13/1 456/14/1
f 457/4/1 458/3/1 459/13/1 460/14/1
f 461/4/1 462/3/1 463/13/1 464/14/1
f 465/4/1 466/3/1 467/13/1 468/14/1
f 469/4/1 470/3/1 471/13/1 472/14/1
f 473/11/1 474/9/1 475/2/1 476/1/1
f 477/9/1 478/10/1 479/5/1 480/2/1
f 481/10/1 482/12/1 483/7/1 484/5/1
f 485/4/1 486/3/1 487/13/1 488/14/1
f 489/4/1 490/3/1 491/13/1 492/14/1
f 493/4/1 494/3/1 495/13/1 496/14/1
f 497/15/1 498/16/1 499/9/1 500/11/1
f 501/16/1 502/17/1 503/10/1 504/9/1
f 505/17/1 506/18/1 507/12/1 508/10/1
f 509/4/1 510/3/1 511/13/1 512/14/1
f 513/4/1 514/3/1 515/13/1 516/14/1
f 517/4/1 518/3/1 519/13/1 520/14/1
f 521/4/1 522/3/1 523/13/1 524/14/1
f 525/4/1 526/3/1 527/13/1 528/14/1
f 529/4/1 530/3/1 531/13/1 532/14/1
f 533/4/1 534/3/1 535/13/1 536/14/1
f 537/4/1 538/3/1 539/13/1 540/14/1
f 541/4/1 542/3/1 543/13/1 544/14/1
f 545/4/1 546/3/1 547/13/1 548/14/1
f 549/4/1 550/3/1 551/13/1 552/14/1
f 553/4/1 554/3/1 555/13/1 556/14/1
f 557/4/1 558/3/1 559/13/1 560/14/1
f 561/4/1 562/3/1 563/13/1 564/14/1
f 565/4/1 566/3/1 567/13/1 568/14/1
f 569/4/1 570/3/1 571/13/1 572/14/1
f 573/4/1 574/3/1 575/13/1 576/14/1
f 577/4/1 578/3/1 579/13/1 580/14/1
f 581/4/1 582/3/1 583/13/1 584/14/1
f 585/4/1 586/3/1 587/13/1 588/14/1
f 589/4/1 590/3/1 591/13/1 592/14/1
f 593/4/1 594/3/1 595/13/1 596/14/1
f 597/4/1 598/3/1 599/13/1 600/14/1
f 601/4/1 602/3/1 603/13/1 604/14/1
f 605/4/1 606/3/1 607/13/1 608/14/1
f 609/4/1 610/3/1 611/13/1 612/14/1
f 613/4/1 614/3/1 615/13/1 616/14/1
f 617/4/1 618/3/1 619/13/1 620/14/1
f 621/4/1 622/3/1 623/13/1 624/14/1
f 625/4/1 626/3/1 627/13/1 628/14/1
f 629/4/1 630/3/1 631/13/1 632/14/1
f 633/4/1 634/3/1 635/13/1 636/14/1
f 637/4/1 638/3/1 639/13/1 640/14/1
f 641/4/1 642/3/1 643/13/1 644/14/1
f 645/4/1 646/3/1 647/13/1 648/14/1
f 649/4/1 650/3/1 651/13/1 652/14/1
f 653/4/1 654/3/1 655/13/1 656/14/1
f 657/4/1 658/3/1 659/13/1 660/14/1
f 661/4/1 662/3/1 663/13/1 664/14/1
f 665/4/1 666/3/1 667/13/1 668/14/1
f 669/4/1 670/3/1 671/13/1 672/14/1
f 673/4/1 674/3/1 675/13/1 676/14/1
f 677/4/1 678/3/1 679/13/1 680/14/1
f 681/4/1 682/3/1 683/13/1 684/14/1
f 685/4/1 686/3/1 687/13/1 688/14/1
f 689/4/1 690/3/1 691/13/1 692/14/1
f 693/4/1 694/3/1 695/13/1 696/14/1
f 697/19/1 698/20/1 699/21/1 700/22/1
f 701/19/1 702/20/1 703/21/1 704/22/1
f 705/4/1 706/3/1 707/13/1 708/14/1
f 709/4/1 710/3/1 711/13/1 712/14/1
f 713/4/1 714/3/1 715/13/1 716/14/1
f 717/19/1 718/20/1 719/21/1 720/22/1
f 721/19/1 722/20/1 723/21/1 724/22/1
f 725/19/1 726/20/1 727/21/1 728/22/1
f 729/19/1 730/20/1 731/21/1 732/22/1
f 733/19/1 734/20/1 735/21/1 736/22/1
f 737/19/1 738/20/1 739/21/1 740/22/1
f 741/19/1 742/20/1 743/21/1 744/22/1
f 745/19/1 746/20/1 747/21/1 748/22/1
f 749/4/1 750/3/1 751/13/1 752/14/1
f 753/4/1 754/3/1 755/13/1 756/14/1
f 757/4/1 758/3/1 759/13/1 760/14/1
f 761/4/1 762/3/1 763/13/1 764/14/1
f 765/19/1 766/20/1 767/21/1 768/22/1
f 769/19/1 770/20/1 771/21/1 772/22/1
f 773/19/1 774/20/1 775/21/1 776/22/1
f 777/19/1 778/20/1 779/21/1 780/22/1
f 781/19/1 782/20/1 783/21/1 784/22/1
f 785/4/1 786/3/1 787/13/1 788/14/1
f 789/4/1 790/3/1 791/13/1 792/14/1
f 793/7/1 794/23/1 795/24/1 796/8/1
f 797/23/1 798/25/1 799/19/1 800/24/1
f 801/25/1 802/26/1 803/20/1 804/19/1
f 805/19/1 806/20/1 807/21/1 808/22/1
f 809/19/1 810/20/1 811/21/1 812/22/1
f 813/19/1 814/20/1 815/21/1 816/22/1
f 817/19/1 818/20/1 819/21/1 820/22/1
f 821/27/1 822/28/1 823/25/1 824/23/1
f 825/27/1 826/28/1 827/25/1 828/23/1
f 829/28/1 830/29/1 831/26/1 832/25/1
f 833/19/1 834/20/1 835/21/1 836/22/1
f 837/30/1 838/31/1 839/28/1 840/27/1
f 841/30/1 842/31/1 843/28/1 844/27/1
f 845/27/1 846/28/1 847/25/1 848/23/1
f 849/23/1 850/25/1 851/19/1 852/24/1
f 853/23/1 854/25/1 855/19/1 856/24/1
f 857/25/1 858/26/1 859/20/1 860/19/1
f 861/19/1 862/20/1 863/21/1 864/22/1
f 865/27/1 866/28/1 867/25/1 868/23/1
f 869/27/1 870/28/1 871/25/1 872/23/1
f 873/28/1 874/29/1 875/26/1 876/25/1
f 877/19/1 878/20/1 879/21/1 880/22/1
f 881/19/1 882/20/1 883/21/1 884/22/1
f 885/30/1 886/31/1 887/28/1 888/27/1
f 889/30/1 890/31/1 891/28/1 892/27/1
f 893/31/1 894/32/1 895/29/1 896/28/1
f 897/19/1 898/20/1 899/21/1 900/22/1
f 901/25/1 902/26/1 903/20/1 904/19/1
f 905/27/1 906/28/1 907/25/1 908/23/1
f 909/23/1 910/25/1 911/19/1 912/24/1
f 913/25/1 914/26/1 915/20/1 916/19/1
f 917/19/1 918/20/1 919/21/1 920/22/1
f 921/19/1 922/20/1 923/21/1 924/22/1
f 925/19/1 926/20/1 927/21/1 928/22/1
f 929/27/1 930/28/1 931/25/1 932/23/1
f 933/27/1 934/28/1 935/25/1 936/23/1
f 937/28/1 938/29/1 939/26/1 940/25/1
f 941/25/1 942/26/1 943/20/1 944/19/1
f 945/19/1 946/20/1 947/21/1 948/22/1
f 949/19/1 950/20/1 951/21/1 952/22/1
f 953/19/1 954/20/1 955/21/1 956/22/1
f 957/27/1 958/28/1 959/25/1 960/23/1
f 961/27/1 962/28/1 963/25/1 964/23/1
f 965/27/1 966/28/1 967/25/1 968/23/1
f 969/27/1 970/28/1 971/25/1 972/23/1
f 973/19/1 974/20/1 975/21/1 976/22/1
f 977/19/1 978/20/1 979/21/1 980/22/1

