# Tiled2Unity generated file. Do not modify by hand.
# Wavefront file for 'map2_mesh_0003.obj'

# Vertices (Count = 940)
v -128 -16 0
v -144 -16 0
v -144 0 0
v -128 0 0
v -144 -16 0
v -160 -16 0
v -160 0 0
v -144 0 0
v -592 -16 0
v -608 -16 0
v -608 0 0
v -592 0 0
v -608 -16 0
v -624 -16 0
v -624 0 0
v -608 0 0
v -128 -32 0
v -144 -32 0
v -144 -16 0
v -128 -16 0
v -144 -32 0
v -160 -32 0
v -160 -16 0
v -144 -16 0
v -160 -32 0
v -176 -32 0
v -176 -16 0
v -160 -16 0
v -176 -32 0
v -192 -32 0
v -192 -16 0
v -176 -16 0
v -208 -32 0
v -224 -32 0
v -224 -16 0
v -208 -16 0
v -576 -32 0
v -592 -32 0
v -592 -16 0
v -576 -16 0
v -592 -32 0
v -608 -32 0
v -608 -16 0
v -592 -16 0
v -608 -32 0
v -624 -32 0
v -624 -16 0
v -608 -16 0
v -624 -32 0
v -640 -32 0
v -640 -16 0
v -624 -16 0
v -128 -48 0
v -144 -48 0
v -144 -32 0
v -128 -32 0
v -144 -48 0
v -160 -48 0
v -160 -32 0
v -144 -32 0
v -160 -48 0
v -176 -48 0
v -176 -32 0
v -160 -32 0
v -176 -48 0
v -192 -48 0
v -192 -32 0
v -176 -32 0
v -240 -48 0
v -256 -48 0
v -256 -32 0
v -240 -32 0
v -528 -48 0
v -544 -48 0
v -544 -32 0
v -528 -32 0
v -544 -48 0
v -560 -48 0
v -560 -32 0
v -544 -32 0
v -576 -48 0
v -592 -48 0
v -592 -32 0
v -576 -32 0
v -592 -48 0
v -608 -48 0
v -608 -32 0
v -592 -32 0
v -608 -48 0
v -624 -48 0
v -624 -32 0
v -608 -32 0
v -624 -48 0
v -640 -48 0
v -640 -32 0
v -624 -32 0
v -96 -64 0
v -112 -64 0
v -112 -48 0
v -96 -48 0
v -112 -64 0
v -128 -64 0
v -128 -48 0
v -112 -48 0
v -160 -64 0
v -176 -64 0
v -176 -48 0
v -160 -48 0
v -208 -64 0
v -224 -64 0
v -224 -48 0
v -208 -48 0
v -240 -64 0
v -256 -64 0
v -256 -48 0
v -240 -48 0
v -288 -64 0
v -304 -64 0
v -304 -48 0
v -288 -48 0
v -528 -64 0
v -544 -64 0
v -544 -48 0
v -528 -48 0
v -544 -64 0
v -560 -64 0
v -560 -48 0
v -544 -48 0
v -560 -64 0
v -576 -64 0
v -576 -48 0
v -560 -48 0
v -576 -64 0
v -592 -64 0
v -592 -48 0
v -576 -48 0
v -80 -80 0
v -96 -80 0
v -96 -64 0
v -80 -64 0
v -96 -80 0
v -112 -80 0
v -112 -64 0
v -96 -64 0
v -112 -80 0
v -128 -80 0
v -128 -64 0
v -112 -64 0
v -128 -80 0
v -144 -80 0
v -144 -64 0
v -128 -64 0
v -144 -80 0
v -160 -80 0
v -160 -64 0
v -144 -64 0
v -160 -80 0
v -176 -80 0
v -176 -64 0
v -160 -64 0
v -224 -80 0
v -240 -80 0
v -240 -64 0
v -224 -64 0
v -240 -80 0
v -256 -80 0
v -256 -64 0
v -240 -64 0
v -272 -80 0
v -288 -80 0
v -288 -64 0
v -272 -64 0
v -288 -80 0
v -304 -80 0
v -304 -64 0
v -288 -64 0
v -304 -80 0
v -320 -80 0
v -320 -64 0
v -304 -64 0
v -528 -80 0
v -544 -80 0
v -544 -64 0
v -528 -64 0
v -544 -80 0
v -560 -80 0
v -560 -64 0
v -544 -64 0
v -560 -80 0
v -576 -80 0
v -576 -64 0
v -560 -64 0
v -96 -96 0
v -112 -96 0
v -112 -80 0
v -96 -80 0
v -112 -96 0
v -128 -96 0
v -128 -80 0
v -112 -80 0
v -128 -96 0
v -144 -96 0
v -144 -80 0
v -128 -80 0
v -144 -96 0
v -160 -96 0
v -160 -80 0
v -144 -80 0
v -160 -96 0
v -176 -96 0
v -176 -80 0
v -160 -80 0
v -176 -96 0
v -192 -96 0
v -192 -80 0
v -176 -80 0
v -192 -96 0
v -208 -96 0
v -208 -80 0
v -192 -80 0
v -208 -96 0
v -224 -96 0
v -224 -80 0
v -208 -80 0
v -224 -96 0
v -240 -96 0
v -240 -80 0
v -224 -80 0
v -272 -96 0
v -288 -96 0
v -288 -80 0
v -272 -80 0
v -288 -96 0
v -304 -96 0
v -304 -80 0
v -288 -80 0
v -336 -96 0
v -352 -96 0
v -352 -80 0
v -336 -80 0
v -352 -96 0
v -368 -96 0
v -368 -80 0
v -352 -80 0
v -608 -96 0
v -624 -96 0
v -624 -80 0
v -608 -80 0
v -64 -112 0
v -80 -112 0
v -80 -96 0
v -64 -96 0
v -80 -112 0
v -96 -112 0
v -96 -96 0
v -80 -96 0
v -112 -112 0
v -128 -112 0
v -128 -96 0
v -112 -96 0
v -144 -112 0
v -160 -112 0
v -160 -96 0
v -144 -96 0
v -160 -112 0
v -176 -112 0
v -176 -96 0
v -160 -96 0
v -176 -112 0
v -192 -112 0
v -192 -96 0
v -176 -96 0
v -272 -112 0
v -288 -112 0
v -288 -96 0
v -272 -96 0
v -288 -112 0
v -304 -112 0
v -304 -96 0
v -288 -96 0
v -304 -112 0
v -320 -112 0
v -320 -96 0
v -304 -96 0
v -320 -112 0
v -336 -112 0
v -336 -96 0
v -320 -96 0
v -336 -112 0
v -352 -112 0
v -352 -96 0
v -336 -96 0
v -352 -112 0
v -368 -112 0
v -368 -96 0
v -352 -96 0
v -368 -112 0
v -384 -112 0
v -384 -96 0
v -368 -96 0
v -560 -112 0
v -576 -112 0
v -576 -96 0
v -560 -96 0
v -576 -112 0
v -592 -112 0
v -592 -96 0
v -576 -96 0
v -608 -112 0
v -624 -112 0
v -624 -96 0
v -608 -96 0
v -624 -112 0
v -640 -112 0
v -640 -96 0
v -624 -96 0
v -96 -128 0
v -112 -128 0
v -112 -112 0
v -96 -112 0
v -144 -128 0
v -160 -128 0
v -160 -112 0
v -144 -112 0
v -304 -128 0
v -320 -128 0
v -320 -112 0
v -304 -112 0
v -320 -128 0
v -336 -128 0
v -336 -112 0
v -320 -112 0
v -336 -128 0
v -352 -128 0
v -352 -112 0
v -336 -112 0
v -352 -128 0
v -368 -128 0
v -368 -112 0
v -352 -112 0
v -368 -128 0
v -384 -128 0
v -384 -112 0
v -368 -112 0
v -544 -128 0
v -560 -128 0
v -560 -112 0
v -544 -112 0
v -560 -128 0
v -576 -128 0
v -576 -112 0
v -560 -112 0
v -576 -128 0
v -592 -128 0
v -592 -112 0
v -576 -112 0
v -592 -128 0
v -608 -128 0
v -608 -112 0
v -592 -112 0
v -288 -144 0
v -304 -144 0
v -304 -128 0
v -288 -128 0
v -304 -144 0
v -320 -144 0
v -320 -128 0
v -304 -128 0
v -544 -144 0
v -560 -144 0
v -560 -128 0
v -544 -128 0
v -576 -144 0
v -592 -144 0
v -592 -128 0
v -576 -128 0
v -592 -144 0
v -608 -144 0
v -608 -128 0
v -592 -128 0
v -256 -160 0
v -272 -160 0
v -272 -144 0
v -256 -144 0
v -272 -160 0
v -288 -160 0
v -288 -144 0
v -272 -144 0
v -288 -160 0
v -304 -160 0
v -304 -144 0
v -288 -144 0
v -560 -160 0
v -576 -160 0
v -576 -144 0
v -560 -144 0
v -576 -160 0
v -592 -160 0
v -592 -144 0
v -576 -144 0
v -592 -160 0
v -608 -160 0
v -608 -144 0
v -592 -144 0
v -608 -160 0
v -624 -160 0
v -624 -144 0
v -608 -144 0
v -224 -176 0
v -240 -176 0
v -240 -160 0
v -224 -160 0
v -240 -176 0
v -256 -176 0
v -256 -160 0
v -240 -160 0
v -256 -176 0
v -272 -176 0
v -272 -160 0
v -256 -160 0
v -272 -176 0
v -288 -176 0
v -288 -160 0
v -272 -160 0
v -288 -176 0
v -304 -176 0
v -304 -160 0
v -288 -160 0
v -576 -176 0
v -592 -176 0
v -592 -160 0
v -576 -160 0
v -592 -176 0
v -608 -176 0
v -608 -160 0
v -592 -160 0
v -608 -176 0
v -624 -176 0
v -624 -160 0
v -608 -160 0
v -624 -176 0
v -640 -176 0
v -640 -160 0
v -624 -160 0
v -288 -192 0
v -304 -192 0
v -304 -176 0
v -288 -176 0
v -304 -192 0
v -320 -192 0
v -320 -176 0
v -304 -176 0
v -576 -192 0
v -592 -192 0
v -592 -176 0
v -576 -176 0
v -592 -192 0
v -608 -192 0
v -608 -176 0
v -592 -176 0
v -608 -192 0
v -624 -192 0
v -624 -176 0
v -608 -176 0
v -624 -192 0
v -640 -192 0
v -640 -176 0
v -624 -176 0
v -592 -208 0
v -608 -208 0
v -608 -192 0
v -592 -192 0
v -608 -208 0
v -624 -208 0
v -624 -192 0
v -608 -192 0
v -48 -224 0
v -64 -224 0
v -64 -208 0
v -48 -208 0
v -64 -224 0
v -80 -224 0
v -80 -208 0
v -64 -208 0
v -608 -224 0
v -624 -224 0
v -624 -208 0
v -608 -208 0
v -624 -224 0
v -640 -224 0
v -640 -208 0
v -624 -208 0
v -64 -240 0
v -80 -240 0
v -80 -224 0
v -64 -224 0
v -80 -240 0
v -96 -240 0
v -96 -224 0
v -80 -224 0
v -528 -240 0
v -544 -240 0
v -544 -224 0
v -528 -224 0
v -624 -240 0
v -640 -240 0
v -640 -224 0
v -624 -224 0
v -80 -256 0
v -96 -256 0
v -96 -240 0
v -80 -240 0
v -512 -256 0
v -528 -256 0
v -528 -240 0
v -512 -240 0
v -528 -256 0
v -544 -256 0
v -544 -240 0
v -528 -240 0
v -80 -272 0
v -96 -272 0
v -96 -256 0
v -80 -256 0
v -96 -272 0
v -112 -272 0
v -112 -256 0
v -96 -256 0
v -112 -272 0
v -128 -272 0
v -128 -256 0
v -112 -256 0
v -128 -272 0
v -144 -272 0
v -144 -256 0
v -128 -256 0
v -208 -272 0
v -224 -272 0
v -224 -256 0
v -208 -256 0
v -480 -272 0
v -496 -272 0
v -496 -256 0
v -480 -256 0
v -496 -272 0
v -512 -272 0
v -512 -256 0
v -496 -256 0
v -512 -272 0
v -528 -272 0
v -528 -256 0
v -512 -256 0
v -128 -288 0
v -144 -288 0
v -144 -272 0
v -128 -272 0
v -144 -288 0
v -160 -288 0
v -160 -272 0
v -144 -272 0
v -464 -288 0
v -480 -288 0
v -480 -272 0
v -464 -272 0
v -480 -288 0
v -496 -288 0
v -496 -272 0
v -480 -272 0
v -144 -304 0
v -160 -304 0
v -160 -288 0
v -144 -288 0
v -160 -304 0
v -176 -304 0
v -176 -288 0
v -160 -288 0
v -176 -304 0
v -192 -304 0
v -192 -288 0
v -176 -288 0
v -192 -304 0
v -208 -304 0
v -208 -288 0
v -192 -288 0
v -208 -304 0
v -224 -304 0
v -224 -288 0
v -208 -288 0
v -224 -304 0
v -240 -304 0
v -240 -288 0
v -224 -288 0
v -240 -304 0
v -256 -304 0
v -256 -288 0
v -240 -288 0
v -256 -304 0
v -272 -304 0
v -272 -288 0
v -256 -288 0
v -96 -320 0
v -112 -320 0
v -112 -304 0
v -96 -304 0
v -272 -320 0
v -288 -320 0
v -288 -304 0
v -272 -304 0
v -288 -320 0
v -304 -320 0
v -304 -304 0
v -288 -304 0
v -304 -320 0
v -320 -320 0
v -320 -304 0
v -304 -304 0
v -320 -320 0
v -336 -320 0
v -336 -304 0
v -320 -304 0
v -336 -320 0
v -352 -320 0
v -352 -304 0
v -336 -304 0
v -352 -320 0
v -368 -320 0
v -368 -304 0
v -352 -304 0
v -224 -336 0
v -240 -336 0
v -240 -320 0
v -224 -320 0
v -240 -336 0
v -256 -336 0
v -256 -320 0
v -240 -320 0
v -240 -352 0
v -256 -352 0
v -256 -336 0
v -240 -336 0
v -256 -352 0
v -272 -352 0
v -272 -336 0
v -256 -336 0
v -432 -416 0
v -448 -416 0
v -448 -400 0
v -432 -400 0
v -432 -432 0
v -448 -432 0
v -448 -416 0
v -432 -416 0
v -432 -448 0
v -448 -448 0
v -448 -432 0
v -432 -432 0
v -16 -464 0
v -32 -464 0
v -32 -448 0
v -16 -448 0
v -32 -464 0
v -48 -464 0
v -48 -448 0
v -32 -448 0
v -400 -464 0
v -416 -464 0
v -416 -448 0
v -400 -448 0
v -416 -464 0
v -432 -464 0
v -432 -448 0
v -416 -448 0
v -432 -464 0
v -448 -464 0
v -448 -448 0
v -432 -448 0
v 0 -480 0
v -16 -480 0
v -16 -464 0
v 0 -464 0
v -16 -480 0
v -32 -480 0
v -32 -464 0
v -16 -464 0
v -32 -480 0
v -48 -480 0
v -48 -464 0
v -32 -464 0
v -48 -480 0
v -64 -480 0
v -64 -464 0
v -48 -464 0
v -64 -480 0
v -80 -480 0
v -80 -464 0
v -64 -464 0
v -208 -480 0
v -224 -480 0
v -224 -464 0
v -208 -464 0
v -224 -480 0
v -240 -480 0
v -240 -464 0
v -224 -464 0
v -240 -480 0
v -256 -480 0
v -256 -464 0
v -240 -464 0
v -368 -480 0
v -384 -480 0
v -384 -464 0
v -368 -464 0
v -384 -480 0
v -400 -480 0
v -400 -464 0
v -384 -464 0
v -400 -480 0
v -416 -480 0
v -416 -464 0
v -400 -464 0
v -416 -480 0
v -432 -480 0
v -432 -464 0
v -416 -464 0
v -64 -496 0
v -80 -496 0
v -80 -480 0
v -64 -480 0
v -80 -496 0
v -96 -496 0
v -96 -480 0
v -80 -480 0
v -176 -496 0
v -192 -496 0
v -192 -480 0
v -176 -480 0
v -192 -496 0
v -208 -496 0
v -208 -480 0
v -192 -480 0
v -208 -496 0
v -224 -496 0
v -224 -480 0
v -208 -480 0
v -352 -496 0
v -368 -496 0
v -368 -480 0
v -352 -480 0
v -368 -496 0
v -384 -496 0
v -384 -480 0
v -368 -480 0
v -32 -512 0
v -48 -512 0
v -48 -496 0
v -32 -496 0
v -48 -512 0
v -64 -512 0
v -64 -496 0
v -48 -496 0
v -64 -512 0
v -80 -512 0
v -80 -496 0
v -64 -496 0
v -144 -512 0
v -160 -512 0
v -160 -496 0
v -144 -496 0
v -160 -512 0
v -176 -512 0
v -176 -496 0
v -160 -496 0
v -176 -512 0
v -192 -512 0
v -192 -496 0
v -176 -496 0
v -16 -528 0
v -32 -528 0
v -32 -512 0
v -16 -512 0
v -32 -528 0
v -48 -528 0
v -48 -512 0
v -32 -512 0
v -48 -528 0
v -64 -528 0
v -64 -512 0
v -48 -512 0
v -64 -528 0
v -80 -528 0
v -80 -512 0
v -64 -512 0
v -16 -544 0
v -32 -544 0
v -32 -528 0
v -16 -528 0
v -32 -544 0
v -48 -544 0
v -48 -528 0
v -32 -528 0
v -48 -544 0
v -64 -544 0
v -64 -528 0
v -48 -528 0
v -64 -544 0
v -80 -544 0
v -80 -528 0
v -64 -528 0
v -80 -544 0
v -96 -544 0
v -96 -528 0
v -80 -528 0
v -96 -544 0
v -112 -544 0
v -112 -528 0
v -96 -528 0
v -112 -544 0
v -128 -544 0
v -128 -528 0
v -112 -528 0
v -64 -560 0
v -80 -560 0
v -80 -544 0
v -64 -544 0
v -80 -560 0
v -96 -560 0
v -96 -544 0
v -80 -544 0
v -96 -560 0
v -112 -560 0
v -112 -544 0
v -96 -544 0
v -112 -560 0
v -128 -560 0
v -128 -544 0
v -112 -544 0
v -32 -576 0
v -48 -576 0
v -48 -560 0
v -32 -560 0
v -64 -576 0
v -80 -576 0
v -80 -560 0
v -64 -560 0
v -80 -576 0
v -96 -576 0
v -96 -560 0
v -80 -560 0
v -96 -576 0
v -112 -576 0
v -112 -560 0
v -96 -560 0
v -112 -576 0
v -128 -576 0
v -128 -560 0
v -112 -560 0
v -176 -576 0
v -192 -576 0
v -192 -560 0
v -176 -560 0
v 0 -592 0
v -16 -592 0
v -16 -576 0
v 0 -576 0
v 0 -608 0
v -16 -608 0
v -16 -592 0
v 0 -592 0
v -16 -608 0
v -32 -608 0
v -32 -592 0
v -16 -592 0
v -32 -608 0
v -48 -608 0
v -48 -592 0
v -32 -592 0
v -80 -608 0
v -96 -608 0
v -96 -592 0
v -80 -592 0
v -96 -608 0
v -112 -608 0
v -112 -592 0
v -96 -592 0
v -112 -608 0
v -128 -608 0
v -128 -592 0
v -112 -592 0
v 0 -624 0
v -16 -624 0
v -16 -608 0
v 0 -608 0
v -16 -624 0
v -32 -624 0
v -32 -608 0
v -16 -608 0
v -32 -624 0
v -48 -624 0
v -48 -608 0
v -32 -608 0
v -48 -624 0
v -64 -624 0
v -64 -608 0
v -48 -608 0
v -112 -624 0
v -128 -624 0
v -128 -608 0
v -112 -608 0
v -128 -624 0
v -144 -624 0
v -144 -608 0
v -128 -608 0
v -144 -624 0
v -160 -624 0
v -160 -608 0
v -144 -608 0
v 0 -640 0
v -16 -640 0
v -16 -624 0
v 0 -624 0
v -16 -640 0
v -32 -640 0
v -32 -624 0
v -16 -624 0
v -32 -640 0
v -48 -640 0
v -48 -624 0
v -32 -624 0
v -48 -640 0
v -64 -640 0
v -64 -624 0
v -48 -624 0
v -64 -640 0
v -80 -640 0
v -80 -624 0
v -64 -624 0
v -128 -640 0
v -144 -640 0
v -144 -624 0
v -128 -624 0

# Texture cooridinates (Count = 32)
vt 0.2 0.375
vt 0.2333333 0.375
vt 0.2333333 0.4375
vt 0.2 0.4375
vt 0.2666667 0.375
vt 0.2666667 0.4375
vt 0.2 0.3125
vt 0.2333333 0.3125
vt 0.2666667 0.3125
vt 0.3 0.3125
vt 0.3 0.375
vt 0.2333333 0.5
vt 0.2 0.5
vt 0.2 0.25
vt 0.2333333 0.25
vt 0.2666667 0.25
vt 0.3 0.25
vt 0.3666667 0.4375
vt 0.4 0.4375
vt 0.4 0.5
vt 0.3666667 0.5
vt 0.3333333 0.375
vt 0.3333333 0.4375
vt 0.3 0.4375
vt 0.3666667 0.375
vt 0.4 0.375
vt 0.3333333 0.3125
vt 0.3666667 0.3125
vt 0.4 0.3125
vt 0.3333333 0.25
vt 0.3666667 0.25
vt 0.4 0.25

# Normal
vn 0 0 -1

# Mesh description
g map2_mesh_0003

# Faces
f 1/1/1 2/2/1 3/3/1 4/4/1
f 5/2/1 6/5/1 7/6/1 8/3/1
f 9/1/1 10/2/1 11/3/1 12/4/1
f 13/2/1 14/5/1 15/6/1 16/3/1
f 17/7/1 18/8/1 19/2/1 20/1/1
f 21/8/1 22/9/1 23/5/1 24/2/1
f 25/9/1 26/10/1 27/11/1 28/5/1
f 29/4/1 30/3/1 31/12/1 32/13/1
f 33/4/1 34/3/1 35/12/1 36/13/1
f 37/2/1 38/5/1 39/6/1 40/3/1
f 41/7/1 42/8/1 43/2/1 44/1/1
f 45/8/1 46/9/1 47/5/1 48/2/1
f 49/9/1 50/10/1 51/11/1 52/5/1
f 53/14/1 54/15/1 55/8/1 56/7/1
f 57/15/1 58/16/1 59/9/1 60/8/1
f 61/16/1 62/17/1 63/10/1 64/9/1
f 65/4/1 66/3/1 67/12/1 68/13/1
f 69/4/1 70/3/1 71/12/1 72/13/1
f 73/1/1 74/2/1 75/3/1 76/4/1
f 77/2/1 78/5/1 79/6/1 80/3/1
f 81/15/1 82/16/1 83/9/1 84/8/1
f 85/14/1 86/15/1 87/8/1 88/7/1
f 89/15/1 90/16/1 91/9/1 92/8/1
f 93/16/1 94/17/1 95/10/1 96/9/1
f 97/1/1 98/2/1 99/3/1 100/4/1
f 101/2/1 102/5/1 103/6/1 104/3/1
f 105/4/1 106/3/1 107/12/1 108/13/1
f 109/4/1 110/3/1 111/12/1 112/13/1
f 113/4/1 114/3/1 115/12/1 116/13/1
f 117/1/1 118/2/1 119/3/1 120/4/1
f 121/7/1 122/8/1 123/2/1 124/1/1
f 125/8/1 126/9/1 127/5/1 128/2/1
f 129/9/1 130/10/1 131/11/1 132/5/1
f 133/4/1 134/3/1 135/12/1 136/13/1
f 137/4/1 138/3/1 139/12/1 140/13/1
f 141/7/1 142/8/1 143/2/1 144/1/1
f 145/8/1 146/9/1 147/5/1 148/2/1
f 149/9/1 150/10/1 151/11/1 152/5/1
f 153/1/1 154/2/1 155/3/1 156/4/1
f 157/2/1 158/5/1 159/6/1 160/3/1
f 161/4/1 162/3/1 163/12/1 164/13/1
f 165/4/1 166/3/1 167/12/1 168/13/1
f 169/1/1 170/2/1 171/3/1 172/4/1
f 173/8/1 174/9/1 175/5/1 176/2/1
f 177/9/1 178/10/1 179/11/1 180/5/1
f 181/14/1 182/15/1 183/8/1 184/7/1
f 185/15/1 186/16/1 187/9/1 188/8/1
f 189/16/1 190/17/1 191/10/1 192/9/1
f 193/14/1 194/15/1 195/8/1 196/7/1
f 197/15/1 198/16/1 199/9/1 200/8/1
f 201/16/1 202/17/1 203/10/1 204/9/1
f 205/7/1 206/8/1 207/2/1 208/1/1
f 209/8/1 210/9/1 211/5/1 212/2/1
f 213/9/1 214/10/1 215/11/1 216/5/1
f 217/4/1 218/3/1 219/12/1 220/13/1
f 221/4/1 222/3/1 223/12/1 224/13/1
f 225/4/1 226/3/1 227/12/1 228/13/1
f 229/8/1 230/9/1 231/5/1 232/2/1
f 233/9/1 234/10/1 235/11/1 236/5/1
f 237/1/1 238/2/1 239/3/1 240/4/1
f 241/2/1 242/5/1 243/6/1 244/3/1
f 245/4/1 246/3/1 247/12/1 248/13/1
f 249/4/1 250/3/1 251/12/1 252/13/1
f 253/4/1 254/3/1 255/12/1 256/13/1
f 257/4/1 258/3/1 259/12/1 260/13/1
f 261/14/1 262/15/1 263/8/1 264/7/1
f 265/15/1 266/16/1 267/9/1 268/8/1
f 269/16/1 270/17/1 271/10/1 272/9/1
f 273/14/1 274/15/1 275/8/1 276/7/1
f 277/14/1 278/15/1 279/8/1 280/7/1
f 281/2/1 282/5/1 283/6/1 284/3/1
f 285/2/1 286/5/1 287/6/1 288/3/1
f 289/7/1 290/8/1 291/2/1 292/1/1
f 293/8/1 294/9/1 295/5/1 296/2/1
f 297/9/1 298/10/1 299/11/1 300/5/1
f 301/1/1 302/2/1 303/3/1 304/4/1
f 305/2/1 306/5/1 307/6/1 308/3/1
f 309/4/1 310/3/1 311/12/1 312/13/1
f 313/4/1 314/3/1 315/12/1 316/13/1
f 317/4/1 318/3/1 319/12/1 320/13/1
f 321/4/1 322/3/1 323/12/1 324/13/1
f 325/4/1 326/3/1 327/12/1 328/13/1
f 329/4/1 330/3/1 331/12/1 332/13/1
f 333/14/1 334/15/1 335/8/1 336/7/1
f 337/15/1 338/16/1 339/9/1 340/8/1
f 341/16/1 342/17/1 343/10/1 344/9/1
f 345/4/1 346/3/1 347/12/1 348/13/1
f 349/14/1 350/15/1 351/8/1 352/7/1
f 353/8/1 354/9/1 355/5/1 356/2/1
f 357/9/1 358/10/1 359/11/1 360/5/1
f 361/4/1 362/3/1 363/12/1 364/13/1
f 365/4/1 366/3/1 367/12/1 368/13/1
f 369/4/1 370/3/1 371/12/1 372/13/1
f 373/14/1 374/15/1 375/8/1 376/7/1
f 377/8/1 378/9/1 379/5/1 380/2/1
f 381/4/1 382/3/1 383/12/1 384/13/1
f 385/4/1 386/3/1 387/12/1 388/13/1
f 389/4/1 390/3/1 391/12/1 392/13/1
f 393/4/1 394/3/1 395/12/1 396/13/1
f 397/14/1 398/15/1 399/8/1 400/7/1
f 401/7/1 402/8/1 403/2/1 404/1/1
f 405/2/1 406/5/1 407/6/1 408/3/1
f 409/4/1 410/3/1 411/12/1 412/13/1
f 413/4/1 414/3/1 415/12/1 416/13/1
f 417/4/1 418/3/1 419/12/1 420/13/1
f 421/4/1 422/3/1 423/12/1 424/13/1
f 425/4/1 426/3/1 427/12/1 428/13/1
f 429/4/1 430/3/1 431/12/1 432/13/1
f 433/7/1 434/8/1 435/2/1 436/1/1
f 437/8/1 438/9/1 439/5/1 440/2/1
f 441/9/1 442/10/1 443/11/1 444/5/1
f 445/4/1 446/3/1 447/12/1 448/13/1
f 449/4/1 450/3/1 451/12/1 452/13/1
f 453/4/1 454/3/1 455/12/1 456/13/1
f 457/14/1 458/15/1 459/8/1 460/7/1
f 461/15/1 462/16/1 463/9/1 464/8/1
f 465/16/1 466/17/1 467/10/1 468/9/1
f 469/4/1 470/3/1 471/12/1 472/13/1
f 473/4/1 474/3/1 475/12/1 476/13/1
f 477/4/1 478/3/1 479/12/1 480/13/1
f 481/4/1 482/3/1 483/12/1 484/13/1
f 485/4/1 486/3/1 487/12/1 488/13/1
f 489/4/1 490/3/1 491/12/1 492/13/1
f 493/4/1 494/3/1 495/12/1 496/13/1
f 497/4/1 498/3/1 499/12/1 500/13/1
f 501/4/1 502/3/1 503/12/1 504/13/1
f 505/4/1 506/3/1 507/12/1 508/13/1
f 509/4/1 510/3/1 511/12/1 512/13/1
f 513/4/1 514/3/1 515/12/1 516/13/1
f 517/4/1 518/3/1 519/12/1 520/13/1
f 521/4/1 522/3/1 523/12/1 524/13/1
f 525/4/1 526/3/1 527/12/1 528/13/1
f 529/4/1 530/3/1 531/12/1 532/13/1
f 533/4/1 534/3/1 535/12/1 536/13/1
f 537/4/1 538/3/1 539/12/1 540/13/1
f 541/4/1 542/3/1 543/12/1 544/13/1
f 545/4/1 546/3/1 547/12/1 548/13/1
f 549/4/1 550/3/1 551/12/1 552/13/1
f 553/4/1 554/3/1 555/12/1 556/13/1
f 557/4/1 558/3/1 559/12/1 560/13/1
f 561/4/1 562/3/1 563/12/1 564/13/1
f 565/4/1 566/3/1 567/12/1 568/13/1
f 569/4/1 570/3/1 571/12/1 572/13/1
f 573/4/1 574/3/1 575/12/1 576/13/1
f 577/4/1 578/3/1 579/12/1 580/13/1
f 581/4/1 582/3/1 583/12/1 584/13/1
f 585/4/1 586/3/1 587/12/1 588/13/1
f 589/4/1 590/3/1 591/12/1 592/13/1
f 593/4/1 594/3/1 595/12/1 596/13/1
f 597/4/1 598/3/1 599/12/1 600/13/1
f 601/4/1 602/3/1 603/12/1 604/13/1
f 605/4/1 606/3/1 607/12/1 608/13/1
f 609/4/1 610/3/1 611/12/1 612/13/1
f 613/4/1 614/3/1 615/12/1 616/13/1
f 617/4/1 618/3/1 619/12/1 620/13/1
f 621/4/1 622/3/1 623/12/1 624/13/1
f 625/4/1 626/3/1 627/12/1 628/13/1
f 629/4/1 630/3/1 631/12/1 632/13/1
f 633/4/1 634/3/1 635/12/1 636/13/1
f 637/4/1 638/3/1 639/12/1 640/13/1
f 641/4/1 642/3/1 643/12/1 644/13/1
f 645/4/1 646/3/1 647/12/1 648/13/1
f 649/4/1 650/3/1 651/12/1 652/13/1
f 653/4/1 654/3/1 655/12/1 656/13/1
f 657/18/1 658/19/1 659/20/1 660/21/1
f 661/18/1 662/19/1 663/20/1 664/21/1
f 665/4/1 666/3/1 667/12/1 668/13/1
f 669/4/1 670/3/1 671/12/1 672/13/1
f 673/4/1 674/3/1 675/12/1 676/13/1
f 677/18/1 678/19/1 679/20/1 680/21/1
f 681/18/1 682/19/1 683/20/1 684/21/1
f 685/18/1 686/19/1 687/20/1 688/21/1
f 689/18/1 690/19/1 691/20/1 692/21/1
f 693/18/1 694/19/1 695/20/1 696/21/1
f 697/18/1 698/19/1 699/20/1 700/21/1
f 701/18/1 702/19/1 703/20/1 704/21/1
f 705/18/1 706/19/1 707/20/1 708/21/1
f 709/4/1 710/3/1 711/12/1 712/13/1
f 713/4/1 714/3/1 715/12/1 716/13/1
f 717/4/1 718/3/1 719/12/1 720/13/1
f 721/4/1 722/3/1 723/12/1 724/13/1
f 725/18/1 726/19/1 727/20/1 728/21/1
f 729/18/1 730/19/1 731/20/1 732/21/1
f 733/18/1 734/19/1 735/20/1 736/21/1
f 737/18/1 738/19/1 739/20/1 740/21/1
f 741/18/1 742/19/1 743/20/1 744/21/1
f 745/4/1 746/3/1 747/12/1 748/13/1
f 749/4/1 750/3/1 751/12/1 752/13/1
f 753/11/1 754/22/1 755/23/1 756/24/1
f 757/22/1 758/25/1 759/18/1 760/23/1
f 761/25/1 762/26/1 763/19/1 764/18/1
f 765/18/1 766/19/1 767/20/1 768/21/1
f 769/18/1 770/19/1 771/20/1 772/21/1
f 773/18/1 774/19/1 775/20/1 776/21/1
f 777/18/1 778/19/1 779/20/1 780/21/1
f 781/27/1 782/28/1 783/25/1 784/22/1
f 785/27/1 786/28/1 787/25/1 788/22/1
f 789/28/1 790/29/1 791/26/1 792/25/1
f 793/18/1 794/19/1 795/20/1 796/21/1
f 797/30/1 798/31/1 799/28/1 800/27/1
f 801/30/1 802/31/1 803/28/1 804/27/1
f 805/27/1 806/28/1 807/25/1 808/22/1
f 809/22/1 810/25/1 811/18/1 812/23/1
f 813/22/1 814/25/1 815/18/1 816/23/1
f 817/25/1 818/26/1 819/19/1 820/18/1
f 821/18/1 822/19/1 823/20/1 824/21/1
f 825/27/1 826/28/1 827/25/1 828/22/1
f 829/27/1 830/28/1 831/25/1 832/22/1
f 833/28/1 834/29/1 835/26/1 836/25/1
f 837/18/1 838/19/1 839/20/1 840/21/1
f 841/18/1 842/19/1 843/20/1 844/21/1
f 845/30/1 846/31/1 847/28/1 848/27/1
f 849/30/1 850/31/1 851/28/1 852/27/1
f 853/31/1 854/32/1 855/29/1 856/28/1
f 857/18/1 858/19/1 859/20/1 860/21/1
f 861/25/1 862/26/1 863/19/1 864/18/1
f 865/27/1 866/28/1 867/25/1 868/22/1
f 869/22/1 870/25/1 871/18/1 872/23/1
f 873/25/1 874/26/1 875/19/1 876/18/1
f 877/18/1 878/19/1 879/20/1 880/21/1
f 881/18/1 882/19/1 883/20/1 884/21/1
f 885/18/1 886/19/1 887/20/1 888/21/1
f 889/27/1 890/28/1 891/25/1 892/22/1
f 893/27/1 894/28/1 895/25/1 896/22/1
f 897/28/1 898/29/1 899/26/1 900/25/1
f 901/25/1 902/26/1 903/19/1 904/18/1
f 905/18/1 906/19/1 907/20/1 908/21/1
f 909/18/1 910/19/1 911/20/1 912/21/1
f 913/18/1 914/19/1 915/20/1 916/21/1
f 917/27/1 918/28/1 919/25/1 920/22/1
f 921/27/1 922/28/1 923/25/1 924/22/1
f 925/27/1 926/28/1 927/25/1 928/22/1
f 929/27/1 930/28/1 931/25/1 932/22/1
f 933/18/1 934/19/1 935/20/1 936/21/1
f 937/18/1 938/19/1 939/20/1 940/21/1

