# Tiled2Unity generated file. Do not modify by hand.
# Wavefront file for 'map2_mesh_0003.obj'

# Vertices (Count = 240)
v -112 -16 0
v -127 -16 0
v -127 -1 0
v -112 -1 0
v -160 -16 0
v -175 -16 0
v -175 -1 0
v -160 -1 0
v -624 -16 0
v -639 -16 0
v -639 -1 0
v -624 -1 0
v -112 -32 0
v -127 -32 0
v -127 -17 0
v -112 -17 0
v -560 -48 0
v -575 -48 0
v -575 -33 0
v -560 -33 0
v -64 -64 0
v -79 -64 0
v -79 -49 0
v -64 -49 0
v -128 -64 0
v -143 -64 0
v -143 -49 0
v -128 -49 0
v -304 -64 0
v -319 -64 0
v -319 -49 0
v -304 -49 0
v -176 -80 0
v -191 -80 0
v -191 -65 0
v -176 -65 0
v -416 -80 0
v -431 -80 0
v -431 -65 0
v -416 -65 0
v -432 -80 0
v -447 -80 0
v -447 -65 0
v -432 -65 0
v -448 -80 0
v -463 -80 0
v -463 -65 0
v -448 -65 0
v -464 -80 0
v -479 -80 0
v -479 -65 0
v -464 -65 0
v -480 -80 0
v -495 -80 0
v -495 -65 0
v -480 -65 0
v -496 -80 0
v -511 -80 0
v -511 -65 0
v -496 -65 0
v -512 -80 0
v -527 -80 0
v -527 -65 0
v -512 -65 0
v -32 -96 0
v -47 -96 0
v -47 -81 0
v -32 -81 0
v -368 -96 0
v -383 -96 0
v -383 -81 0
v -368 -81 0
v -528 -96 0
v -543 -96 0
v -543 -81 0
v -528 -81 0
v -32 -112 0
v -47 -112 0
v -47 -97 0
v -32 -97 0
v -528 -112 0
v -543 -112 0
v -543 -97 0
v -528 -97 0
v -592 -112 0
v -607 -112 0
v -607 -97 0
v -592 -97 0
v -528 -128 0
v -543 -128 0
v -543 -113 0
v -528 -113 0
v -320 -144 0
v -335 -144 0
v -335 -129 0
v -320 -129 0
v -336 -144 0
v -351 -144 0
v -351 -129 0
v -336 -129 0
v -352 -144 0
v -367 -144 0
v -367 -129 0
v -352 -129 0
v -368 -144 0
v -383 -144 0
v -383 -129 0
v -368 -129 0
v -528 -144 0
v -543 -144 0
v -543 -129 0
v -528 -129 0
v -560 -144 0
v -575 -144 0
v -575 -129 0
v -560 -129 0
v -608 -144 0
v -623 -144 0
v -623 -129 0
v -608 -129 0
v -528 -160 0
v -543 -160 0
v -543 -145 0
v -528 -145 0
v -624 -160 0
v -639 -160 0
v -639 -145 0
v -624 -145 0
v -432 -176 0
v -447 -176 0
v -447 -161 0
v -432 -161 0
v -448 -176 0
v -463 -176 0
v -463 -161 0
v -448 -161 0
v -528 -176 0
v -543 -176 0
v -543 -161 0
v -528 -161 0
v -528 -192 0
v -543 -192 0
v -543 -177 0
v -528 -177 0
v -432 -208 0
v -447 -208 0
v -447 -193 0
v -432 -193 0
v -528 -208 0
v -543 -208 0
v -543 -193 0
v -528 -193 0
v -528 -224 0
v -543 -224 0
v -543 -209 0
v -528 -209 0
v -608 -272 0
v -623 -272 0
v -623 -257 0
v -608 -257 0
v -624 -272 0
v -639 -272 0
v -639 -257 0
v -624 -257 0
v -544 -336 0
v -559 -336 0
v -559 -321 0
v -544 -321 0
v -512 -352 0
v -527 -352 0
v -527 -337 0
v -512 -337 0
v -480 -384 0
v -495 -384 0
v -495 -369 0
v -480 -369 0
v -608 -384 0
v -623 -384 0
v -623 -369 0
v -608 -369 0
v -624 -384 0
v -639 -384 0
v -639 -369 0
v -624 -369 0
v -624 -464 0
v -639 -464 0
v -639 -449 0
v -624 -449 0
v -432 -480 0
v -447 -480 0
v -447 -465 0
v -432 -465 0
v -384 -496 0
v -399 -496 0
v -399 -481 0
v -384 -481 0
v -400 -496 0
v -415 -496 0
v -415 -481 0
v -400 -481 0
v -336 -544 0
v -351 -544 0
v -351 -529 0
v -336 -529 0
v -432 -544 0
v -447 -544 0
v -447 -529 0
v -432 -529 0
v -352 -560 0
v -367 -560 0
v -367 -545 0
v -352 -545 0
v -416 -560 0
v -431 -560 0
v -431 -545 0
v -416 -545 0
v -432 -560 0
v -447 -560 0
v -447 -545 0
v -432 -545 0
v -304 -576 0
v -319 -576 0
v -319 -561 0
v -304 -561 0
v -416 -576 0
v -431 -576 0
v -431 -561 0
v -416 -561 0
v -416 -592 0
v -431 -592 0
v -431 -577 0
v -416 -577 0
v -480 -592 0
v -495 -592 0
v -495 -577 0
v -480 -577 0
v -448 -640 0
v -463 -640 0
v -463 -625 0
v -448 -625 0

# Texture cooridinates (Count = 24)
vt 0.3020833 0.5625
vt 0.3333333 0.5625
vt 0.3333333 0.6210938
vt 0.3020833 0.6210938
vt 0.26875 0.375
vt 0.3 0.375
vt 0.3 0.4335938
vt 0.26875 0.4335938
vt 0.3354167 0.5
vt 0.3666667 0.5
vt 0.3666667 0.5585938
vt 0.3354167 0.5585938
vt 0.3354167 0.5625
vt 0.3666667 0.5625
vt 0.3666667 0.6210938
vt 0.3354167 0.6210938
vt 0.3020833 0.6875
vt 0.3333333 0.6875
vt 0.3333333 0.7460938
vt 0.3020833 0.7460938
vt 0.3020833 0.5
vt 0.3333333 0.5
vt 0.3333333 0.5585938
vt 0.3020833 0.5585938

# Normal
vn 0 0 -1

# Mesh description
g map2_mesh_0003

# Faces
f 1/1/1 2/2/1 3/3/1 4/4/1
f 5/5/1 6/6/1 7/7/1 8/8/1
f 9/5/1 10/6/1 11/7/1 12/8/1
f 13/1/1 14/2/1 15/3/1 16/4/1
f 17/5/1 18/6/1 19/7/1 20/8/1
f 21/1/1 22/2/1 23/3/1 24/4/1
f 25/5/1 26/6/1 27/7/1 28/8/1
f 29/5/1 30/6/1 31/7/1 32/8/1
f 33/5/1 34/6/1 35/7/1 36/8/1
f 37/9/1 38/10/1 39/11/1 40/12/1
f 41/9/1 42/10/1 43/11/1 44/12/1
f 45/9/1 46/10/1 47/11/1 48/12/1
f 49/9/1 50/10/1 51/11/1 52/12/1
f 53/9/1 54/10/1 55/11/1 56/12/1
f 57/9/1 58/10/1 59/11/1 60/12/1
f 61/9/1 62/10/1 63/11/1 64/12/1
f 65/1/1 66/2/1 67/3/1 68/4/1
f 69/5/1 70/6/1 71/7/1 72/8/1
f 73/1/1 74/2/1 75/3/1 76/4/1
f 77/1/1 78/2/1 79/3/1 80/4/1
f 81/1/1 82/2/1 83/3/1 84/4/1
f 85/5/1 86/6/1 87/7/1 88/8/1
f 89/1/1 90/2/1 91/3/1 92/4/1
f 93/9/1 94/10/1 95/11/1 96/12/1
f 97/9/1 98/10/1 99/11/1 100/12/1
f 101/9/1 102/10/1 103/11/1 104/12/1
f 105/9/1 106/10/1 107/11/1 108/12/1
f 109/1/1 110/2/1 111/3/1 112/4/1
f 113/13/1 114/14/1 115/15/1 116/16/1
f 117/5/1 118/6/1 119/7/1 120/8/1
f 121/1/1 122/2/1 123/3/1 124/4/1
f 125/5/1 126/6/1 127/7/1 128/8/1
f 129/17/1 130/18/1 131/19/1 132/20/1
f 133/1/1 134/2/1 135/3/1 136/4/1
f 137/1/1 138/2/1 139/3/1 140/4/1
f 141/1/1 142/2/1 143/3/1 144/4/1
f 145/21/1 146/22/1 147/23/1 148/24/1
f 149/1/1 150/2/1 151/3/1 152/4/1
f 153/1/1 154/2/1 155/3/1 156/4/1
f 157/9/1 158/10/1 159/11/1 160/12/1
f 161/9/1 162/10/1 163/11/1 164/12/1
f 165/9/1 166/10/1 167/11/1 168/12/1
f 169/9/1 170/10/1 171/11/1 172/12/1
f 173/9/1 174/10/1 175/11/1 176/12/1
f 177/21/1 178/22/1 179/23/1 180/24/1
f 181/9/1 182/10/1 183/11/1 184/12/1
f 185/21/1 186/22/1 187/23/1 188/24/1
f 189/9/1 190/10/1 191/11/1 192/12/1
f 193/9/1 194/10/1 195/11/1 196/12/1
f 197/9/1 198/10/1 199/11/1 200/12/1
f 201/9/1 202/10/1 203/11/1 204/12/1
f 205/13/1 206/14/1 207/15/1 208/16/1
f 209/21/1 210/22/1 211/23/1 212/24/1
f 213/1/1 214/2/1 215/3/1 216/4/1
f 217/13/1 218/14/1 219/15/1 220/16/1
f 221/9/1 222/10/1 223/11/1 224/12/1
f 225/1/1 226/2/1 227/3/1 228/4/1
f 229/21/1 230/22/1 231/23/1 232/24/1
f 233/1/1 234/2/1 235/3/1 236/4/1
f 237/1/1 238/2/1 239/3/1 240/4/1

