# Tiled2Unity generated file. Do not modify by hand.
# Wavefront file for 'map3_mesh_0002.obj'

# Vertices (Count = 168)
v -120 -105 0
v -136 -105 0
v -136 -89 0
v -120 -89 0
v -285 -150 0
v -301 -150 0
v -301 -134 0
v -285 -134 0
v -300 -150 0
v -316 -150 0
v -316 -134 0
v -300 -134 0
v -120 -240 0
v -136 -240 0
v -136 -224 0
v -120 -224 0
v -90 -345 0
v -106 -345 0
v -106 -329 0
v -90 -329 0
v -330 -360 0
v -346 -360 0
v -346 -344 0
v -330 -344 0
v -465 -420 0
v -481 -420 0
v -481 -404 0
v -465 -404 0
v -435 -435 0
v -451 -435 0
v -451 -419 0
v -435 -419 0
v -495 -465 0
v -511 -465 0
v -511 -449 0
v -495 -449 0
v -510 -465 0
v -526 -465 0
v -526 -449 0
v -510 -449 0
v -525 -465 0
v -541 -465 0
v -541 -449 0
v -525 -449 0
v -495 -480 0
v -511 -480 0
v -511 -464 0
v -495 -464 0
v -510 -480 0
v -526 -480 0
v -526 -464 0
v -510 -464 0
v -525 -480 0
v -541 -480 0
v -541 -464 0
v -525 -464 0
v -540 -480 0
v -556 -480 0
v -556 -464 0
v -540 -464 0
v -555 -480 0
v -571 -480 0
v -571 -464 0
v -555 -464 0
v -510 -495 0
v -526 -495 0
v -526 -479 0
v -510 -479 0
v -525 -495 0
v -541 -495 0
v -541 -479 0
v -525 -479 0
v -540 -495 0
v -556 -495 0
v -556 -479 0
v -540 -479 0
v -555 -495 0
v -571 -495 0
v -571 -479 0
v -555 -479 0
v -570 -495 0
v -586 -495 0
v -586 -479 0
v -570 -479 0
v -510 -510 0
v -526 -510 0
v -526 -494 0
v -510 -494 0
v -525 -510 0
v -541 -510 0
v -541 -494 0
v -525 -494 0
v -540 -510 0
v -556 -510 0
v -556 -494 0
v -540 -494 0
v -555 -510 0
v -571 -510 0
v -571 -494 0
v -555 -494 0
v -570 -510 0
v -586 -510 0
v -586 -494 0
v -570 -494 0
v -315 -540 0
v -331 -540 0
v -331 -524 0
v -315 -524 0
v -360 -570 0
v -376 -570 0
v -376 -554 0
v -360 -554 0
v -405 -585 0
v -421 -585 0
v -421 -569 0
v -405 -569 0
v -420 -585 0
v -436 -585 0
v -436 -569 0
v -420 -569 0
v -435 -585 0
v -451 -585 0
v -451 -569 0
v -435 -569 0
v -450 -585 0
v -466 -585 0
v -466 -569 0
v -450 -569 0
v -465 -585 0
v -481 -585 0
v -481 -569 0
v -465 -569 0
v -480 -585 0
v -496 -585 0
v -496 -569 0
v -480 -569 0
v -390 -600 0
v -406 -600 0
v -406 -584 0
v -390 -584 0
v -405 -600 0
v -421 -600 0
v -421 -584 0
v -405 -584 0
v -420 -600 0
v -436 -600 0
v -436 -584 0
v -420 -584 0
v -435 -600 0
v -451 -600 0
v -451 -584 0
v -435 -584 0
v -450 -600 0
v -466 -600 0
v -466 -584 0
v -450 -584 0
v -465 -600 0
v -481 -600 0
v -481 -584 0
v -465 -584 0
v -480 -600 0
v -496 -600 0
v -496 -584 0
v -480 -584 0
v -495 -600 0
v -511 -600 0
v -511 -584 0
v -495 -584 0

# Texture cooridinates (Count = 38)
vt 0.8333333 0.4375
vt 0.8666667 0.4375
vt 0.8666667 0.5
vt 0.8333333 0.5
vt 0.8 0.375
vt 0.8333333 0.375
vt 0.8 0.4375
vt 0.8666667 0.375
vt 0.4333333 0.75
vt 0.4666667 0.75
vt 0.4666667 0.8125
vt 0.4333333 0.8125
vt 0.3 0.625
vt 0.3333333 0.625
vt 0.3333333 0.6875
vt 0.3 0.6875
vt 0.3333333 0.5625
vt 0.3666667 0.5625
vt 0.3666667 0.625
vt 0.4 0.625
vt 0.4 0.6875
vt 0.3666667 0.6875
vt 0.3 0.5
vt 0.3333333 0.5
vt 0.3 0.5625
vt 0.4333333 0.625
vt 0.4666667 0.625
vt 0.4666667 0.6875
vt 0.4333333 0.6875
vt 0.3666667 0.5
vt 0.4 0.5
vt 0.4 0.5625
vt 0.5 0.75
vt 0.5 0.8125
vt 0.5 0.625
vt 0.5333334 0.625
vt 0.5333334 0.6875
vt 0.5 0.6875

# Normal
vn 0 0 -1

# Mesh description
g map3_mesh_0002

# Faces
f 1/1/1 2/2/1 3/3/1 4/4/1
f 5/1/1 6/2/1 7/3/1 8/4/1
f 9/1/1 10/2/1 11/3/1 12/4/1
f 13/5/1 14/6/1 15/1/1 16/7/1
f 17/6/1 18/8/1 19/2/1 20/1/1
f 21/5/1 22/6/1 23/1/1 24/7/1
f 25/9/1 26/10/1 27/11/1 28/12/1
f 29/9/1 30/10/1 31/11/1 32/12/1
f 33/13/1 34/14/1 35/15/1 36/16/1
f 37/17/1 38/18/1 39/19/1 40/14/1
f 41/19/1 42/20/1 43/21/1 44/22/1
f 45/23/1 46/24/1 47/17/1 48/25/1
f 49/17/1 50/18/1 51/19/1 52/14/1
f 53/17/1 54/18/1 55/19/1 56/14/1
f 57/17/1 58/18/1 59/19/1 60/14/1
f 61/19/1 62/20/1 63/21/1 64/22/1
f 65/25/1 66/17/1 67/14/1 68/13/1
f 69/17/1 70/18/1 71/19/1 72/14/1
f 73/17/1 74/18/1 75/19/1 76/14/1
f 77/26/1 78/27/1 79/28/1 80/29/1
f 81/19/1 82/20/1 83/21/1 84/22/1
f 85/23/1 86/24/1 87/17/1 88/25/1
f 89/24/1 90/30/1 91/18/1 92/17/1
f 93/24/1 94/30/1 95/18/1 96/17/1
f 97/24/1 98/30/1 99/18/1 100/17/1
f 101/30/1 102/31/1 103/32/1 104/18/1
f 105/10/1 106/33/1 107/34/1 108/11/1
f 109/10/1 110/33/1 111/34/1 112/11/1
f 113/13/1 114/14/1 115/15/1 116/16/1
f 117/14/1 118/19/1 119/22/1 120/15/1
f 121/14/1 122/19/1 123/22/1 124/15/1
f 125/14/1 126/19/1 127/22/1 128/15/1
f 129/14/1 130/19/1 131/22/1 132/15/1
f 133/19/1 134/20/1 135/21/1 136/22/1
f 137/13/1 138/14/1 139/15/1 140/16/1
f 141/17/1 142/18/1 143/19/1 144/14/1
f 145/17/1 146/18/1 147/19/1 148/14/1
f 149/17/1 150/18/1 151/19/1 152/14/1
f 153/35/1 154/36/1 155/37/1 156/38/1
f 157/17/1 158/18/1 159/19/1 160/14/1
f 161/17/1 162/18/1 163/19/1 164/14/1
f 165/19/1 166/20/1 167/21/1 168/22/1

