# Tiled2Unity generated file. Do not modify by hand.
# Wavefront file for 'map5_mesh_0003.obj'

# Vertices (Count = 748)
v -128 -32 0
v -144 -32 0
v -144 -16 0
v -128 -16 0
v -80 -48 0
v -96 -48 0
v -96 -32 0
v -80 -32 0
v -96 -48 0
v -112 -48 0
v -112 -32 0
v -96 -32 0
v -112 -64 0
v -128 -64 0
v -128 -48 0
v -112 -48 0
v -512 -80 0
v -528 -80 0
v -528 -64 0
v -512 -64 0
v -544 -80 0
v -560 -80 0
v -560 -64 0
v -544 -64 0
v -608 -80 0
v -624 -80 0
v -624 -64 0
v -608 -64 0
v -480 -96 0
v -496 -96 0
v -496 -80 0
v -480 -80 0
v -496 -96 0
v -512 -96 0
v -512 -80 0
v -496 -80 0
v -512 -96 0
v -528 -96 0
v -528 -80 0
v -512 -80 0
v -528 -96 0
v -544 -96 0
v -544 -80 0
v -528 -80 0
v -592 -96 0
v -608 -96 0
v -608 -80 0
v -592 -80 0
v -48 -112 0
v -64 -112 0
v -64 -96 0
v -48 -96 0
v -128 -112 0
v -144 -112 0
v -144 -96 0
v -128 -96 0
v -480 -112 0
v -496 -112 0
v -496 -96 0
v -480 -96 0
v -496 -112 0
v -512 -112 0
v -512 -96 0
v -496 -96 0
v -512 -112 0
v -528 -112 0
v -528 -96 0
v -512 -96 0
v -528 -112 0
v -544 -112 0
v -544 -96 0
v -528 -96 0
v -544 -112 0
v -560 -112 0
v -560 -96 0
v -544 -96 0
v -560 -112 0
v -576 -112 0
v -576 -96 0
v -560 -96 0
v -608 -112 0
v -624 -112 0
v -624 -96 0
v -608 -96 0
v -128 -128 0
v -144 -128 0
v -144 -112 0
v -128 -112 0
v -464 -128 0
v -480 -128 0
v -480 -112 0
v -464 -112 0
v -512 -128 0
v -528 -128 0
v -528 -112 0
v -512 -112 0
v -528 -128 0
v -544 -128 0
v -544 -112 0
v -528 -112 0
v -544 -128 0
v -560 -128 0
v -560 -112 0
v -544 -112 0
v -560 -128 0
v -576 -128 0
v -576 -112 0
v -560 -112 0
v -592 -128 0
v -608 -128 0
v -608 -112 0
v -592 -112 0
v -64 -144 0
v -80 -144 0
v -80 -128 0
v -64 -128 0
v -224 -144 0
v -240 -144 0
v -240 -128 0
v -224 -128 0
v -464 -144 0
v -480 -144 0
v -480 -128 0
v -464 -128 0
v -480 -144 0
v -496 -144 0
v -496 -128 0
v -480 -128 0
v -576 -144 0
v -592 -144 0
v -592 -128 0
v -576 -128 0
v -592 -144 0
v -608 -144 0
v -608 -128 0
v -592 -128 0
v -160 -160 0
v -176 -160 0
v -176 -144 0
v -160 -144 0
v -208 -160 0
v -224 -160 0
v -224 -144 0
v -208 -144 0
v -608 -160 0
v -624 -160 0
v -624 -144 0
v -608 -144 0
v -32 -176 0
v -48 -176 0
v -48 -160 0
v -32 -160 0
v -48 -176 0
v -64 -176 0
v -64 -160 0
v -48 -160 0
v -96 -176 0
v -112 -176 0
v -112 -160 0
v -96 -160 0
v -128 -176 0
v -144 -176 0
v -144 -160 0
v -128 -160 0
v -160 -176 0
v -176 -176 0
v -176 -160 0
v -160 -160 0
v -544 -176 0
v -560 -176 0
v -560 -160 0
v -544 -160 0
v -576 -176 0
v -592 -176 0
v -592 -160 0
v -576 -160 0
v -80 -192 0
v -96 -192 0
v -96 -176 0
v -80 -176 0
v -128 -192 0
v -144 -192 0
v -144 -176 0
v -128 -176 0
v -176 -192 0
v -192 -192 0
v -192 -176 0
v -176 -176 0
v -288 -192 0
v -304 -192 0
v -304 -176 0
v -288 -176 0
v -304 -192 0
v -320 -192 0
v -320 -176 0
v -304 -176 0
v -320 -192 0
v -336 -192 0
v -336 -176 0
v -320 -176 0
v -544 -192 0
v -560 -192 0
v -560 -176 0
v -544 -176 0
v -608 -192 0
v -624 -192 0
v -624 -176 0
v -608 -176 0
v -256 -208 0
v -272 -208 0
v -272 -192 0
v -256 -192 0
v -288 -208 0
v -304 -208 0
v -304 -192 0
v -288 -192 0
v -496 -208 0
v -512 -208 0
v -512 -192 0
v -496 -192 0
v -528 -208 0
v -544 -208 0
v -544 -192 0
v -528 -192 0
v -592 -208 0
v -608 -208 0
v -608 -192 0
v -592 -192 0
v -16 -224 0
v -32 -224 0
v -32 -208 0
v -16 -208 0
v -48 -224 0
v -64 -224 0
v -64 -208 0
v -48 -208 0
v -144 -224 0
v -160 -224 0
v -160 -208 0
v -144 -208 0
v -160 -224 0
v -176 -224 0
v -176 -208 0
v -160 -208 0
v -208 -224 0
v -224 -224 0
v -224 -208 0
v -208 -208 0
v -272 -224 0
v -288 -224 0
v -288 -208 0
v -272 -208 0
v -288 -224 0
v -304 -224 0
v -304 -208 0
v -288 -208 0
v -304 -224 0
v -320 -224 0
v -320 -208 0
v -304 -208 0
v -320 -224 0
v -336 -224 0
v -336 -208 0
v -320 -208 0
v -448 -224 0
v -464 -224 0
v -464 -208 0
v -448 -208 0
v -496 -224 0
v -512 -224 0
v -512 -208 0
v -496 -208 0
v -528 -224 0
v -544 -224 0
v -544 -208 0
v -528 -208 0
v -544 -224 0
v -560 -224 0
v -560 -208 0
v -544 -208 0
v -624 -224 0
v -640 -224 0
v -640 -208 0
v -624 -208 0
v -16 -240 0
v -32 -240 0
v -32 -224 0
v -16 -224 0
v -32 -240 0
v -48 -240 0
v -48 -224 0
v -32 -224 0
v -48 -240 0
v -64 -240 0
v -64 -224 0
v -48 -224 0
v -128 -240 0
v -144 -240 0
v -144 -224 0
v -128 -224 0
v -288 -240 0
v -304 -240 0
v -304 -224 0
v -288 -224 0
v -336 -240 0
v -352 -240 0
v -352 -224 0
v -336 -224 0
v -352 -240 0
v -368 -240 0
v -368 -224 0
v -352 -224 0
v -464 -240 0
v -480 -240 0
v -480 -224 0
v -464 -224 0
v -560 -240 0
v -576 -240 0
v -576 -224 0
v -560 -224 0
v -592 -240 0
v -608 -240 0
v -608 -224 0
v -592 -224 0
v -160 -256 0
v -176 -256 0
v -176 -240 0
v -160 -240 0
v -208 -256 0
v -224 -256 0
v -224 -240 0
v -208 -240 0
v -288 -256 0
v -304 -256 0
v -304 -240 0
v -288 -240 0
v -336 -256 0
v -352 -256 0
v -352 -240 0
v -336 -240 0
v -416 -256 0
v -432 -256 0
v -432 -240 0
v -416 -240 0
v -448 -256 0
v -464 -256 0
v -464 -240 0
v -448 -240 0
v -528 -256 0
v -544 -256 0
v -544 -240 0
v -528 -240 0
v -16 -272 0
v -32 -272 0
v -32 -256 0
v -16 -256 0
v -32 -272 0
v -48 -272 0
v -48 -256 0
v -32 -256 0
v -80 -272 0
v -96 -272 0
v -96 -256 0
v -80 -256 0
v -240 -272 0
v -256 -272 0
v -256 -256 0
v -240 -256 0
v -368 -272 0
v -384 -272 0
v -384 -256 0
v -368 -256 0
v -384 -272 0
v -400 -272 0
v -400 -256 0
v -384 -256 0
v -400 -272 0
v -416 -272 0
v -416 -256 0
v -400 -256 0
v -496 -272 0
v -512 -272 0
v -512 -256 0
v -496 -256 0
v -96 -288 0
v -112 -288 0
v -112 -272 0
v -96 -272 0
v -128 -288 0
v -144 -288 0
v -144 -272 0
v -128 -272 0
v -240 -288 0
v -256 -288 0
v -256 -272 0
v -240 -272 0
v -320 -288 0
v -336 -288 0
v -336 -272 0
v -320 -272 0
v -352 -288 0
v -368 -288 0
v -368 -272 0
v -352 -272 0
v -416 -288 0
v -432 -288 0
v -432 -272 0
v -416 -272 0
v -448 -288 0
v -464 -288 0
v -464 -272 0
v -448 -272 0
v -464 -288 0
v -480 -288 0
v -480 -272 0
v -464 -272 0
v -496 -288 0
v -512 -288 0
v -512 -272 0
v -496 -272 0
v -160 -304 0
v -176 -304 0
v -176 -288 0
v -160 -288 0
v -240 -304 0
v -256 -304 0
v -256 -288 0
v -240 -288 0
v -384 -304 0
v -400 -304 0
v -400 -288 0
v -384 -288 0
v -464 -304 0
v -480 -304 0
v -480 -288 0
v -464 -288 0
v -320 -320 0
v -336 -320 0
v -336 -304 0
v -320 -304 0
v -336 -320 0
v -352 -320 0
v -352 -304 0
v -336 -304 0
v -368 -320 0
v -384 -320 0
v -384 -304 0
v -368 -304 0
v -384 -320 0
v -400 -320 0
v -400 -304 0
v -384 -304 0
v -448 -320 0
v -464 -320 0
v -464 -304 0
v -448 -304 0
v -112 -336 0
v -128 -336 0
v -128 -320 0
v -112 -320 0
v -144 -336 0
v -160 -336 0
v -160 -320 0
v -144 -320 0
v -320 -336 0
v -336 -336 0
v -336 -320 0
v -320 -320 0
v -416 -336 0
v -432 -336 0
v -432 -320 0
v -416 -320 0
v -176 -352 0
v -192 -352 0
v -192 -336 0
v -176 -336 0
v -224 -352 0
v -240 -352 0
v -240 -336 0
v -224 -336 0
v -368 -352 0
v -384 -352 0
v -384 -336 0
v -368 -336 0
v -384 -352 0
v -400 -352 0
v -400 -336 0
v -384 -336 0
v -144 -384 0
v -160 -384 0
v -160 -368 0
v -144 -368 0
v -160 -384 0
v -176 -384 0
v -176 -368 0
v -160 -368 0
v -176 -384 0
v -192 -384 0
v -192 -368 0
v -176 -368 0
v -192 -384 0
v -208 -384 0
v -208 -368 0
v -192 -368 0
v -240 -384 0
v -256 -384 0
v -256 -368 0
v -240 -368 0
v -384 -384 0
v -400 -384 0
v -400 -368 0
v -384 -368 0
v -144 -400 0
v -160 -400 0
v -160 -384 0
v -144 -384 0
v -160 -400 0
v -176 -400 0
v -176 -384 0
v -160 -384 0
v -192 -432 0
v -208 -432 0
v -208 -416 0
v -192 -416 0
v -208 -432 0
v -224 -432 0
v -224 -416 0
v -208 -416 0
v -240 -432 0
v -256 -432 0
v -256 -416 0
v -240 -416 0
v -176 -448 0
v -192 -448 0
v -192 -432 0
v -176 -432 0
v -176 -496 0
v -192 -496 0
v -192 -480 0
v -176 -480 0
v -224 -496 0
v -240 -496 0
v -240 -480 0
v -224 -480 0
v -160 -512 0
v -176 -512 0
v -176 -496 0
v -160 -496 0
v -176 -512 0
v -192 -512 0
v -192 -496 0
v -176 -496 0
v 0 -528 0
v -16 -528 0
v -16 -512 0
v 0 -512 0
v -16 -544 0
v -32 -544 0
v -32 -528 0
v -16 -528 0
v -32 -544 0
v -48 -544 0
v -48 -528 0
v -32 -528 0
v -160 -544 0
v -176 -544 0
v -176 -528 0
v -160 -528 0
v -240 -544 0
v -256 -544 0
v -256 -528 0
v -240 -528 0
v -80 -560 0
v -96 -560 0
v -96 -544 0
v -80 -544 0
v -112 -560 0
v -128 -560 0
v -128 -544 0
v -112 -544 0
v -272 -560 0
v -288 -560 0
v -288 -544 0
v -272 -544 0
v -288 -560 0
v -304 -560 0
v -304 -544 0
v -288 -544 0
v -400 -560 0
v -416 -560 0
v -416 -544 0
v -400 -544 0
v -16 -576 0
v -32 -576 0
v -32 -560 0
v -16 -560 0
v -48 -592 0
v -64 -592 0
v -64 -576 0
v -48 -576 0
v -64 -592 0
v -80 -592 0
v -80 -576 0
v -64 -576 0
v -80 -592 0
v -96 -592 0
v -96 -576 0
v -80 -576 0
v -96 -592 0
v -112 -592 0
v -112 -576 0
v -96 -576 0
v -128 -592 0
v -144 -592 0
v -144 -576 0
v -128 -576 0
v -192 -592 0
v -208 -592 0
v -208 -576 0
v -192 -576 0
v -336 -592 0
v -352 -592 0
v -352 -576 0
v -336 -576 0
v -368 -592 0
v -384 -592 0
v -384 -576 0
v -368 -576 0
v -384 -592 0
v -400 -592 0
v -400 -576 0
v -384 -576 0
v -400 -592 0
v -416 -592 0
v -416 -576 0
v -400 -576 0
v -464 -592 0
v -480 -592 0
v -480 -576 0
v -464 -576 0
v -48 -608 0
v -64 -608 0
v -64 -592 0
v -48 -592 0
v -96 -608 0
v -112 -608 0
v -112 -592 0
v -96 -592 0
v -112 -608 0
v -128 -608 0
v -128 -592 0
v -112 -592 0
v -176 -608 0
v -192 -608 0
v -192 -592 0
v -176 -592 0
v -192 -608 0
v -208 -608 0
v -208 -592 0
v -192 -592 0
v -208 -608 0
v -224 -608 0
v -224 -592 0
v -208 -592 0
v -240 -608 0
v -256 -608 0
v -256 -592 0
v -240 -592 0
v -304 -608 0
v -320 -608 0
v -320 -592 0
v -304 -592 0
v -320 -608 0
v -336 -608 0
v -336 -592 0
v -320 -592 0
v -336 -608 0
v -352 -608 0
v -352 -592 0
v -336 -592 0
v -400 -608 0
v -416 -608 0
v -416 -592 0
v -400 -592 0
v -416 -608 0
v -432 -608 0
v -432 -592 0
v -416 -592 0
v -560 -608 0
v -576 -608 0
v -576 -592 0
v -560 -592 0
v -576 -608 0
v -592 -608 0
v -592 -592 0
v -576 -592 0
v 0 -624 0
v -16 -624 0
v -16 -608 0
v 0 -608 0
v -32 -624 0
v -48 -624 0
v -48 -608 0
v -32 -608 0
v -80 -624 0
v -96 -624 0
v -96 -608 0
v -80 -608 0
v -112 -624 0
v -128 -624 0
v -128 -608 0
v -112 -608 0
v -128 -624 0
v -144 -624 0
v -144 -608 0
v -128 -608 0
v -160 -624 0
v -176 -624 0
v -176 -608 0
v -160 -608 0
v -208 -624 0
v -224 -624 0
v -224 -608 0
v -208 -608 0
v -240 -624 0
v -256 -624 0
v -256 -608 0
v -240 -608 0
v -416 -624 0
v -432 -624 0
v -432 -608 0
v -416 -608 0
v -512 -624 0
v -528 -624 0
v -528 -608 0
v -512 -608 0
v -544 -624 0
v -560 -624 0
v -560 -608 0
v -544 -608 0
v -112 -640 0
v -128 -640 0
v -128 -624 0
v -112 -624 0
v -416 -640 0
v -432 -640 0
v -432 -624 0
v -416 -624 0

# Texture cooridinates (Count = 16)
vt 0.9 0.6875
vt 0.9333333 0.6875
vt 0.9333333 0.75
vt 0.9 0.75
vt 0.8666667 0.6875
vt 0.8666667 0.75
vt 0.9333333 0.8125
vt 0.9 0.8125
vt 0.8333333 0.75
vt 0.8666667 0.8125
vt 0.8333333 0.8125
vt 0.9666666 0.6875
vt 1 0.6875
vt 1 0.75
vt 0.9666666 0.75
vt 0.9666666 0.8125

# Normal
vn 0 0 -1

# Mesh description
g map5_mesh_0003

# Faces
f 1/1/1 2/2/1 3/3/1 4/4/1
f 5/5/1 6/1/1 7/4/1 8/6/1
f 9/5/1 10/1/1 11/4/1 12/6/1
f 13/1/1 14/2/1 15/3/1 16/4/1
f 17/4/1 18/3/1 19/7/1 20/8/1
f 21/9/1 22/6/1 23/10/1 24/11/1
f 25/12/1 26/13/1 27/14/1 28/15/1
f 29/9/1 30/6/1 31/10/1 32/11/1
f 33/1/1 34/2/1 35/3/1 36/4/1
f 37/2/1 38/12/1 39/15/1 40/3/1
f 41/1/1 42/2/1 43/3/1 44/4/1
f 45/2/1 46/12/1 47/15/1 48/3/1
f 49/1/1 50/2/1 51/3/1 52/4/1
f 53/12/1 54/13/1 55/14/1 56/15/1
f 57/5/1 58/1/1 59/4/1 60/6/1
f 61/1/1 62/2/1 63/3/1 64/4/1
f 65/5/1 66/1/1 67/4/1 68/6/1
f 69/5/1 70/1/1 71/4/1 72/6/1
f 73/5/1 74/1/1 75/4/1 76/6/1
f 77/12/1 78/13/1 79/14/1 80/15/1
f 81/12/1 82/13/1 83/14/1 84/15/1
f 85/2/1 86/12/1 87/15/1 88/3/1
f 89/2/1 90/12/1 91/15/1 92/3/1
f 93/2/1 94/12/1 95/15/1 96/3/1
f 97/3/1 98/15/1 99/16/1 100/7/1
f 101/2/1 102/12/1 103/15/1 104/3/1
f 105/12/1 106/13/1 107/14/1 108/15/1
f 109/2/1 110/12/1 111/15/1 112/3/1
f 113/2/1 114/12/1 115/15/1 116/3/1
f 117/1/1 118/2/1 119/3/1 120/4/1
f 121/12/1 122/13/1 123/14/1 124/15/1
f 125/5/1 126/1/1 127/4/1 128/6/1
f 129/12/1 130/13/1 131/14/1 132/15/1
f 133/5/1 134/1/1 135/4/1 136/6/1
f 137/1/1 138/2/1 139/3/1 140/4/1
f 141/2/1 142/12/1 143/15/1 144/3/1
f 145/12/1 146/13/1 147/14/1 148/15/1
f 149/1/1 150/2/1 151/3/1 152/4/1
f 153/5/1 154/1/1 155/4/1 156/6/1
f 157/2/1 158/12/1 159/15/1 160/3/1
f 161/2/1 162/12/1 163/15/1 164/3/1
f 165/5/1 166/1/1 167/4/1 168/6/1
f 169/2/1 170/12/1 171/15/1 172/3/1
f 173/2/1 174/12/1 175/15/1 176/3/1
f 177/2/1 178/12/1 179/15/1 180/3/1
f 181/1/1 182/2/1 183/3/1 184/4/1
f 185/5/1 186/1/1 187/4/1 188/6/1
f 189/5/1 190/1/1 191/4/1 192/6/1
f 193/5/1 194/1/1 195/4/1 196/6/1
f 197/1/1 198/2/1 199/3/1 200/4/1
f 201/5/1 202/1/1 203/4/1 204/6/1
f 205/5/1 206/1/1 207/4/1 208/6/1
f 209/2/1 210/12/1 211/15/1 212/3/1
f 213/2/1 214/12/1 215/15/1 216/3/1
f 217/2/1 218/12/1 219/15/1 220/3/1
f 221/2/1 222/12/1 223/15/1 224/3/1
f 225/5/1 226/1/1 227/4/1 228/6/1
f 229/2/1 230/12/1 231/15/1 232/3/1
f 233/5/1 234/1/1 235/4/1 236/6/1
f 237/2/1 238/12/1 239/15/1 240/3/1
f 241/1/1 242/2/1 243/3/1 244/4/1
f 245/1/1 246/2/1 247/3/1 248/4/1
f 249/2/1 250/12/1 251/15/1 252/3/1
f 253/2/1 254/12/1 255/15/1 256/3/1
f 257/5/1 258/1/1 259/4/1 260/6/1
f 261/2/1 262/12/1 263/15/1 264/3/1
f 265/1/1 266/2/1 267/3/1 268/4/1
f 269/5/1 270/1/1 271/4/1 272/6/1
f 273/1/1 274/2/1 275/3/1 276/4/1
f 277/5/1 278/1/1 279/4/1 280/6/1
f 281/5/1 282/1/1 283/4/1 284/6/1
f 285/1/1 286/2/1 287/3/1 288/4/1
f 289/1/1 290/2/1 291/3/1 292/4/1
f 293/1/1 294/2/1 295/3/1 296/4/1
f 297/1/1 298/2/1 299/3/1 300/4/1
f 301/2/1 302/12/1 303/15/1 304/3/1
f 305/5/1 306/1/1 307/4/1 308/6/1
f 309/2/1 310/12/1 311/15/1 312/3/1
f 313/2/1 314/12/1 315/15/1 316/3/1
f 317/2/1 318/12/1 319/15/1 320/3/1
f 321/5/1 322/1/1 323/4/1 324/6/1
f 325/2/1 326/12/1 327/15/1 328/3/1
f 329/2/1 330/12/1 331/15/1 332/3/1
f 333/2/1 334/12/1 335/15/1 336/3/1
f 337/2/1 338/12/1 339/15/1 340/3/1
f 341/5/1 342/1/1 343/4/1 344/6/1
f 345/2/1 346/12/1 347/15/1 348/3/1
f 349/1/1 350/2/1 351/3/1 352/4/1
f 353/2/1 354/12/1 355/15/1 356/3/1
f 357/2/1 358/12/1 359/15/1 360/3/1
f 361/1/1 362/2/1 363/3/1 364/4/1
f 365/1/1 366/2/1 367/3/1 368/4/1
f 369/1/1 370/2/1 371/3/1 372/4/1
f 373/1/1 374/2/1 375/3/1 376/4/1
f 377/2/1 378/12/1 379/15/1 380/3/1
f 381/1/1 382/2/1 383/3/1 384/4/1
f 385/2/1 386/12/1 387/15/1 388/3/1
f 389/1/1 390/2/1 391/3/1 392/4/1
f 393/12/1 394/13/1 395/14/1 396/15/1
f 397/1/1 398/2/1 399/3/1 400/4/1
f 401/2/1 402/12/1 403/15/1 404/3/1
f 405/2/1 406/12/1 407/15/1 408/3/1
f 409/1/1 410/2/1 411/3/1 412/4/1
f 413/5/1 414/1/1 415/4/1 416/6/1
f 417/2/1 418/12/1 419/15/1 420/3/1
f 421/12/1 422/13/1 423/14/1 424/15/1
f 425/2/1 426/12/1 427/15/1 428/3/1
f 429/12/1 430/13/1 431/14/1 432/15/1
f 433/12/1 434/13/1 435/14/1 436/15/1
f 437/1/1 438/2/1 439/3/1 440/4/1
f 441/5/1 442/1/1 443/4/1 444/6/1
f 445/2/1 446/12/1 447/15/1 448/3/1
f 449/1/1 450/2/1 451/3/1 452/4/1
f 453/2/1 454/12/1 455/15/1 456/3/1
f 457/12/1 458/13/1 459/14/1 460/15/1
f 461/1/1 462/2/1 463/3/1 464/4/1
f 465/5/1 466/1/1 467/4/1 468/6/1
f 469/2/1 470/12/1 471/15/1 472/3/1
f 473/2/1 474/12/1 475/15/1 476/3/1
f 477/1/1 478/2/1 479/3/1 480/4/1
f 481/2/1 482/12/1 483/15/1 484/3/1
f 485/5/1 486/1/1 487/4/1 488/6/1
f 489/5/1 490/1/1 491/4/1 492/6/1
f 493/2/1 494/12/1 495/15/1 496/3/1
f 497/2/1 498/12/1 499/15/1 500/3/1
f 501/1/1 502/2/1 503/3/1 504/4/1
f 505/12/1 506/13/1 507/14/1 508/15/1
f 509/5/1 510/1/1 511/4/1 512/6/1
f 513/1/1 514/2/1 515/3/1 516/4/1
f 517/5/1 518/1/1 519/4/1 520/6/1
f 521/5/1 522/1/1 523/4/1 524/6/1
f 525/2/1 526/12/1 527/15/1 528/3/1
f 529/12/1 530/13/1 531/14/1 532/15/1
f 533/2/1 534/12/1 535/15/1 536/3/1
f 537/5/1 538/1/1 539/4/1 540/6/1
f 541/12/1 542/13/1 543/14/1 544/15/1
f 545/12/1 546/13/1 547/14/1 548/15/1
f 549/12/1 550/13/1 551/14/1 552/15/1
f 553/12/1 554/13/1 555/14/1 556/15/1
f 557/12/1 558/13/1 559/14/1 560/15/1
f 561/1/1 562/2/1 563/3/1 564/4/1
f 565/2/1 566/12/1 567/15/1 568/3/1
f 569/5/1 570/1/1 571/4/1 572/6/1
f 573/1/1 574/2/1 575/3/1 576/4/1
f 577/2/1 578/12/1 579/15/1 580/3/1
f 581/5/1 582/1/1 583/4/1 584/6/1
f 585/12/1 586/13/1 587/14/1 588/15/1
f 589/1/1 590/2/1 591/3/1 592/4/1
f 593/2/1 594/12/1 595/15/1 596/3/1
f 597/5/1 598/1/1 599/4/1 600/6/1
f 601/12/1 602/13/1 603/14/1 604/15/1
f 605/2/1 606/12/1 607/15/1 608/3/1
f 609/1/1 610/2/1 611/3/1 612/4/1
f 613/12/1 614/13/1 615/14/1 616/15/1
f 617/12/1 618/13/1 619/14/1 620/15/1
f 621/5/1 622/1/1 623/4/1 624/6/1
f 625/2/1 626/12/1 627/15/1 628/3/1
f 629/1/1 630/2/1 631/3/1 632/4/1
f 633/2/1 634/12/1 635/15/1 636/3/1
f 637/12/1 638/13/1 639/14/1 640/15/1
f 641/1/1 642/2/1 643/3/1 644/4/1
f 645/2/1 646/12/1 647/15/1 648/3/1
f 649/1/1 650/2/1 651/3/1 652/4/1
f 653/1/1 654/2/1 655/3/1 656/4/1
f 657/5/1 658/1/1 659/4/1 660/6/1
f 661/12/1 662/13/1 663/14/1 664/15/1
f 665/1/1 666/2/1 667/3/1 668/4/1
f 669/12/1 670/13/1 671/14/1 672/15/1
f 673/5/1 674/1/1 675/4/1 676/6/1
f 677/2/1 678/12/1 679/15/1 680/3/1
f 681/1/1 682/2/1 683/3/1 684/4/1
f 685/5/1 686/1/1 687/4/1 688/6/1
f 689/12/1 690/13/1 691/14/1 692/15/1
f 693/1/1 694/2/1 695/3/1 696/4/1
f 697/1/1 698/2/1 699/3/1 700/4/1
f 701/2/1 702/12/1 703/15/1 704/3/1
f 705/1/1 706/2/1 707/3/1 708/4/1
f 709/12/1 710/13/1 711/14/1 712/15/1
f 713/12/1 714/13/1 715/14/1 716/15/1
f 717/2/1 718/12/1 719/15/1 720/3/1
f 721/1/1 722/2/1 723/3/1 724/4/1
f 725/5/1 726/1/1 727/4/1 728/6/1
f 729/1/1 730/2/1 731/3/1 732/4/1
f 733/12/1 734/13/1 735/14/1 736/15/1
f 737/1/1 738/2/1 739/3/1 740/4/1
f 741/2/1 742/12/1 743/15/1 744/3/1
f 745/2/1 746/12/1 747/15/1 748/3/1

