# Tiled2Unity generated file. Do not modify by hand.
# Wavefront file for 'map4_mesh_0002.obj'

# Vertices (Count = 312)
v -176 -16 0
v -192 -16 0
v -192 0 0
v -176 0 0
v -432 -16 0
v -448 -16 0
v -448 0 0
v -432 0 0
v -304 -32 0
v -320 -32 0
v -320 -16 0
v -304 -16 0
v -288 -48 0
v -304 -48 0
v -304 -32 0
v -288 -32 0
v -80 -80 0
v -96 -80 0
v -96 -64 0
v -80 -64 0
v -384 -80 0
v -400 -80 0
v -400 -64 0
v -384 -64 0
v -208 -96 0
v -224 -96 0
v -224 -80 0
v -208 -80 0
v -448 -96 0
v -464 -96 0
v -464 -80 0
v -448 -80 0
v -480 -96 0
v -496 -96 0
v -496 -80 0
v -480 -80 0
v -544 -96 0
v -560 -96 0
v -560 -80 0
v -544 -80 0
v -48 -112 0
v -64 -112 0
v -64 -96 0
v -48 -96 0
v -192 -112 0
v -208 -112 0
v -208 -96 0
v -192 -96 0
v -336 -112 0
v -352 -112 0
v -352 -96 0
v -336 -96 0
v -544 -112 0
v -560 -112 0
v -560 -96 0
v -544 -96 0
v -560 -112 0
v -576 -112 0
v -576 -96 0
v -560 -96 0
v -16 -128 0
v -32 -128 0
v -32 -112 0
v -16 -112 0
v -320 -128 0
v -336 -128 0
v -336 -112 0
v -320 -112 0
v -384 -128 0
v -400 -128 0
v -400 -112 0
v -384 -112 0
v -448 -128 0
v -464 -128 0
v -464 -112 0
v -448 -112 0
v -512 -128 0
v -528 -128 0
v -528 -112 0
v -512 -112 0
v -80 -144 0
v -96 -144 0
v -96 -128 0
v -80 -128 0
v -128 -160 0
v -144 -160 0
v -144 -144 0
v -128 -144 0
v -288 -160 0
v -304 -160 0
v -304 -144 0
v -288 -144 0
v -560 -176 0
v -576 -176 0
v -576 -160 0
v -560 -160 0
v -240 -192 0
v -256 -192 0
v -256 -176 0
v -240 -176 0
v -608 -208 0
v -624 -208 0
v -624 -192 0
v -608 -192 0
v -176 -224 0
v -192 -224 0
v -192 -208 0
v -176 -208 0
v -288 -224 0
v -304 -224 0
v -304 -208 0
v -288 -208 0
v -336 -224 0
v -352 -224 0
v -352 -208 0
v -336 -208 0
v -48 -240 0
v -64 -240 0
v -64 -224 0
v -48 -224 0
v -160 -240 0
v -176 -240 0
v -176 -224 0
v -160 -224 0
v -544 -240 0
v -560 -240 0
v -560 -224 0
v -544 -224 0
v -288 -256 0
v -304 -256 0
v -304 -240 0
v -288 -240 0
v -576 -272 0
v -592 -272 0
v -592 -256 0
v -576 -256 0
v -208 -288 0
v -224 -288 0
v -224 -272 0
v -208 -272 0
v -448 -304 0
v -464 -304 0
v -464 -288 0
v -448 -288 0
v -480 -320 0
v -496 -320 0
v -496 -304 0
v -480 -304 0
v -512 -320 0
v -528 -320 0
v -528 -304 0
v -512 -304 0
v -144 -336 0
v -160 -336 0
v -160 -320 0
v -144 -320 0
v -256 -336 0
v -272 -336 0
v -272 -320 0
v -256 -320 0
v -480 -352 0
v -496 -352 0
v -496 -336 0
v -480 -336 0
v -512 -352 0
v -528 -352 0
v -528 -336 0
v -512 -336 0
v -560 -368 0
v -576 -368 0
v -576 -352 0
v -560 -352 0
v -176 -384 0
v -192 -384 0
v -192 -368 0
v -176 -368 0
v -192 -384 0
v -208 -384 0
v -208 -368 0
v -192 -368 0
v -576 -384 0
v -592 -384 0
v -592 -368 0
v -576 -368 0
v -64 -400 0
v -80 -400 0
v -80 -384 0
v -64 -384 0
v -176 -400 0
v -192 -400 0
v -192 -384 0
v -176 -384 0
v -272 -400 0
v -288 -400 0
v -288 -384 0
v -272 -384 0
v -64 -416 0
v -80 -416 0
v -80 -400 0
v -64 -400 0
v -416 -416 0
v -432 -416 0
v -432 -400 0
v -416 -400 0
v -432 -432 0
v -448 -432 0
v -448 -416 0
v -432 -416 0
v -32 -448 0
v -48 -448 0
v -48 -432 0
v -32 -432 0
v -48 -448 0
v -64 -448 0
v -64 -432 0
v -48 -432 0
v -96 -448 0
v -112 -448 0
v -112 -432 0
v -96 -432 0
v -320 -448 0
v -336 -448 0
v -336 -432 0
v -320 -432 0
v -448 -448 0
v -464 -448 0
v -464 -432 0
v -448 -432 0
v -176 -464 0
v -192 -464 0
v -192 -448 0
v -176 -448 0
v -192 -496 0
v -208 -496 0
v -208 -480 0
v -192 -480 0
v -320 -496 0
v -336 -496 0
v -336 -480 0
v -320 -480 0
v -352 -496 0
v -368 -496 0
v -368 -480 0
v -352 -480 0
v -544 -496 0
v -560 -496 0
v -560 -480 0
v -544 -480 0
v -32 -512 0
v -48 -512 0
v -48 -496 0
v -32 -496 0
v -64 -512 0
v -80 -512 0
v -80 -496 0
v -64 -496 0
v -480 -512 0
v -496 -512 0
v -496 -496 0
v -480 -496 0
v -48 -528 0
v -64 -528 0
v -64 -512 0
v -48 -512 0
v -288 -544 0
v -304 -544 0
v -304 -528 0
v -288 -528 0
v -64 -560 0
v -80 -560 0
v -80 -544 0
v -64 -544 0
v -608 -560 0
v -624 -560 0
v -624 -544 0
v -608 -544 0
v -176 -576 0
v -192 -576 0
v -192 -560 0
v -176 -560 0
v -336 -592 0
v -352 -592 0
v -352 -576 0
v -336 -576 0
v -448 -592 0
v -464 -592 0
v -464 -576 0
v -448 -576 0
v -560 -592 0
v -576 -592 0
v -576 -576 0
v -560 -576 0
v -112 -608 0
v -128 -608 0
v -128 -592 0
v -112 -592 0
v -432 -608 0
v -448 -608 0
v -448 -592 0
v -432 -592 0
v -464 -608 0
v -480 -608 0
v -480 -592 0
v -464 -592 0
v -288 -640 0
v -304 -640 0
v -304 -624 0
v -288 -624 0
v -304 -640 0
v -320 -640 0
v -320 -624 0
v -304 -624 0

# Texture cooridinates (Count = 12)
vt 0.6666667 0
vt 0.7 0
vt 0.7 0.0625
vt 0.6666667 0.0625
vt 0.6333333 0.4375
vt 0.6666667 0.4375
vt 0.6666667 0.5
vt 0.6333333 0.5
vt 0.7 0.25
vt 0.7333333 0.25
vt 0.7333333 0.3125
vt 0.7 0.3125

# Normal
vn 0 0 -1

# Mesh description
g map4_mesh_0002

# Faces
f 1/1/1 2/2/1 3/3/1 4/4/1
f 5/5/1 6/6/1 7/7/1 8/8/1
f 9/5/1 10/6/1 11/7/1 12/8/1
f 13/5/1 14/6/1 15/7/1 16/8/1
f 17/5/1 18/6/1 19/7/1 20/8/1
f 21/5/1 22/6/1 23/7/1 24/8/1
f 25/5/1 26/6/1 27/7/1 28/8/1
f 29/5/1 30/6/1 31/7/1 32/8/1
f 33/5/1 34/6/1 35/7/1 36/8/1
f 37/5/1 38/6/1 39/7/1 40/8/1
f 41/5/1 42/6/1 43/7/1 44/8/1
f 45/5/1 46/6/1 47/7/1 48/8/1
f 49/5/1 50/6/1 51/7/1 52/8/1
f 53/5/1 54/6/1 55/7/1 56/8/1
f 57/5/1 58/6/1 59/7/1 60/8/1
f 61/5/1 62/6/1 63/7/1 64/8/1
f 65/5/1 66/6/1 67/7/1 68/8/1
f 69/5/1 70/6/1 71/7/1 72/8/1
f 73/5/1 74/6/1 75/7/1 76/8/1
f 77/1/1 78/2/1 79/3/1 80/4/1
f 81/5/1 82/6/1 83/7/1 84/8/1
f 85/5/1 86/6/1 87/7/1 88/8/1
f 89/5/1 90/6/1 91/7/1 92/8/1
f 93/5/1 94/6/1 95/7/1 96/8/1
f 97/5/1 98/6/1 99/7/1 100/8/1
f 101/1/1 102/2/1 103/3/1 104/4/1
f 105/5/1 106/6/1 107/7/1 108/8/1
f 109/1/1 110/2/1 111/3/1 112/4/1
f 113/1/1 114/2/1 115/3/1 116/4/1
f 117/5/1 118/6/1 119/7/1 120/8/1
f 121/5/1 122/6/1 123/7/1 124/8/1
f 125/5/1 126/6/1 127/7/1 128/8/1
f 129/5/1 130/6/1 131/7/1 132/8/1
f 133/5/1 134/6/1 135/7/1 136/8/1
f 137/5/1 138/6/1 139/7/1 140/8/1
f 141/9/1 142/10/1 143/11/1 144/12/1
f 145/1/1 146/2/1 147/3/1 148/4/1
f 149/5/1 150/6/1 151/7/1 152/8/1
f 153/5/1 154/6/1 155/7/1 156/8/1
f 157/5/1 158/6/1 159/7/1 160/8/1
f 161/5/1 162/6/1 163/7/1 164/8/1
f 165/1/1 166/2/1 167/3/1 168/4/1
f 169/5/1 170/6/1 171/7/1 172/8/1
f 173/5/1 174/6/1 175/7/1 176/8/1
f 177/5/1 178/6/1 179/7/1 180/8/1
f 181/5/1 182/6/1 183/7/1 184/8/1
f 185/5/1 186/6/1 187/7/1 188/8/1
f 189/1/1 190/2/1 191/3/1 192/4/1
f 193/5/1 194/6/1 195/7/1 196/8/1
f 197/1/1 198/2/1 199/3/1 200/4/1
f 201/5/1 202/6/1 203/7/1 204/8/1
f 205/5/1 206/6/1 207/7/1 208/8/1
f 209/5/1 210/6/1 211/7/1 212/8/1
f 213/1/1 214/2/1 215/3/1 216/4/1
f 217/5/1 218/6/1 219/7/1 220/8/1
f 221/5/1 222/6/1 223/7/1 224/8/1
f 225/5/1 226/6/1 227/7/1 228/8/1
f 229/5/1 230/6/1 231/7/1 232/8/1
f 233/5/1 234/6/1 235/7/1 236/8/1
f 237/5/1 238/6/1 239/7/1 240/8/1
f 241/5/1 242/6/1 243/7/1 244/8/1
f 245/5/1 246/6/1 247/7/1 248/8/1
f 249/5/1 250/6/1 251/7/1 252/8/1
f 253/5/1 254/6/1 255/7/1 256/8/1
f 257/5/1 258/6/1 259/7/1 260/8/1
f 261/5/1 262/6/1 263/7/1 264/8/1
f 265/5/1 266/6/1 267/7/1 268/8/1
f 269/5/1 270/6/1 271/7/1 272/8/1
f 273/1/1 274/2/1 275/3/1 276/4/1
f 277/5/1 278/6/1 279/7/1 280/8/1
f 281/5/1 282/6/1 283/7/1 284/8/1
f 285/5/1 286/6/1 287/7/1 288/8/1
f 289/5/1 290/6/1 291/7/1 292/8/1
f 293/5/1 294/6/1 295/7/1 296/8/1
f 297/5/1 298/6/1 299/7/1 300/8/1
f 301/5/1 302/6/1 303/7/1 304/8/1
f 305/1/1 306/2/1 307/3/1 308/4/1
f 309/1/1 310/2/1 311/3/1 312/4/1

