# Tiled2Unity generated file. Do not modify by hand.
# Wavefront file for 'map3-1_mesh_0002.obj'

# Vertices (Count = 372)
v -480 -16 0
v -496 -16 0
v -496 0 0
v -480 0 0
v -496 -16 0
v -512 -16 0
v -512 0 0
v -496 0 0
v -512 -16 0
v -528 -16 0
v -528 0 0
v -512 0 0
v -528 -16 0
v -544 -16 0
v -544 0 0
v -528 0 0
v -544 -16 0
v -560 -16 0
v -560 0 0
v -544 0 0
v -560 -16 0
v -576 -16 0
v -576 0 0
v -560 0 0
v -576 -16 0
v -592 -16 0
v -592 0 0
v -576 0 0
v -592 -16 0
v -608 -16 0
v -608 0 0
v -592 0 0
v -608 -16 0
v -624 -16 0
v -624 0 0
v -608 0 0
v -624 -16 0
v -640 -16 0
v -640 0 0
v -624 0 0
v -480 -32 0
v -496 -32 0
v -496 -16 0
v -480 -16 0
v -496 -32 0
v -512 -32 0
v -512 -16 0
v -496 -16 0
v -512 -32 0
v -528 -32 0
v -528 -16 0
v -512 -16 0
v -528 -32 0
v -544 -32 0
v -544 -16 0
v -528 -16 0
v -544 -32 0
v -560 -32 0
v -560 -16 0
v -544 -16 0
v -560 -32 0
v -576 -32 0
v -576 -16 0
v -560 -16 0
v -576 -32 0
v -592 -32 0
v -592 -16 0
v -576 -16 0
v -592 -32 0
v -608 -32 0
v -608 -16 0
v -592 -16 0
v -608 -32 0
v -624 -32 0
v -624 -16 0
v -608 -16 0
v -624 -32 0
v -640 -32 0
v -640 -16 0
v -624 -16 0
v -480 -48 0
v -496 -48 0
v -496 -32 0
v -480 -32 0
v -496 -48 0
v -512 -48 0
v -512 -32 0
v -496 -32 0
v -512 -48 0
v -528 -48 0
v -528 -32 0
v -512 -32 0
v -528 -48 0
v -544 -48 0
v -544 -32 0
v -528 -32 0
v -544 -48 0
v -560 -48 0
v -560 -32 0
v -544 -32 0
v -560 -48 0
v -576 -48 0
v -576 -32 0
v -560 -32 0
v -576 -48 0
v -592 -48 0
v -592 -32 0
v -576 -32 0
v -592 -48 0
v -608 -48 0
v -608 -32 0
v -592 -32 0
v -608 -48 0
v -624 -48 0
v -624 -32 0
v -608 -32 0
v -624 -48 0
v -640 -48 0
v -640 -32 0
v -624 -32 0
v -480 -64 0
v -496 -64 0
v -496 -48 0
v -480 -48 0
v -496 -64 0
v -512 -64 0
v -512 -48 0
v -496 -48 0
v -512 -64 0
v -528 -64 0
v -528 -48 0
v -512 -48 0
v -528 -64 0
v -544 -64 0
v -544 -48 0
v -528 -48 0
v -544 -64 0
v -560 -64 0
v -560 -48 0
v -544 -48 0
v -560 -64 0
v -576 -64 0
v -576 -48 0
v -560 -48 0
v -576 -64 0
v -592 -64 0
v -592 -48 0
v -576 -48 0
v -592 -64 0
v -608 -64 0
v -608 -48 0
v -592 -48 0
v -608 -64 0
v -624 -64 0
v -624 -48 0
v -608 -48 0
v -624 -64 0
v -640 -64 0
v -640 -48 0
v -624 -48 0
v -480 -80 0
v -496 -80 0
v -496 -64 0
v -480 -64 0
v -496 -80 0
v -512 -80 0
v -512 -64 0
v -496 -64 0
v -512 -80 0
v -528 -80 0
v -528 -64 0
v -512 -64 0
v -528 -80 0
v -544 -80 0
v -544 -64 0
v -528 -64 0
v -544 -80 0
v -560 -80 0
v -560 -64 0
v -544 -64 0
v -560 -80 0
v -576 -80 0
v -576 -64 0
v -560 -64 0
v -480 -96 0
v -496 -96 0
v -496 -80 0
v -480 -80 0
v -496 -96 0
v -512 -96 0
v -512 -80 0
v -496 -80 0
v -512 -96 0
v -528 -96 0
v -528 -80 0
v -512 -80 0
v -528 -96 0
v -544 -96 0
v -544 -80 0
v -528 -80 0
v -544 -96 0
v -560 -96 0
v -560 -80 0
v -544 -80 0
v -560 -96 0
v -576 -96 0
v -576 -80 0
v -560 -80 0
v -496 -112 0
v -512 -112 0
v -512 -96 0
v -496 -96 0
v -480 -368 0
v -496 -368 0
v -496 -352 0
v -480 -352 0
v -496 -368 0
v -512 -368 0
v -512 -352 0
v -496 -352 0
v -480 -384 0
v -496 -384 0
v -496 -368 0
v -480 -368 0
v -496 -384 0
v -512 -384 0
v -512 -368 0
v -496 -368 0
v -480 -400 0
v -496 -400 0
v -496 -384 0
v -480 -384 0
v -496 -400 0
v -512 -400 0
v -512 -384 0
v -496 -384 0
v -480 -416 0
v -496 -416 0
v -496 -400 0
v -480 -400 0
v -496 -416 0
v -512 -416 0
v -512 -400 0
v -496 -400 0
v -480 -432 0
v -496 -432 0
v -496 -416 0
v -480 -416 0
v -496 -432 0
v -512 -432 0
v -512 -416 0
v -496 -416 0
v -480 -448 0
v -496 -448 0
v -496 -432 0
v -480 -432 0
v -496 -448 0
v -512 -448 0
v -512 -432 0
v -496 -432 0
v -480 -464 0
v -496 -464 0
v -496 -448 0
v -480 -448 0
v -496 -464 0
v -512 -464 0
v -512 -448 0
v -496 -448 0
v -480 -480 0
v -496 -480 0
v -496 -464 0
v -480 -464 0
v -496 -480 0
v -512 -480 0
v -512 -464 0
v -496 -464 0
v -464 -496 0
v -480 -496 0
v -480 -480 0
v -464 -480 0
v -480 -496 0
v -496 -496 0
v -496 -480 0
v -480 -480 0
v -464 -512 0
v -480 -512 0
v -480 -496 0
v -464 -496 0
v -480 -512 0
v -496 -512 0
v -496 -496 0
v -480 -496 0
v -464 -528 0
v -480 -528 0
v -480 -512 0
v -464 -512 0
v -480 -528 0
v -496 -528 0
v -496 -512 0
v -480 -512 0
v -464 -544 0
v -480 -544 0
v -480 -528 0
v -464 -528 0
v -480 -544 0
v -496 -544 0
v -496 -528 0
v -480 -528 0
v -432 -560 0
v -448 -560 0
v -448 -544 0
v -432 -544 0
v -448 -560 0
v -464 -560 0
v -464 -544 0
v -448 -544 0
v -432 -576 0
v -448 -576 0
v -448 -560 0
v -432 -560 0
v -448 -576 0
v -464 -576 0
v -464 -560 0
v -448 -560 0
v -464 -576 0
v -480 -576 0
v -480 -560 0
v -464 -560 0
v -480 -576 0
v -496 -576 0
v -496 -560 0
v -480 -560 0
v -432 -592 0
v -448 -592 0
v -448 -576 0
v -432 -576 0
v -448 -592 0
v -464 -592 0
v -464 -576 0
v -448 -576 0
v -464 -592 0
v -480 -592 0
v -480 -576 0
v -464 -576 0
v -480 -592 0
v -496 -592 0
v -496 -576 0
v -480 -576 0
v -432 -608 0
v -448 -608 0
v -448 -592 0
v -432 -592 0
v -448 -608 0
v -464 -608 0
v -464 -592 0
v -448 -592 0
v -464 -608 0
v -480 -608 0
v -480 -592 0
v -464 -592 0
v -480 -608 0
v -496 -608 0
v -496 -592 0
v -480 -592 0
v -464 -624 0
v -480 -624 0
v -480 -608 0
v -464 -608 0
v -480 -624 0
v -496 -624 0
v -496 -608 0
v -480 -608 0

# Texture cooridinates (Count = 92)
vt 0.6 0.875
vt 0.6333333 0.875
vt 0.6333333 0.9375
vt 0.6 0.9375
vt 0.6666667 0.875
vt 0.6666667 0.9375
vt 0.7 0.875
vt 0.7 0.9375
vt 0.7333333 0.875
vt 0.7333333 0.9375
vt 0.7666667 0.875
vt 0.7666667 0.9375
vt 0.8 0.875
vt 0.8 0.9375
vt 0.5666667 0.8125
vt 0.6 0.8125
vt 0.5666667 0.875
vt 0.4333333 0.9375
vt 0.4666667 0.9375
vt 0.4666667 1
vt 0.4333333 1
vt 0.4333333 0.8125
vt 0.4666667 0.8125
vt 0.4666667 0.875
vt 0.4333333 0.875
vt 0.5 0.8125
vt 0.5 0.875
vt 0.6333333 0.8125
vt 0.6666667 0.8125
vt 0.7 0.8125
vt 0.7333333 0.8125
vt 0.7666667 0.8125
vt 0.8 0.8125
vt 0.5333334 0.75
vt 0.5666667 0.75
vt 0.5333334 0.8125
vt 0.5 0.9375
vt 0.6 0.75
vt 0.6333333 0.75
vt 0.6666667 0.75
vt 0.7 0.75
vt 0.7333333 0.75
vt 0.7666667 0.75
vt 0.8 0.75
vt 0.5666667 0.6875
vt 0.6 0.6875
vt 0.5333334 0.6875
vt 0.4 0.75
vt 0.4333333 0.75
vt 0.4 0.8125
vt 0.6333333 0.6875
vt 0.6666667 0.6875
vt 0.7 0.6875
vt 0.7333333 0.6875
vt 0.7666667 0.6875
vt 0.8 0.6875
vt 0.5333334 0.875
vt 0.5666667 0.9375
vt 0.5333334 0.9375
vt 0.6 0.625
vt 0.6333333 0.625
vt 0.6666667 0.625
vt 0.7 0.625
vt 0.7333333 0.625
vt 0.7666667 0.625
vt 0.8 0.625
vt 0.6 0.5625
vt 0.6333333 0.5625
vt 0.6666667 0.5625
vt 0.7 0.5625
vt 0.7333333 0.5625
vt 0.7666667 0.5625
vt 0.8 0.5625
vt 0.8333333 0.0625
vt 0.8666667 0.0625
vt 0.8666667 0.125
vt 0.8333333 0.125
vt 0.9333333 0.75
vt 0.9666666 0.75
vt 0.9666666 0.8125
vt 0.9333333 0.8125
vt 1 0.75
vt 1 0.8125
vt 0.9333333 0.6875
vt 0.9666666 0.6875
vt 1 0.6875
vt 0.9333333 0.625
vt 0.9666666 0.625
vt 1 0.625
vt 0.9333333 0.5625
vt 0.9666666 0.5625
vt 1 0.5625

# Normal
vn 0 0 -1

# Mesh description
g map3-1_mesh_0002

# Faces
f 1/1/1 2/2/1 3/3/1 4/4/1
f 5/2/1 6/5/1 7/6/1 8/3/1
f 9/5/1 10/7/1 11/8/1 12/6/1
f 13/7/1 14/9/1 15/10/1 16/8/1
f 17/9/1 18/11/1 19/12/1 20/10/1
f 21/11/1 22/13/1 23/14/1 24/12/1
f 25/15/1 26/16/1 27/1/1 28/17/1
f 29/18/1 30/19/1 31/20/1 32/21/1
f 33/22/1 34/23/1 35/24/1 36/25/1
f 37/23/1 38/26/1 39/27/1 40/24/1
f 41/16/1 42/28/1 43/2/1 44/1/1
f 45/28/1 46/29/1 47/5/1 48/2/1
f 49/29/1 50/30/1 51/7/1 52/5/1
f 53/30/1 54/31/1 55/9/1 56/7/1
f 57/31/1 58/32/1 59/11/1 60/9/1
f 61/32/1 62/33/1 63/13/1 64/11/1
f 65/34/1 66/35/1 67/15/1 68/36/1
f 69/24/1 70/27/1 71/37/1 72/19/1
f 73/35/1 74/38/1 75/16/1 76/15/1
f 77/35/1 78/38/1 79/16/1 80/15/1
f 81/38/1 82/39/1 83/28/1 84/16/1
f 85/39/1 86/40/1 87/29/1 88/28/1
f 89/40/1 90/41/1 91/30/1 92/29/1
f 93/41/1 94/42/1 95/31/1 96/30/1
f 97/42/1 98/43/1 99/32/1 100/31/1
f 101/43/1 102/44/1 103/33/1 104/32/1
f 105/45/1 106/46/1 107/38/1 108/35/1
f 109/47/1 110/45/1 111/35/1 112/34/1
f 113/15/1 114/16/1 115/1/1 116/17/1
f 117/48/1 118/49/1 119/22/1 120/50/1
f 121/46/1 122/51/1 123/39/1 124/38/1
f 125/51/1 126/52/1 127/40/1 128/39/1
f 129/52/1 130/53/1 131/41/1 132/40/1
f 133/53/1 134/54/1 135/42/1 136/41/1
f 137/54/1 138/55/1 139/43/1 140/42/1
f 141/55/1 142/56/1 143/44/1 144/43/1
f 145/36/1 146/15/1 147/17/1 148/57/1
f 149/57/1 150/17/1 151/58/1 152/59/1
f 153/26/1 154/36/1 155/57/1 156/27/1
f 157/45/1 158/46/1 159/38/1 160/35/1
f 161/60/1 162/61/1 163/51/1 164/46/1
f 165/61/1 166/62/1 167/52/1 168/51/1
f 169/62/1 170/63/1 171/53/1 172/52/1
f 173/63/1 174/64/1 175/54/1 176/53/1
f 177/64/1 178/65/1 179/55/1 180/54/1
f 181/65/1 182/66/1 183/56/1 184/55/1
f 185/67/1 186/68/1 187/61/1 188/60/1
f 189/68/1 190/69/1 191/62/1 192/61/1
f 193/69/1 194/70/1 195/63/1 196/62/1
f 197/70/1 198/71/1 199/64/1 200/63/1
f 201/71/1 202/72/1 203/65/1 204/64/1
f 205/72/1 206/73/1 207/66/1 208/65/1
f 209/74/1 210/75/1 211/76/1 212/77/1
f 213/78/1 214/79/1 215/80/1 216/81/1
f 217/79/1 218/82/1 219/83/1 220/80/1
f 221/84/1 222/85/1 223/79/1 224/78/1
f 225/85/1 226/86/1 227/82/1 228/79/1
f 229/87/1 230/88/1 231/85/1 232/84/1
f 233/88/1 234/89/1 235/86/1 236/85/1
f 237/90/1 238/91/1 239/88/1 240/87/1
f 241/91/1 242/92/1 243/89/1 244/88/1
f 245/78/1 246/79/1 247/80/1 248/81/1
f 249/79/1 250/82/1 251/83/1 252/80/1
f 253/84/1 254/85/1 255/79/1 256/78/1
f 257/85/1 258/86/1 259/82/1 260/79/1
f 261/87/1 262/88/1 263/85/1 264/84/1
f 265/88/1 266/89/1 267/86/1 268/85/1
f 269/90/1 270/91/1 271/88/1 272/87/1
f 273/91/1 274/92/1 275/89/1 276/88/1
f 277/78/1 278/79/1 279/80/1 280/81/1
f 281/79/1 282/82/1 283/83/1 284/80/1
f 285/84/1 286/85/1 287/79/1 288/78/1
f 289/85/1 290/86/1 291/82/1 292/79/1
f 293/87/1 294/88/1 295/85/1 296/84/1
f 297/88/1 298/89/1 299/86/1 300/85/1
f 301/90/1 302/91/1 303/88/1 304/87/1
f 305/91/1 306/92/1 307/89/1 308/88/1
f 309/78/1 310/79/1 311/80/1 312/81/1
f 313/79/1 314/82/1 315/83/1 316/80/1
f 317/84/1 318/85/1 319/79/1 320/78/1
f 321/85/1 322/86/1 323/82/1 324/79/1
f 325/78/1 326/79/1 327/80/1 328/81/1
f 329/79/1 330/82/1 331/83/1 332/80/1
f 333/87/1 334/88/1 335/85/1 336/84/1
f 337/88/1 338/89/1 339/86/1 340/85/1
f 341/84/1 342/85/1 343/79/1 344/78/1
f 345/85/1 346/86/1 347/82/1 348/79/1
f 349/90/1 350/91/1 351/88/1 352/87/1
f 353/91/1 354/92/1 355/89/1 356/88/1
f 357/87/1 358/88/1 359/85/1 360/84/1
f 361/88/1 362/89/1 363/86/1 364/85/1
f 365/90/1 366/91/1 367/88/1 368/87/1
f 369/91/1 370/92/1 371/89/1 372/88/1

