# Tiled2Unity generated file. Do not modify by hand.
# Wavefront file for 'map1-1_mesh_0003.obj'

# Vertices (Count = 788)
v -15 -15 0
v -30 -15 0
v -30 0 0
v -15 0 0
v -30 -15 0
v -45 -15 0
v -45 0 0
v -30 0 0
v -45 -15 0
v -60 -15 0
v -60 0 0
v -45 0 0
v -60 -15 0
v -75 -15 0
v -75 0 0
v -60 0 0
v -90 -15 0
v -105 -15 0
v -105 0 0
v -90 0 0
v -150 -15 0
v -165 -15 0
v -165 0 0
v -150 0 0
v -165 -15 0
v -180 -15 0
v -180 0 0
v -165 0 0
v -180 -15 0
v -195 -15 0
v -195 0 0
v -180 0 0
v -195 -15 0
v -210 -15 0
v -210 0 0
v -195 0 0
v -210 -15 0
v -225 -15 0
v -225 0 0
v -210 0 0
v -225 -15 0
v -240 -15 0
v -240 0 0
v -225 0 0
v -240 -15 0
v -255 -15 0
v -255 0 0
v -240 0 0
v -15 -30 0
v -30 -30 0
v -30 -15 0
v -15 -15 0
v -30 -30 0
v -45 -30 0
v -45 -15 0
v -30 -15 0
v -45 -30 0
v -60 -30 0
v -60 -15 0
v -45 -15 0
v -60 -30 0
v -75 -30 0
v -75 -15 0
v -60 -15 0
v -90 -30 0
v -105 -30 0
v -105 -15 0
v -90 -15 0
v -105 -30 0
v -120 -30 0
v -120 -15 0
v -105 -15 0
v -150 -30 0
v -165 -30 0
v -165 -15 0
v -150 -15 0
v -165 -30 0
v -180 -30 0
v -180 -15 0
v -165 -15 0
v -180 -30 0
v -195 -30 0
v -195 -15 0
v -180 -15 0
v -195 -30 0
v -210 -30 0
v -210 -15 0
v -195 -15 0
v -210 -30 0
v -225 -30 0
v -225 -15 0
v -210 -15 0
v -225 -30 0
v -240 -30 0
v -240 -15 0
v -225 -15 0
v -240 -30 0
v -255 -30 0
v -255 -15 0
v -240 -15 0
v -255 -30 0
v -270 -30 0
v -270 -15 0
v -255 -15 0
v -15 -45 0
v -30 -45 0
v -30 -30 0
v -15 -30 0
v -30 -45 0
v -45 -45 0
v -45 -30 0
v -30 -30 0
v -45 -45 0
v -60 -45 0
v -60 -30 0
v -45 -30 0
v -60 -45 0
v -75 -45 0
v -75 -30 0
v -60 -30 0
v -105 -45 0
v -120 -45 0
v -120 -30 0
v -105 -30 0
v -180 -45 0
v -195 -45 0
v -195 -30 0
v -180 -30 0
v -195 -45 0
v -210 -45 0
v -210 -30 0
v -195 -30 0
v -210 -45 0
v -225 -45 0
v -225 -30 0
v -210 -30 0
v -225 -45 0
v -240 -45 0
v -240 -30 0
v -225 -30 0
v -240 -45 0
v -255 -45 0
v -255 -30 0
v -240 -30 0
v -255 -45 0
v -270 -45 0
v -270 -30 0
v -255 -30 0
v -15 -60 0
v -30 -60 0
v -30 -45 0
v -15 -45 0
v -30 -60 0
v -45 -60 0
v -45 -45 0
v -30 -45 0
v -45 -60 0
v -60 -60 0
v -60 -45 0
v -45 -45 0
v -60 -60 0
v -75 -60 0
v -75 -45 0
v -60 -45 0
v -180 -60 0
v -195 -60 0
v -195 -45 0
v -180 -45 0
v -195 -60 0
v -210 -60 0
v -210 -45 0
v -195 -45 0
v -210 -60 0
v -225 -60 0
v -225 -45 0
v -210 -45 0
v -225 -60 0
v -240 -60 0
v -240 -45 0
v -225 -45 0
v -240 -60 0
v -255 -60 0
v -255 -45 0
v -240 -45 0
v -405 -60 0
v -420 -60 0
v -420 -45 0
v -405 -45 0
v -420 -60 0
v -435 -60 0
v -435 -45 0
v -420 -45 0
v -435 -60 0
v -450 -60 0
v -450 -45 0
v -435 -45 0
v 0 -75 0
v -15 -75 0
v -15 -60 0
v 0 -60 0
v -15 -75 0
v -30 -75 0
v -30 -60 0
v -15 -60 0
v -30 -75 0
v -45 -75 0
v -45 -60 0
v -30 -60 0
v -45 -75 0
v -60 -75 0
v -60 -60 0
v -45 -60 0
v -420 -75 0
v -435 -75 0
v -435 -60 0
v -420 -60 0
v -435 -75 0
v -450 -75 0
v -450 -60 0
v -435 -60 0
v -450 -75 0
v -465 -75 0
v -465 -60 0
v -450 -60 0
v -465 -75 0
v -480 -75 0
v -480 -60 0
v -465 -60 0
v 0 -90 0
v -15 -90 0
v -15 -75 0
v 0 -75 0
v -15 -90 0
v -30 -90 0
v -30 -75 0
v -15 -75 0
v -30 -90 0
v -45 -90 0
v -45 -75 0
v -30 -75 0
v -45 -90 0
v -60 -90 0
v -60 -75 0
v -45 -75 0
v -480 -90 0
v -495 -90 0
v -495 -75 0
v -480 -75 0
v -495 -90 0
v -510 -90 0
v -510 -75 0
v -495 -75 0
v -510 -90 0
v -525 -90 0
v -525 -75 0
v -510 -75 0
v -525 -90 0
v -540 -90 0
v -540 -75 0
v -525 -75 0
v -15 -105 0
v -30 -105 0
v -30 -90 0
v -15 -90 0
v -30 -105 0
v -45 -105 0
v -45 -90 0
v -30 -90 0
v -510 -105 0
v -525 -105 0
v -525 -90 0
v -510 -90 0
v -15 -120 0
v -30 -120 0
v -30 -105 0
v -15 -105 0
v -30 -120 0
v -45 -120 0
v -45 -105 0
v -30 -105 0
v -75 -120 0
v -90 -120 0
v -90 -105 0
v -75 -105 0
v -90 -120 0
v -105 -120 0
v -105 -105 0
v -90 -105 0
v -45 -135 0
v -60 -135 0
v -60 -120 0
v -45 -120 0
v -60 -135 0
v -75 -135 0
v -75 -120 0
v -60 -120 0
v -30 -150 0
v -45 -150 0
v -45 -135 0
v -30 -135 0
v -45 -150 0
v -60 -150 0
v -60 -135 0
v -45 -135 0
v -30 -165 0
v -45 -165 0
v -45 -150 0
v -30 -150 0
v -45 -165 0
v -60 -165 0
v -60 -150 0
v -45 -150 0
v -30 -180 0
v -45 -180 0
v -45 -165 0
v -30 -165 0
v -45 -180 0
v -60 -180 0
v -60 -165 0
v -45 -165 0
v -30 -195 0
v -45 -195 0
v -45 -180 0
v -30 -180 0
v -45 -195 0
v -60 -195 0
v -60 -180 0
v -45 -180 0
v -60 -195 0
v -75 -195 0
v -75 -180 0
v -60 -180 0
v -120 -270 0
v -135 -270 0
v -135 -255 0
v -120 -255 0
v -135 -270 0
v -150 -270 0
v -150 -255 0
v -135 -255 0
v -120 -285 0
v -135 -285 0
v -135 -270 0
v -120 -270 0
v -135 -285 0
v -150 -285 0
v -150 -270 0
v -135 -270 0
v -495 -300 0
v -510 -300 0
v -510 -285 0
v -495 -285 0
v -510 -300 0
v -525 -300 0
v -525 -285 0
v -510 -285 0
v -525 -300 0
v -540 -300 0
v -540 -285 0
v -525 -285 0
v -540 -300 0
v -555 -300 0
v -555 -285 0
v -540 -285 0
v -555 -300 0
v -570 -300 0
v -570 -285 0
v -555 -285 0
v -570 -300 0
v -585 -300 0
v -585 -285 0
v -570 -285 0
v -585 -300 0
v -600 -300 0
v -600 -285 0
v -585 -285 0
v -495 -315 0
v -510 -315 0
v -510 -300 0
v -495 -300 0
v -510 -315 0
v -525 -315 0
v -525 -300 0
v -510 -300 0
v -525 -315 0
v -540 -315 0
v -540 -300 0
v -525 -300 0
v -540 -315 0
v -555 -315 0
v -555 -300 0
v -540 -300 0
v -555 -315 0
v -570 -315 0
v -570 -300 0
v -555 -300 0
v -570 -315 0
v -585 -315 0
v -585 -300 0
v -570 -300 0
v -585 -315 0
v -600 -315 0
v -600 -300 0
v -585 -300 0
v -465 -330 0
v -480 -330 0
v -480 -315 0
v -465 -315 0
v -480 -330 0
v -495 -330 0
v -495 -315 0
v -480 -315 0
v -465 -345 0
v -480 -345 0
v -480 -330 0
v -465 -330 0
v -480 -345 0
v -495 -345 0
v -495 -330 0
v -480 -330 0
v -15 -465 0
v -30 -465 0
v -30 -450 0
v -15 -450 0
v -30 -465 0
v -45 -465 0
v -45 -450 0
v -30 -450 0
v -15 -480 0
v -30 -480 0
v -30 -465 0
v -15 -465 0
v -30 -480 0
v -45 -480 0
v -45 -465 0
v -30 -465 0
v -75 -525 0
v -90 -525 0
v -90 -510 0
v -75 -510 0
v -90 -525 0
v -105 -525 0
v -105 -510 0
v -90 -510 0
v -105 -525 0
v -120 -525 0
v -120 -510 0
v -105 -510 0
v -120 -525 0
v -135 -525 0
v -135 -510 0
v -120 -510 0
v -135 -525 0
v -150 -525 0
v -150 -510 0
v -135 -510 0
v -150 -525 0
v -165 -525 0
v -165 -510 0
v -150 -510 0
v -165 -525 0
v -180 -525 0
v -180 -510 0
v -165 -510 0
v -180 -525 0
v -195 -525 0
v -195 -510 0
v -180 -510 0
v -195 -525 0
v -210 -525 0
v -210 -510 0
v -195 -510 0
v -210 -525 0
v -225 -525 0
v -225 -510 0
v -210 -510 0
v -225 -525 0
v -240 -525 0
v -240 -510 0
v -225 -510 0
v -240 -525 0
v -255 -525 0
v -255 -510 0
v -240 -510 0
v -75 -540 0
v -90 -540 0
v -90 -525 0
v -75 -525 0
v -90 -540 0
v -105 -540 0
v -105 -525 0
v -90 -525 0
v -105 -540 0
v -120 -540 0
v -120 -525 0
v -105 -525 0
v -120 -540 0
v -135 -540 0
v -135 -525 0
v -120 -525 0
v -135 -540 0
v -150 -540 0
v -150 -525 0
v -135 -525 0
v -150 -540 0
v -165 -540 0
v -165 -525 0
v -150 -525 0
v -165 -540 0
v -180 -540 0
v -180 -525 0
v -165 -525 0
v -180 -540 0
v -195 -540 0
v -195 -525 0
v -180 -525 0
v -195 -540 0
v -210 -540 0
v -210 -525 0
v -195 -525 0
v -210 -540 0
v -225 -540 0
v -225 -525 0
v -210 -525 0
v -225 -540 0
v -240 -540 0
v -240 -525 0
v -225 -525 0
v -240 -540 0
v -255 -540 0
v -255 -525 0
v -240 -525 0
v -75 -555 0
v -90 -555 0
v -90 -540 0
v -75 -540 0
v -90 -555 0
v -105 -555 0
v -105 -540 0
v -90 -540 0
v -105 -555 0
v -120 -555 0
v -120 -540 0
v -105 -540 0
v -120 -555 0
v -135 -555 0
v -135 -540 0
v -120 -540 0
v -135 -555 0
v -150 -555 0
v -150 -540 0
v -135 -540 0
v -150 -555 0
v -165 -555 0
v -165 -540 0
v -150 -540 0
v -165 -555 0
v -180 -555 0
v -180 -540 0
v -165 -540 0
v -180 -555 0
v -195 -555 0
v -195 -540 0
v -180 -540 0
v -195 -555 0
v -210 -555 0
v -210 -540 0
v -195 -540 0
v -210 -555 0
v -225 -555 0
v -225 -540 0
v -210 -540 0
v -225 -555 0
v -240 -555 0
v -240 -540 0
v -225 -540 0
v -240 -555 0
v -255 -555 0
v -255 -540 0
v -240 -540 0
v -75 -570 0
v -90 -570 0
v -90 -555 0
v -75 -555 0
v -90 -570 0
v -105 -570 0
v -105 -555 0
v -90 -555 0
v -105 -570 0
v -120 -570 0
v -120 -555 0
v -105 -555 0
v -120 -570 0
v -135 -570 0
v -135 -555 0
v -120 -555 0
v -135 -570 0
v -150 -570 0
v -150 -555 0
v -135 -555 0
v -150 -570 0
v -165 -570 0
v -165 -555 0
v -150 -555 0
v -165 -570 0
v -180 -570 0
v -180 -555 0
v -165 -555 0
v -180 -570 0
v -195 -570 0
v -195 -555 0
v -180 -555 0
v -195 -570 0
v -210 -570 0
v -210 -555 0
v -195 -555 0
v -210 -570 0
v -225 -570 0
v -225 -555 0
v -210 -555 0
v -225 -570 0
v -240 -570 0
v -240 -555 0
v -225 -555 0
v -240 -570 0
v -255 -570 0
v -255 -555 0
v -240 -555 0
v -255 -570 0
v -270 -570 0
v -270 -555 0
v -255 -555 0
v -270 -570 0
v -285 -570 0
v -285 -555 0
v -270 -555 0
v -285 -570 0
v -300 -570 0
v -300 -555 0
v -285 -555 0
v -300 -570 0
v -315 -570 0
v -315 -555 0
v -300 -555 0
v -75 -585 0
v -90 -585 0
v -90 -570 0
v -75 -570 0
v -90 -585 0
v -105 -585 0
v -105 -570 0
v -90 -570 0
v -105 -585 0
v -120 -585 0
v -120 -570 0
v -105 -570 0
v -120 -585 0
v -135 -585 0
v -135 -570 0
v -120 -570 0
v -135 -585 0
v -150 -585 0
v -150 -570 0
v -135 -570 0
v -150 -585 0
v -165 -585 0
v -165 -570 0
v -150 -570 0
v -165 -585 0
v -180 -585 0
v -180 -570 0
v -165 -570 0
v -180 -585 0
v -195 -585 0
v -195 -570 0
v -180 -570 0
v -195 -585 0
v -210 -585 0
v -210 -570 0
v -195 -570 0
v -210 -585 0
v -225 -585 0
v -225 -570 0
v -210 -570 0
v -225 -585 0
v -240 -585 0
v -240 -570 0
v -225 -570 0
v -240 -585 0
v -255 -585 0
v -255 -570 0
v -240 -570 0
v -255 -585 0
v -270 -585 0
v -270 -570 0
v -255 -570 0
v -270 -585 0
v -285 -585 0
v -285 -570 0
v -270 -570 0
v -285 -585 0
v -300 -585 0
v -300 -570 0
v -285 -570 0
v -300 -585 0
v -315 -585 0
v -315 -570 0
v -300 -570 0
v -315 -585 0
v -330 -585 0
v -330 -570 0
v -315 -570 0
v -330 -585 0
v -345 -585 0
v -345 -570 0
v -330 -570 0
v -75 -600 0
v -90 -600 0
v -90 -585 0
v -75 -585 0
v -90 -600 0
v -105 -600 0
v -105 -585 0
v -90 -585 0
v -105 -600 0
v -120 -600 0
v -120 -585 0
v -105 -585 0
v -120 -600 0
v -135 -600 0
v -135 -585 0
v -120 -585 0
v -135 -600 0
v -150 -600 0
v -150 -585 0
v -135 -585 0
v -150 -600 0
v -165 -600 0
v -165 -585 0
v -150 -585 0
v -165 -600 0
v -180 -600 0
v -180 -585 0
v -165 -585 0
v -180 -600 0
v -195 -600 0
v -195 -585 0
v -180 -585 0
v -195 -600 0
v -210 -600 0
v -210 -585 0
v -195 -585 0
v -210 -600 0
v -225 -600 0
v -225 -585 0
v -210 -585 0
v -225 -600 0
v -240 -600 0
v -240 -585 0
v -225 -585 0
v -240 -600 0
v -255 -600 0
v -255 -585 0
v -240 -585 0
v -255 -600 0
v -270 -600 0
v -270 -585 0
v -255 -585 0
v -270 -600 0
v -285 -600 0
v -285 -585 0
v -270 -585 0
v -285 -600 0
v -300 -600 0
v -300 -585 0
v -285 -585 0
v -300 -600 0
v -315 -600 0
v -315 -585 0
v -300 -585 0
v -315 -600 0
v -330 -600 0
v -330 -585 0
v -315 -585 0
v -330 -600 0
v -345 -600 0
v -345 -585 0
v -330 -585 0

# Texture cooridinates (Count = 52)
vt 0.66875 0.4375
vt 0.7 0.4375
vt 0.7 0.4960938
vt 0.66875 0.4960938
vt 0.66875 0.375
vt 0.7 0.375
vt 0.7 0.4335938
vt 0.66875 0.4335938
vt 0.6354167 0.4375
vt 0.6666667 0.4375
vt 0.6666667 0.4960938
vt 0.6354167 0.4960938
vt 0.6354167 0.375
vt 0.6666667 0.375
vt 0.6666667 0.4335938
vt 0.6354167 0.4335938
vt 0.6020833 0.375
vt 0.6333333 0.375
vt 0.6333333 0.4335938
vt 0.6020833 0.4335938
vt 0.8020833 0.9375
vt 0.8333333 0.9375
vt 0.8333333 0.9960938
vt 0.8020833 0.9960938
vt 0.8354167 0.9375
vt 0.8666667 0.9375
vt 0.8666667 0.9960938
vt 0.8354167 0.9960938
vt 0.8020833 0.875
vt 0.8333333 0.875
vt 0.8333333 0.9335938
vt 0.8020833 0.9335938
vt 0.8354167 0.875
vt 0.8666667 0.875
vt 0.8666667 0.9335938
vt 0.8354167 0.9335938
vt 0.7354167 0.4375
vt 0.7666667 0.4375
vt 0.7666667 0.4960938
vt 0.7354167 0.4960938
vt 0.76875 0.4375
vt 0.8 0.4375
vt 0.8 0.4960938
vt 0.76875 0.4960938
vt 0.7354167 0.375
vt 0.7666667 0.375
vt 0.7666667 0.4335938
vt 0.7354167 0.4335938
vt 0.76875 0.375
vt 0.8 0.375
vt 0.8 0.4335938
vt 0.76875 0.4335938

# Normal
vn 0 0 -1

# Mesh description
g map1-1_mesh_0003

# Faces
f 1/1/1 2/2/1 3/3/1 4/4/1
f 5/1/1 6/2/1 7/3/1 8/4/1
f 9/1/1 10/2/1 11/3/1 12/4/1
f 13/1/1 14/2/1 15/3/1 16/4/1
f 17/1/1 18/2/1 19/3/1 20/4/1
f 21/1/1 22/2/1 23/3/1 24/4/1
f 25/1/1 26/2/1 27/3/1 28/4/1
f 29/1/1 30/2/1 31/3/1 32/4/1
f 33/1/1 34/2/1 35/3/1 36/4/1
f 37/1/1 38/2/1 39/3/1 40/4/1
f 41/1/1 42/2/1 43/3/1 44/4/1
f 45/1/1 46/2/1 47/3/1 48/4/1
f 49/5/1 50/6/1 51/7/1 52/8/1
f 53/5/1 54/6/1 55/7/1 56/8/1
f 57/5/1 58/6/1 59/7/1 60/8/1
f 61/5/1 62/6/1 63/7/1 64/8/1
f 65/5/1 66/6/1 67/7/1 68/8/1
f 69/1/1 70/2/1 71/3/1 72/4/1
f 73/5/1 74/6/1 75/7/1 76/8/1
f 77/5/1 78/6/1 79/7/1 80/8/1
f 81/5/1 82/6/1 83/7/1 84/8/1
f 85/5/1 86/6/1 87/7/1 88/8/1
f 89/5/1 90/6/1 91/7/1 92/8/1
f 93/5/1 94/6/1 95/7/1 96/8/1
f 97/5/1 98/6/1 99/7/1 100/8/1
f 101/1/1 102/2/1 103/3/1 104/4/1
f 105/1/1 106/2/1 107/3/1 108/4/1
f 109/1/1 110/2/1 111/3/1 112/4/1
f 113/1/1 114/2/1 115/3/1 116/4/1
f 117/1/1 118/2/1 119/3/1 120/4/1
f 121/5/1 122/6/1 123/7/1 124/8/1
f 125/1/1 126/2/1 127/3/1 128/4/1
f 129/1/1 130/2/1 131/3/1 132/4/1
f 133/1/1 134/2/1 135/3/1 136/4/1
f 137/1/1 138/2/1 139/3/1 140/4/1
f 141/1/1 142/2/1 143/3/1 144/4/1
f 145/5/1 146/6/1 147/7/1 148/8/1
f 149/5/1 150/6/1 151/7/1 152/8/1
f 153/5/1 154/6/1 155/7/1 156/8/1
f 157/5/1 158/6/1 159/7/1 160/8/1
f 161/5/1 162/6/1 163/7/1 164/8/1
f 165/5/1 166/6/1 167/7/1 168/8/1
f 169/5/1 170/6/1 171/7/1 172/8/1
f 173/5/1 174/6/1 175/7/1 176/8/1
f 177/5/1 178/6/1 179/7/1 180/8/1
f 181/5/1 182/6/1 183/7/1 184/8/1
f 185/9/1 186/10/1 187/11/1 188/12/1
f 189/9/1 190/10/1 191/11/1 192/12/1
f 193/9/1 194/10/1 195/11/1 196/12/1
f 197/1/1 198/2/1 199/3/1 200/4/1
f 201/1/1 202/2/1 203/3/1 204/4/1
f 205/1/1 206/2/1 207/3/1 208/4/1
f 209/1/1 210/2/1 211/3/1 212/4/1
f 213/13/1 214/14/1 215/15/1 216/16/1
f 217/9/1 218/10/1 219/11/1 220/12/1
f 221/9/1 222/10/1 223/11/1 224/12/1
f 225/9/1 226/10/1 227/11/1 228/12/1
f 229/5/1 230/6/1 231/7/1 232/8/1
f 233/5/1 234/6/1 235/7/1 236/8/1
f 237/5/1 238/6/1 239/7/1 240/8/1
f 241/5/1 242/6/1 243/7/1 244/8/1
f 245/9/1 246/10/1 247/11/1 248/12/1
f 249/13/1 250/14/1 251/15/1 252/16/1
f 253/13/1 254/14/1 255/15/1 256/16/1
f 257/13/1 258/14/1 259/15/1 260/16/1
f 261/1/1 262/2/1 263/3/1 264/4/1
f 265/1/1 266/2/1 267/3/1 268/4/1
f 269/9/1 270/10/1 271/11/1 272/12/1
f 273/5/1 274/6/1 275/7/1 276/8/1
f 277/5/1 278/6/1 279/7/1 280/8/1
f 281/17/1 282/18/1 283/19/1 284/20/1
f 285/17/1 286/18/1 287/19/1 288/20/1
f 289/13/1 290/14/1 291/15/1 292/16/1
f 293/13/1 294/14/1 295/15/1 296/16/1
f 297/13/1 298/14/1 299/15/1 300/16/1
f 301/13/1 302/14/1 303/15/1 304/16/1
f 305/13/1 306/14/1 307/15/1 308/16/1
f 309/13/1 310/14/1 311/15/1 312/16/1
f 313/13/1 314/14/1 315/15/1 316/16/1
f 317/13/1 318/14/1 319/15/1 320/16/1
f 321/13/1 322/14/1 323/15/1 324/16/1
f 325/13/1 326/14/1 327/15/1 328/16/1
f 329/13/1 330/14/1 331/15/1 332/16/1
f 333/21/1 334/22/1 335/23/1 336/24/1
f 337/25/1 338/26/1 339/27/1 340/28/1
f 341/29/1 342/30/1 343/31/1 344/32/1
f 345/33/1 346/34/1 347/35/1 348/36/1
f 349/37/1 350/38/1 351/39/1 352/40/1
f 353/41/1 354/42/1 355/43/1 356/44/1
f 357/37/1 358/38/1 359/39/1 360/40/1
f 361/41/1 362/42/1 363/43/1 364/44/1
f 365/37/1 366/38/1 367/39/1 368/40/1
f 369/41/1 370/42/1 371/43/1 372/44/1
f 373/37/1 374/38/1 375/39/1 376/40/1
f 377/45/1 378/46/1 379/47/1 380/48/1
f 381/49/1 382/50/1 383/51/1 384/52/1
f 385/45/1 386/46/1 387/47/1 388/48/1
f 389/49/1 390/50/1 391/51/1 392/52/1
f 393/45/1 394/46/1 395/47/1 396/48/1
f 397/49/1 398/50/1 399/51/1 400/52/1
f 401/45/1 402/46/1 403/47/1 404/48/1
f 405/37/1 406/38/1 407/39/1 408/40/1
f 409/41/1 410/42/1 411/43/1 412/44/1
f 413/45/1 414/46/1 415/47/1 416/48/1
f 417/49/1 418/50/1 419/51/1 420/52/1
f 421/37/1 422/38/1 423/39/1 424/40/1
f 425/41/1 426/42/1 427/43/1 428/44/1
f 429/45/1 430/46/1 431/47/1 432/48/1
f 433/49/1 434/50/1 435/51/1 436/52/1
f 437/37/1 438/38/1 439/39/1 440/40/1
f 441/41/1 442/42/1 443/43/1 444/44/1
f 445/37/1 446/38/1 447/39/1 448/40/1
f 449/41/1 450/42/1 451/43/1 452/44/1
f 453/37/1 454/38/1 455/39/1 456/40/1
f 457/41/1 458/42/1 459/43/1 460/44/1
f 461/37/1 462/38/1 463/39/1 464/40/1
f 465/41/1 466/42/1 467/43/1 468/44/1
f 469/37/1 470/38/1 471/39/1 472/40/1
f 473/41/1 474/42/1 475/43/1 476/44/1
f 477/37/1 478/38/1 479/39/1 480/40/1
f 481/41/1 482/42/1 483/43/1 484/44/1
f 485/45/1 486/46/1 487/47/1 488/48/1
f 489/49/1 490/50/1 491/51/1 492/52/1
f 493/45/1 494/46/1 495/47/1 496/48/1
f 497/49/1 498/50/1 499/51/1 500/52/1
f 501/45/1 502/46/1 503/47/1 504/48/1
f 505/49/1 506/50/1 507/51/1 508/52/1
f 509/45/1 510/46/1 511/47/1 512/48/1
f 513/49/1 514/50/1 515/51/1 516/52/1
f 517/45/1 518/46/1 519/47/1 520/48/1
f 521/49/1 522/50/1 523/51/1 524/52/1
f 525/45/1 526/46/1 527/47/1 528/48/1
f 529/49/1 530/50/1 531/51/1 532/52/1
f 533/37/1 534/38/1 535/39/1 536/40/1
f 537/41/1 538/42/1 539/43/1 540/44/1
f 541/37/1 542/38/1 543/39/1 544/40/1
f 545/41/1 546/42/1 547/43/1 548/44/1
f 549/37/1 550/38/1 551/39/1 552/40/1
f 553/41/1 554/42/1 555/43/1 556/44/1
f 557/37/1 558/38/1 559/39/1 560/40/1
f 561/41/1 562/42/1 563/43/1 564/44/1
f 565/37/1 566/38/1 567/39/1 568/40/1
f 569/41/1 570/42/1 571/43/1 572/44/1
f 573/37/1 574/38/1 575/39/1 576/40/1
f 577/41/1 578/42/1 579/43/1 580/44/1
f 581/45/1 582/46/1 583/47/1 584/48/1
f 585/49/1 586/50/1 587/51/1 588/52/1
f 589/45/1 590/46/1 591/47/1 592/48/1
f 593/49/1 594/50/1 595/51/1 596/52/1
f 597/45/1 598/46/1 599/47/1 600/48/1
f 601/49/1 602/50/1 603/51/1 604/52/1
f 605/45/1 606/46/1 607/47/1 608/48/1
f 609/49/1 610/50/1 611/51/1 612/52/1
f 613/45/1 614/46/1 615/47/1 616/48/1
f 617/49/1 618/50/1 619/51/1 620/52/1
f 621/45/1 622/46/1 623/47/1 624/48/1
f 625/49/1 626/50/1 627/51/1 628/52/1
f 629/37/1 630/38/1 631/39/1 632/40/1
f 633/41/1 634/42/1 635/43/1 636/44/1
f 637/37/1 638/38/1 639/39/1 640/40/1
f 641/41/1 642/42/1 643/43/1 644/44/1
f 645/37/1 646/38/1 647/39/1 648/40/1
f 649/41/1 650/42/1 651/43/1 652/44/1
f 653/37/1 654/38/1 655/39/1 656/40/1
f 657/41/1 658/42/1 659/43/1 660/44/1
f 661/37/1 662/38/1 663/39/1 664/40/1
f 665/41/1 666/42/1 667/43/1 668/44/1
f 669/37/1 670/38/1 671/39/1 672/40/1
f 673/41/1 674/42/1 675/43/1 676/44/1
f 677/37/1 678/38/1 679/39/1 680/40/1
f 681/41/1 682/42/1 683/43/1 684/44/1
f 685/37/1 686/38/1 687/39/1 688/40/1
f 689/41/1 690/42/1 691/43/1 692/44/1
f 693/45/1 694/46/1 695/47/1 696/48/1
f 697/49/1 698/50/1 699/51/1 700/52/1
f 701/45/1 702/46/1 703/47/1 704/48/1
f 705/49/1 706/50/1 707/51/1 708/52/1
f 709/37/1 710/38/1 711/39/1 712/40/1
f 713/41/1 714/42/1 715/43/1 716/44/1
f 717/45/1 718/46/1 719/47/1 720/48/1
f 721/49/1 722/50/1 723/51/1 724/52/1
f 725/45/1 726/46/1 727/47/1 728/48/1
f 729/49/1 730/50/1 731/51/1 732/52/1
f 733/45/1 734/46/1 735/47/1 736/48/1
f 737/49/1 738/50/1 739/51/1 740/52/1
f 741/45/1 742/46/1 743/47/1 744/48/1
f 745/49/1 746/50/1 747/51/1 748/52/1
f 749/45/1 750/46/1 751/47/1 752/48/1
f 753/49/1 754/50/1 755/51/1 756/52/1
f 757/45/1 758/46/1 759/47/1 760/48/1
f 761/49/1 762/50/1 763/51/1 764/52/1
f 765/37/1 766/38/1 767/39/1 768/40/1
f 769/41/1 770/42/1 771/43/1 772/44/1
f 773/37/1 774/38/1 775/39/1 776/40/1
f 777/41/1 778/42/1 779/43/1 780/44/1
f 781/45/1 782/46/1 783/47/1 784/48/1
f 785/49/1 786/50/1 787/51/1 788/52/1

