# Tiled2Unity generated file. Do not modify by hand.
# Wavefront file for 'map1-1_mesh_0003.obj'

# Vertices (Count = 784)
v -15 -15 0
v -30 -15 0
v -30 0 0
v -15 0 0
v -30 -15 0
v -45 -15 0
v -45 0 0
v -30 0 0
v -45 -15 0
v -60 -15 0
v -60 0 0
v -45 0 0
v -60 -15 0
v -75 -15 0
v -75 0 0
v -60 0 0
v -90 -15 0
v -105 -15 0
v -105 0 0
v -90 0 0
v -150 -15 0
v -165 -15 0
v -165 0 0
v -150 0 0
v -165 -15 0
v -180 -15 0
v -180 0 0
v -165 0 0
v -180 -15 0
v -195 -15 0
v -195 0 0
v -180 0 0
v -195 -15 0
v -210 -15 0
v -210 0 0
v -195 0 0
v -210 -15 0
v -225 -15 0
v -225 0 0
v -210 0 0
v -225 -15 0
v -240 -15 0
v -240 0 0
v -225 0 0
v -240 -15 0
v -255 -15 0
v -255 0 0
v -240 0 0
v -15 -30 0
v -30 -30 0
v -30 -15 0
v -15 -15 0
v -30 -30 0
v -45 -30 0
v -45 -15 0
v -30 -15 0
v -45 -30 0
v -60 -30 0
v -60 -15 0
v -45 -15 0
v -60 -30 0
v -75 -30 0
v -75 -15 0
v -60 -15 0
v -90 -30 0
v -105 -30 0
v -105 -15 0
v -90 -15 0
v -105 -30 0
v -120 -30 0
v -120 -15 0
v -105 -15 0
v -150 -30 0
v -165 -30 0
v -165 -15 0
v -150 -15 0
v -165 -30 0
v -180 -30 0
v -180 -15 0
v -165 -15 0
v -180 -30 0
v -195 -30 0
v -195 -15 0
v -180 -15 0
v -195 -30 0
v -210 -30 0
v -210 -15 0
v -195 -15 0
v -210 -30 0
v -225 -30 0
v -225 -15 0
v -210 -15 0
v -225 -30 0
v -240 -30 0
v -240 -15 0
v -225 -15 0
v -240 -30 0
v -255 -30 0
v -255 -15 0
v -240 -15 0
v -255 -30 0
v -270 -30 0
v -270 -15 0
v -255 -15 0
v -15 -45 0
v -30 -45 0
v -30 -30 0
v -15 -30 0
v -30 -45 0
v -45 -45 0
v -45 -30 0
v -30 -30 0
v -45 -45 0
v -60 -45 0
v -60 -30 0
v -45 -30 0
v -60 -45 0
v -75 -45 0
v -75 -30 0
v -60 -30 0
v -105 -45 0
v -120 -45 0
v -120 -30 0
v -105 -30 0
v -180 -45 0
v -195 -45 0
v -195 -30 0
v -180 -30 0
v -195 -45 0
v -210 -45 0
v -210 -30 0
v -195 -30 0
v -210 -45 0
v -225 -45 0
v -225 -30 0
v -210 -30 0
v -225 -45 0
v -240 -45 0
v -240 -30 0
v -225 -30 0
v -240 -45 0
v -255 -45 0
v -255 -30 0
v -240 -30 0
v -255 -45 0
v -270 -45 0
v -270 -30 0
v -255 -30 0
v -15 -60 0
v -30 -60 0
v -30 -45 0
v -15 -45 0
v -30 -60 0
v -45 -60 0
v -45 -45 0
v -30 -45 0
v -45 -60 0
v -60 -60 0
v -60 -45 0
v -45 -45 0
v -60 -60 0
v -75 -60 0
v -75 -45 0
v -60 -45 0
v -180 -60 0
v -195 -60 0
v -195 -45 0
v -180 -45 0
v -195 -60 0
v -210 -60 0
v -210 -45 0
v -195 -45 0
v -210 -60 0
v -225 -60 0
v -225 -45 0
v -210 -45 0
v -225 -60 0
v -240 -60 0
v -240 -45 0
v -225 -45 0
v -240 -60 0
v -255 -60 0
v -255 -45 0
v -240 -45 0
v -405 -60 0
v -420 -60 0
v -420 -45 0
v -405 -45 0
v -420 -60 0
v -435 -60 0
v -435 -45 0
v -420 -45 0
v -435 -60 0
v -450 -60 0
v -450 -45 0
v -435 -45 0
v 0 -75 0
v -15 -75 0
v -15 -60 0
v 0 -60 0
v -15 -75 0
v -30 -75 0
v -30 -60 0
v -15 -60 0
v -30 -75 0
v -45 -75 0
v -45 -60 0
v -30 -60 0
v -45 -75 0
v -60 -75 0
v -60 -60 0
v -45 -60 0
v -420 -75 0
v -435 -75 0
v -435 -60 0
v -420 -60 0
v -435 -75 0
v -450 -75 0
v -450 -60 0
v -435 -60 0
v -450 -75 0
v -465 -75 0
v -465 -60 0
v -450 -60 0
v -465 -75 0
v -480 -75 0
v -480 -60 0
v -465 -60 0
v 0 -90 0
v -15 -90 0
v -15 -75 0
v 0 -75 0
v -15 -90 0
v -30 -90 0
v -30 -75 0
v -15 -75 0
v -30 -90 0
v -45 -90 0
v -45 -75 0
v -30 -75 0
v -45 -90 0
v -60 -90 0
v -60 -75 0
v -45 -75 0
v -480 -90 0
v -495 -90 0
v -495 -75 0
v -480 -75 0
v -495 -90 0
v -510 -90 0
v -510 -75 0
v -495 -75 0
v -510 -90 0
v -525 -90 0
v -525 -75 0
v -510 -75 0
v -525 -90 0
v -540 -90 0
v -540 -75 0
v -525 -75 0
v -15 -105 0
v -30 -105 0
v -30 -90 0
v -15 -90 0
v -30 -105 0
v -45 -105 0
v -45 -90 0
v -30 -90 0
v -510 -105 0
v -525 -105 0
v -525 -90 0
v -510 -90 0
v -15 -120 0
v -30 -120 0
v -30 -105 0
v -15 -105 0
v -30 -120 0
v -45 -120 0
v -45 -105 0
v -30 -105 0
v -60 -120 0
v -75 -120 0
v -75 -105 0
v -60 -105 0
v -75 -120 0
v -90 -120 0
v -90 -105 0
v -75 -105 0
v -45 -135 0
v -60 -135 0
v -60 -120 0
v -45 -120 0
v -60 -135 0
v -75 -135 0
v -75 -120 0
v -60 -120 0
v -30 -150 0
v -45 -150 0
v -45 -135 0
v -30 -135 0
v -45 -150 0
v -60 -150 0
v -60 -135 0
v -45 -135 0
v -30 -165 0
v -45 -165 0
v -45 -150 0
v -30 -150 0
v -45 -165 0
v -60 -165 0
v -60 -150 0
v -45 -150 0
v -30 -180 0
v -45 -180 0
v -45 -165 0
v -30 -165 0
v -45 -180 0
v -60 -180 0
v -60 -165 0
v -45 -165 0
v -30 -195 0
v -45 -195 0
v -45 -180 0
v -30 -180 0
v -45 -195 0
v -60 -195 0
v -60 -180 0
v -45 -180 0
v -105 -270 0
v -120 -270 0
v -120 -255 0
v -105 -255 0
v -120 -270 0
v -135 -270 0
v -135 -255 0
v -120 -255 0
v -105 -285 0
v -120 -285 0
v -120 -270 0
v -105 -270 0
v -120 -285 0
v -135 -285 0
v -135 -270 0
v -120 -270 0
v -495 -300 0
v -510 -300 0
v -510 -285 0
v -495 -285 0
v -510 -300 0
v -525 -300 0
v -525 -285 0
v -510 -285 0
v -525 -300 0
v -540 -300 0
v -540 -285 0
v -525 -285 0
v -540 -300 0
v -555 -300 0
v -555 -285 0
v -540 -285 0
v -555 -300 0
v -570 -300 0
v -570 -285 0
v -555 -285 0
v -570 -300 0
v -585 -300 0
v -585 -285 0
v -570 -285 0
v -585 -300 0
v -600 -300 0
v -600 -285 0
v -585 -285 0
v -495 -315 0
v -510 -315 0
v -510 -300 0
v -495 -300 0
v -510 -315 0
v -525 -315 0
v -525 -300 0
v -510 -300 0
v -525 -315 0
v -540 -315 0
v -540 -300 0
v -525 -300 0
v -540 -315 0
v -555 -315 0
v -555 -300 0
v -540 -300 0
v -555 -315 0
v -570 -315 0
v -570 -300 0
v -555 -300 0
v -570 -315 0
v -585 -315 0
v -585 -300 0
v -570 -300 0
v -585 -315 0
v -600 -315 0
v -600 -300 0
v -585 -300 0
v -465 -330 0
v -480 -330 0
v -480 -315 0
v -465 -315 0
v -480 -330 0
v -495 -330 0
v -495 -315 0
v -480 -315 0
v -465 -345 0
v -480 -345 0
v -480 -330 0
v -465 -330 0
v -480 -345 0
v -495 -345 0
v -495 -330 0
v -480 -330 0
v -15 -465 0
v -30 -465 0
v -30 -450 0
v -15 -450 0
v -30 -465 0
v -45 -465 0
v -45 -450 0
v -30 -450 0
v -15 -480 0
v -30 -480 0
v -30 -465 0
v -15 -465 0
v -30 -480 0
v -45 -480 0
v -45 -465 0
v -30 -465 0
v -75 -525 0
v -90 -525 0
v -90 -510 0
v -75 -510 0
v -90 -525 0
v -105 -525 0
v -105 -510 0
v -90 -510 0
v -105 -525 0
v -120 -525 0
v -120 -510 0
v -105 -510 0
v -120 -525 0
v -135 -525 0
v -135 -510 0
v -120 -510 0
v -135 -525 0
v -150 -525 0
v -150 -510 0
v -135 -510 0
v -150 -525 0
v -165 -525 0
v -165 -510 0
v -150 -510 0
v -165 -525 0
v -180 -525 0
v -180 -510 0
v -165 -510 0
v -180 -525 0
v -195 -525 0
v -195 -510 0
v -180 -510 0
v -195 -525 0
v -210 -525 0
v -210 -510 0
v -195 -510 0
v -210 -525 0
v -225 -525 0
v -225 -510 0
v -210 -510 0
v -225 -525 0
v -240 -525 0
v -240 -510 0
v -225 -510 0
v -240 -525 0
v -255 -525 0
v -255 -510 0
v -240 -510 0
v -75 -540 0
v -90 -540 0
v -90 -525 0
v -75 -525 0
v -90 -540 0
v -105 -540 0
v -105 -525 0
v -90 -525 0
v -105 -540 0
v -120 -540 0
v -120 -525 0
v -105 -525 0
v -120 -540 0
v -135 -540 0
v -135 -525 0
v -120 -525 0
v -135 -540 0
v -150 -540 0
v -150 -525 0
v -135 -525 0
v -150 -540 0
v -165 -540 0
v -165 -525 0
v -150 -525 0
v -165 -540 0
v -180 -540 0
v -180 -525 0
v -165 -525 0
v -180 -540 0
v -195 -540 0
v -195 -525 0
v -180 -525 0
v -195 -540 0
v -210 -540 0
v -210 -525 0
v -195 -525 0
v -210 -540 0
v -225 -540 0
v -225 -525 0
v -210 -525 0
v -225 -540 0
v -240 -540 0
v -240 -525 0
v -225 -525 0
v -240 -540 0
v -255 -540 0
v -255 -525 0
v -240 -525 0
v -75 -555 0
v -90 -555 0
v -90 -540 0
v -75 -540 0
v -90 -555 0
v -105 -555 0
v -105 -540 0
v -90 -540 0
v -105 -555 0
v -120 -555 0
v -120 -540 0
v -105 -540 0
v -120 -555 0
v -135 -555 0
v -135 -540 0
v -120 -540 0
v -135 -555 0
v -150 -555 0
v -150 -540 0
v -135 -540 0
v -150 -555 0
v -165 -555 0
v -165 -540 0
v -150 -540 0
v -165 -555 0
v -180 -555 0
v -180 -540 0
v -165 -540 0
v -180 -555 0
v -195 -555 0
v -195 -540 0
v -180 -540 0
v -195 -555 0
v -210 -555 0
v -210 -540 0
v -195 -540 0
v -210 -555 0
v -225 -555 0
v -225 -540 0
v -210 -540 0
v -225 -555 0
v -240 -555 0
v -240 -540 0
v -225 -540 0
v -240 -555 0
v -255 -555 0
v -255 -540 0
v -240 -540 0
v -75 -570 0
v -90 -570 0
v -90 -555 0
v -75 -555 0
v -90 -570 0
v -105 -570 0
v -105 -555 0
v -90 -555 0
v -105 -570 0
v -120 -570 0
v -120 -555 0
v -105 -555 0
v -120 -570 0
v -135 -570 0
v -135 -555 0
v -120 -555 0
v -135 -570 0
v -150 -570 0
v -150 -555 0
v -135 -555 0
v -150 -570 0
v -165 -570 0
v -165 -555 0
v -150 -555 0
v -165 -570 0
v -180 -570 0
v -180 -555 0
v -165 -555 0
v -180 -570 0
v -195 -570 0
v -195 -555 0
v -180 -555 0
v -195 -570 0
v -210 -570 0
v -210 -555 0
v -195 -555 0
v -210 -570 0
v -225 -570 0
v -225 -555 0
v -210 -555 0
v -225 -570 0
v -240 -570 0
v -240 -555 0
v -225 -555 0
v -240 -570 0
v -255 -570 0
v -255 -555 0
v -240 -555 0
v -255 -570 0
v -270 -570 0
v -270 -555 0
v -255 -555 0
v -270 -570 0
v -285 -570 0
v -285 -555 0
v -270 -555 0
v -285 -570 0
v -300 -570 0
v -300 -555 0
v -285 -555 0
v -300 -570 0
v -315 -570 0
v -315 -555 0
v -300 -555 0
v -75 -585 0
v -90 -585 0
v -90 -570 0
v -75 -570 0
v -90 -585 0
v -105 -585 0
v -105 -570 0
v -90 -570 0
v -105 -585 0
v -120 -585 0
v -120 -570 0
v -105 -570 0
v -120 -585 0
v -135 -585 0
v -135 -570 0
v -120 -570 0
v -135 -585 0
v -150 -585 0
v -150 -570 0
v -135 -570 0
v -150 -585 0
v -165 -585 0
v -165 -570 0
v -150 -570 0
v -165 -585 0
v -180 -585 0
v -180 -570 0
v -165 -570 0
v -180 -585 0
v -195 -585 0
v -195 -570 0
v -180 -570 0
v -195 -585 0
v -210 -585 0
v -210 -570 0
v -195 -570 0
v -210 -585 0
v -225 -585 0
v -225 -570 0
v -210 -570 0
v -225 -585 0
v -240 -585 0
v -240 -570 0
v -225 -570 0
v -240 -585 0
v -255 -585 0
v -255 -570 0
v -240 -570 0
v -255 -585 0
v -270 -585 0
v -270 -570 0
v -255 -570 0
v -270 -585 0
v -285 -585 0
v -285 -570 0
v -270 -570 0
v -285 -585 0
v -300 -585 0
v -300 -570 0
v -285 -570 0
v -300 -585 0
v -315 -585 0
v -315 -570 0
v -300 -570 0
v -315 -585 0
v -330 -585 0
v -330 -570 0
v -315 -570 0
v -330 -585 0
v -345 -585 0
v -345 -570 0
v -330 -570 0
v -75 -600 0
v -90 -600 0
v -90 -585 0
v -75 -585 0
v -90 -600 0
v -105 -600 0
v -105 -585 0
v -90 -585 0
v -105 -600 0
v -120 -600 0
v -120 -585 0
v -105 -585 0
v -120 -600 0
v -135 -600 0
v -135 -585 0
v -120 -585 0
v -135 -600 0
v -150 -600 0
v -150 -585 0
v -135 -585 0
v -150 -600 0
v -165 -600 0
v -165 -585 0
v -150 -585 0
v -165 -600 0
v -180 -600 0
v -180 -585 0
v -165 -585 0
v -180 -600 0
v -195 -600 0
v -195 -585 0
v -180 -585 0
v -195 -600 0
v -210 -600 0
v -210 -585 0
v -195 -585 0
v -210 -600 0
v -225 -600 0
v -225 -585 0
v -210 -585 0
v -225 -600 0
v -240 -600 0
v -240 -585 0
v -225 -585 0
v -240 -600 0
v -255 -600 0
v -255 -585 0
v -240 -585 0
v -255 -600 0
v -270 -600 0
v -270 -585 0
v -255 -585 0
v -270 -600 0
v -285 -600 0
v -285 -585 0
v -270 -585 0
v -285 -600 0
v -300 -600 0
v -300 -585 0
v -285 -585 0
v -300 -600 0
v -315 -600 0
v -315 -585 0
v -300 -585 0
v -315 -600 0
v -330 -600 0
v -330 -585 0
v -315 -585 0
v -330 -600 0
v -345 -600 0
v -345 -585 0
v -330 -585 0

# Texture cooridinates (Count = 52)
vt 0.66875 0.4375
vt 0.7 0.4375
vt 0.7 0.4960938
vt 0.66875 0.4960938
vt 0.66875 0.375
vt 0.7 0.375
vt 0.7 0.4335938
vt 0.66875 0.4335938
vt 0.6354167 0.4375
vt 0.6666667 0.4375
vt 0.6666667 0.4960938
vt 0.6354167 0.4960938
vt 0.6354167 0.375
vt 0.6666667 0.375
vt 0.6666667 0.4335938
vt 0.6354167 0.4335938
vt 0.6020833 0.375
vt 0.6333333 0.375
vt 0.6333333 0.4335938
vt 0.6020833 0.4335938
vt 0.8020833 0.9375
vt 0.8333333 0.9375
vt 0.8333333 0.9960938
vt 0.8020833 0.9960938
vt 0.8354167 0.9375
vt 0.8666667 0.9375
vt 0.8666667 0.9960938
vt 0.8354167 0.9960938
vt 0.8020833 0.875
vt 0.8333333 0.875
vt 0.8333333 0.9335938
vt 0.8020833 0.9335938
vt 0.8354167 0.875
vt 0.8666667 0.875
vt 0.8666667 0.9335938
vt 0.8354167 0.9335938
vt 0.7354167 0.4375
vt 0.7666667 0.4375
vt 0.7666667 0.4960938
vt 0.7354167 0.4960938
vt 0.76875 0.4375
vt 0.8 0.4375
vt 0.8 0.4960938
vt 0.76875 0.4960938
vt 0.7354167 0.375
vt 0.7666667 0.375
vt 0.7666667 0.4335938
vt 0.7354167 0.4335938
vt 0.76875 0.375
vt 0.8 0.375
vt 0.8 0.4335938
vt 0.76875 0.4335938

# Normal
vn 0 0 -1

# Mesh description
g map1-1_mesh_0003

# Faces
f 1/1/1 2/2/1 3/3/1 4/4/1
f 5/1/1 6/2/1 7/3/1 8/4/1
f 9/1/1 10/2/1 11/3/1 12/4/1
f 13/1/1 14/2/1 15/3/1 16/4/1
f 17/1/1 18/2/1 19/3/1 20/4/1
f 21/1/1 22/2/1 23/3/1 24/4/1
f 25/1/1 26/2/1 27/3/1 28/4/1
f 29/1/1 30/2/1 31/3/1 32/4/1
f 33/1/1 34/2/1 35/3/1 36/4/1
f 37/1/1 38/2/1 39/3/1 40/4/1
f 41/1/1 42/2/1 43/3/1 44/4/1
f 45/1/1 46/2/1 47/3/1 48/4/1
f 49/5/1 50/6/1 51/7/1 52/8/1
f 53/5/1 54/6/1 55/7/1 56/8/1
f 57/5/1 58/6/1 59/7/1 60/8/1
f 61/5/1 62/6/1 63/7/1 64/8/1
f 65/5/1 66/6/1 67/7/1 68/8/1
f 69/1/1 70/2/1 71/3/1 72/4/1
f 73/5/1 74/6/1 75/7/1 76/8/1
f 77/5/1 78/6/1 79/7/1 80/8/1
f 81/5/1 82/6/1 83/7/1 84/8/1
f 85/5/1 86/6/1 87/7/1 88/8/1
f 89/5/1 90/6/1 91/7/1 92/8/1
f 93/5/1 94/6/1 95/7/1 96/8/1
f 97/5/1 98/6/1 99/7/1 100/8/1
f 101/1/1 102/2/1 103/3/1 104/4/1
f 105/1/1 106/2/1 107/3/1 108/4/1
f 109/1/1 110/2/1 111/3/1 112/4/1
f 113/1/1 114/2/1 115/3/1 116/4/1
f 117/1/1 118/2/1 119/3/1 120/4/1
f 121/5/1 122/6/1 123/7/1 124/8/1
f 125/1/1 126/2/1 127/3/1 128/4/1
f 129/1/1 130/2/1 131/3/1 132/4/1
f 133/1/1 134/2/1 135/3/1 136/4/1
f 137/1/1 138/2/1 139/3/1 140/4/1
f 141/1/1 142/2/1 143/3/1 144/4/1
f 145/5/1 146/6/1 147/7/1 148/8/1
f 149/5/1 150/6/1 151/7/1 152/8/1
f 153/5/1 154/6/1 155/7/1 156/8/1
f 157/5/1 158/6/1 159/7/1 160/8/1
f 161/5/1 162/6/1 163/7/1 164/8/1
f 165/5/1 166/6/1 167/7/1 168/8/1
f 169/5/1 170/6/1 171/7/1 172/8/1
f 173/5/1 174/6/1 175/7/1 176/8/1
f 177/5/1 178/6/1 179/7/1 180/8/1
f 181/5/1 182/6/1 183/7/1 184/8/1
f 185/9/1 186/10/1 187/11/1 188/12/1
f 189/9/1 190/10/1 191/11/1 192/12/1
f 193/9/1 194/10/1 195/11/1 196/12/1
f 197/1/1 198/2/1 199/3/1 200/4/1
f 201/1/1 202/2/1 203/3/1 204/4/1
f 205/1/1 206/2/1 207/3/1 208/4/1
f 209/1/1 210/2/1 211/3/1 212/4/1
f 213/13/1 214/14/1 215/15/1 216/16/1
f 217/9/1 218/10/1 219/11/1 220/12/1
f 221/9/1 222/10/1 223/11/1 224/12/1
f 225/9/1 226/10/1 227/11/1 228/12/1
f 229/5/1 230/6/1 231/7/1 232/8/1
f 233/5/1 234/6/1 235/7/1 236/8/1
f 237/5/1 238/6/1 239/7/1 240/8/1
f 241/5/1 242/6/1 243/7/1 244/8/1
f 245/9/1 246/10/1 247/11/1 248/12/1
f 249/13/1 250/14/1 251/15/1 252/16/1
f 253/13/1 254/14/1 255/15/1 256/16/1
f 257/13/1 258/14/1 259/15/1 260/16/1
f 261/1/1 262/2/1 263/3/1 264/4/1
f 265/1/1 266/2/1 267/3/1 268/4/1
f 269/9/1 270/10/1 271/11/1 272/12/1
f 273/5/1 274/6/1 275/7/1 276/8/1
f 277/5/1 278/6/1 279/7/1 280/8/1
f 281/17/1 282/18/1 283/19/1 284/20/1
f 285/17/1 286/18/1 287/19/1 288/20/1
f 289/13/1 290/14/1 291/15/1 292/16/1
f 293/13/1 294/14/1 295/15/1 296/16/1
f 297/13/1 298/14/1 299/15/1 300/16/1
f 301/13/1 302/14/1 303/15/1 304/16/1
f 305/13/1 306/14/1 307/15/1 308/16/1
f 309/13/1 310/14/1 311/15/1 312/16/1
f 313/13/1 314/14/1 315/15/1 316/16/1
f 317/13/1 318/14/1 319/15/1 320/16/1
f 321/13/1 322/14/1 323/15/1 324/16/1
f 325/13/1 326/14/1 327/15/1 328/16/1
f 329/21/1 330/22/1 331/23/1 332/24/1
f 333/25/1 334/26/1 335/27/1 336/28/1
f 337/29/1 338/30/1 339/31/1 340/32/1
f 341/33/1 342/34/1 343/35/1 344/36/1
f 345/37/1 346/38/1 347/39/1 348/40/1
f 349/41/1 350/42/1 351/43/1 352/44/1
f 353/37/1 354/38/1 355/39/1 356/40/1
f 357/41/1 358/42/1 359/43/1 360/44/1
f 361/37/1 362/38/1 363/39/1 364/40/1
f 365/41/1 366/42/1 367/43/1 368/44/1
f 369/37/1 370/38/1 371/39/1 372/40/1
f 373/45/1 374/46/1 375/47/1 376/48/1
f 377/49/1 378/50/1 379/51/1 380/52/1
f 381/45/1 382/46/1 383/47/1 384/48/1
f 385/49/1 386/50/1 387/51/1 388/52/1
f 389/45/1 390/46/1 391/47/1 392/48/1
f 393/49/1 394/50/1 395/51/1 396/52/1
f 397/45/1 398/46/1 399/47/1 400/48/1
f 401/37/1 402/38/1 403/39/1 404/40/1
f 405/41/1 406/42/1 407/43/1 408/44/1
f 409/45/1 410/46/1 411/47/1 412/48/1
f 413/49/1 414/50/1 415/51/1 416/52/1
f 417/37/1 418/38/1 419/39/1 420/40/1
f 421/41/1 422/42/1 423/43/1 424/44/1
f 425/45/1 426/46/1 427/47/1 428/48/1
f 429/49/1 430/50/1 431/51/1 432/52/1
f 433/37/1 434/38/1 435/39/1 436/40/1
f 437/41/1 438/42/1 439/43/1 440/44/1
f 441/37/1 442/38/1 443/39/1 444/40/1
f 445/41/1 446/42/1 447/43/1 448/44/1
f 449/37/1 450/38/1 451/39/1 452/40/1
f 453/41/1 454/42/1 455/43/1 456/44/1
f 457/37/1 458/38/1 459/39/1 460/40/1
f 461/41/1 462/42/1 463/43/1 464/44/1
f 465/37/1 466/38/1 467/39/1 468/40/1
f 469/41/1 470/42/1 471/43/1 472/44/1
f 473/37/1 474/38/1 475/39/1 476/40/1
f 477/41/1 478/42/1 479/43/1 480/44/1
f 481/45/1 482/46/1 483/47/1 484/48/1
f 485/49/1 486/50/1 487/51/1 488/52/1
f 489/45/1 490/46/1 491/47/1 492/48/1
f 493/49/1 494/50/1 495/51/1 496/52/1
f 497/45/1 498/46/1 499/47/1 500/48/1
f 501/49/1 502/50/1 503/51/1 504/52/1
f 505/45/1 506/46/1 507/47/1 508/48/1
f 509/49/1 510/50/1 511/51/1 512/52/1
f 513/45/1 514/46/1 515/47/1 516/48/1
f 517/49/1 518/50/1 519/51/1 520/52/1
f 521/45/1 522/46/1 523/47/1 524/48/1
f 525/49/1 526/50/1 527/51/1 528/52/1
f 529/37/1 530/38/1 531/39/1 532/40/1
f 533/41/1 534/42/1 535/43/1 536/44/1
f 537/37/1 538/38/1 539/39/1 540/40/1
f 541/41/1 542/42/1 543/43/1 544/44/1
f 545/37/1 546/38/1 547/39/1 548/40/1
f 549/41/1 550/42/1 551/43/1 552/44/1
f 553/37/1 554/38/1 555/39/1 556/40/1
f 557/41/1 558/42/1 559/43/1 560/44/1
f 561/37/1 562/38/1 563/39/1 564/40/1
f 565/41/1 566/42/1 567/43/1 568/44/1
f 569/37/1 570/38/1 571/39/1 572/40/1
f 573/41/1 574/42/1 575/43/1 576/44/1
f 577/45/1 578/46/1 579/47/1 580/48/1
f 581/49/1 582/50/1 583/51/1 584/52/1
f 585/45/1 586/46/1 587/47/1 588/48/1
f 589/49/1 590/50/1 591/51/1 592/52/1
f 593/45/1 594/46/1 595/47/1 596/48/1
f 597/49/1 598/50/1 599/51/1 600/52/1
f 601/45/1 602/46/1 603/47/1 604/48/1
f 605/49/1 606/50/1 607/51/1 608/52/1
f 609/45/1 610/46/1 611/47/1 612/48/1
f 613/49/1 614/50/1 615/51/1 616/52/1
f 617/45/1 618/46/1 619/47/1 620/48/1
f 621/49/1 622/50/1 623/51/1 624/52/1
f 625/37/1 626/38/1 627/39/1 628/40/1
f 629/41/1 630/42/1 631/43/1 632/44/1
f 633/37/1 634/38/1 635/39/1 636/40/1
f 637/41/1 638/42/1 639/43/1 640/44/1
f 641/37/1 642/38/1 643/39/1 644/40/1
f 645/41/1 646/42/1 647/43/1 648/44/1
f 649/37/1 650/38/1 651/39/1 652/40/1
f 653/41/1 654/42/1 655/43/1 656/44/1
f 657/37/1 658/38/1 659/39/1 660/40/1
f 661/41/1 662/42/1 663/43/1 664/44/1
f 665/37/1 666/38/1 667/39/1 668/40/1
f 669/41/1 670/42/1 671/43/1 672/44/1
f 673/37/1 674/38/1 675/39/1 676/40/1
f 677/41/1 678/42/1 679/43/1 680/44/1
f 681/37/1 682/38/1 683/39/1 684/40/1
f 685/41/1 686/42/1 687/43/1 688/44/1
f 689/45/1 690/46/1 691/47/1 692/48/1
f 693/49/1 694/50/1 695/51/1 696/52/1
f 697/45/1 698/46/1 699/47/1 700/48/1
f 701/49/1 702/50/1 703/51/1 704/52/1
f 705/37/1 706/38/1 707/39/1 708/40/1
f 709/41/1 710/42/1 711/43/1 712/44/1
f 713/45/1 714/46/1 715/47/1 716/48/1
f 717/49/1 718/50/1 719/51/1 720/52/1
f 721/45/1 722/46/1 723/47/1 724/48/1
f 725/49/1 726/50/1 727/51/1 728/52/1
f 729/45/1 730/46/1 731/47/1 732/48/1
f 733/49/1 734/50/1 735/51/1 736/52/1
f 737/45/1 738/46/1 739/47/1 740/48/1
f 741/49/1 742/50/1 743/51/1 744/52/1
f 745/45/1 746/46/1 747/47/1 748/48/1
f 749/49/1 750/50/1 751/51/1 752/52/1
f 753/45/1 754/46/1 755/47/1 756/48/1
f 757/49/1 758/50/1 759/51/1 760/52/1
f 761/37/1 762/38/1 763/39/1 764/40/1
f 765/41/1 766/42/1 767/43/1 768/44/1
f 769/37/1 770/38/1 771/39/1 772/40/1
f 773/41/1 774/42/1 775/43/1 776/44/1
f 777/45/1 778/46/1 779/47/1 780/48/1
f 781/49/1 782/50/1 783/51/1 784/52/1

