# Tiled2Unity generated file. Do not modify by hand.
# Wavefront file for 'map1-1_mesh_0004.obj'

# Vertices (Count = 640)
v -135 -75 0
v -150 -75 0
v -150 -60 0
v -135 -60 0
v -150 -75 0
v -165 -75 0
v -165 -60 0
v -150 -60 0
v -165 -75 0
v -180 -75 0
v -180 -60 0
v -165 -60 0
v -180 -75 0
v -195 -75 0
v -195 -60 0
v -180 -60 0
v -195 -75 0
v -210 -75 0
v -210 -60 0
v -195 -60 0
v -210 -75 0
v -225 -75 0
v -225 -60 0
v -210 -60 0
v -225 -75 0
v -240 -75 0
v -240 -60 0
v -225 -60 0
v -240 -75 0
v -255 -75 0
v -255 -60 0
v -240 -60 0
v -255 -75 0
v -270 -75 0
v -270 -60 0
v -255 -60 0
v -270 -75 0
v -285 -75 0
v -285 -60 0
v -270 -60 0
v -285 -75 0
v -300 -75 0
v -300 -60 0
v -285 -60 0
v -300 -75 0
v -315 -75 0
v -315 -60 0
v -300 -60 0
v -315 -75 0
v -330 -75 0
v -330 -60 0
v -315 -60 0
v -330 -75 0
v -345 -75 0
v -345 -60 0
v -330 -60 0
v -345 -75 0
v -360 -75 0
v -360 -60 0
v -345 -60 0
v -360 -75 0
v -375 -75 0
v -375 -60 0
v -360 -60 0
v -375 -75 0
v -390 -75 0
v -390 -60 0
v -375 -60 0
v -390 -75 0
v -405 -75 0
v -405 -60 0
v -390 -60 0
v -405 -75 0
v -420 -75 0
v -420 -60 0
v -405 -60 0
v -75 -90 0
v -90 -90 0
v -90 -75 0
v -75 -75 0
v -90 -90 0
v -105 -90 0
v -105 -75 0
v -90 -75 0
v -105 -90 0
v -120 -90 0
v -120 -75 0
v -105 -75 0
v -120 -90 0
v -135 -90 0
v -135 -75 0
v -120 -75 0
v -465 -90 0
v -480 -90 0
v -480 -75 0
v -465 -75 0
v -60 -105 0
v -75 -105 0
v -75 -90 0
v -60 -90 0
v -75 -105 0
v -90 -105 0
v -90 -90 0
v -75 -90 0
v -90 -105 0
v -105 -105 0
v -105 -90 0
v -90 -90 0
v -120 -105 0
v -135 -105 0
v -135 -90 0
v -120 -90 0
v -465 -105 0
v -480 -105 0
v -480 -90 0
v -465 -90 0
v -480 -105 0
v -495 -105 0
v -495 -90 0
v -480 -90 0
v -120 -120 0
v -135 -120 0
v -135 -105 0
v -120 -105 0
v -465 -120 0
v -480 -120 0
v -480 -105 0
v -465 -105 0
v -480 -120 0
v -495 -120 0
v -495 -105 0
v -480 -105 0
v -105 -135 0
v -120 -135 0
v -120 -120 0
v -105 -120 0
v -120 -135 0
v -135 -135 0
v -135 -120 0
v -120 -120 0
v -465 -135 0
v -480 -135 0
v -480 -120 0
v -465 -120 0
v -60 -150 0
v -75 -150 0
v -75 -135 0
v -60 -135 0
v -75 -150 0
v -90 -150 0
v -90 -135 0
v -75 -135 0
v -90 -150 0
v -105 -150 0
v -105 -135 0
v -90 -135 0
v -105 -150 0
v -120 -150 0
v -120 -135 0
v -105 -135 0
v -120 -150 0
v -135 -150 0
v -135 -135 0
v -120 -135 0
v -465 -150 0
v -480 -150 0
v -480 -135 0
v -465 -135 0
v -90 -165 0
v -105 -165 0
v -105 -150 0
v -90 -150 0
v -105 -165 0
v -120 -165 0
v -120 -150 0
v -105 -150 0
v -120 -165 0
v -135 -165 0
v -135 -150 0
v -120 -150 0
v -465 -165 0
v -480 -165 0
v -480 -150 0
v -465 -150 0
v -120 -180 0
v -135 -180 0
v -135 -165 0
v -120 -165 0
v -465 -180 0
v -480 -180 0
v -480 -165 0
v -465 -165 0
v -60 -195 0
v -75 -195 0
v -75 -180 0
v -60 -180 0
v -75 -195 0
v -90 -195 0
v -90 -180 0
v -75 -180 0
v -90 -195 0
v -105 -195 0
v -105 -180 0
v -90 -180 0
v -105 -195 0
v -120 -195 0
v -120 -180 0
v -105 -180 0
v -120 -195 0
v -135 -195 0
v -135 -180 0
v -120 -180 0
v -465 -195 0
v -480 -195 0
v -480 -180 0
v -465 -180 0
v -75 -210 0
v -90 -210 0
v -90 -195 0
v -75 -195 0
v -90 -210 0
v -105 -210 0
v -105 -195 0
v -90 -195 0
v -120 -210 0
v -135 -210 0
v -135 -195 0
v -120 -195 0
v -465 -210 0
v -480 -210 0
v -480 -195 0
v -465 -195 0
v -75 -225 0
v -90 -225 0
v -90 -210 0
v -75 -210 0
v -90 -225 0
v -105 -225 0
v -105 -210 0
v -90 -210 0
v -105 -225 0
v -120 -225 0
v -120 -210 0
v -105 -210 0
v -120 -225 0
v -135 -225 0
v -135 -210 0
v -120 -210 0
v -465 -225 0
v -480 -225 0
v -480 -210 0
v -465 -210 0
v -105 -240 0
v -120 -240 0
v -120 -225 0
v -105 -225 0
v -120 -240 0
v -135 -240 0
v -135 -225 0
v -120 -225 0
v -465 -240 0
v -480 -240 0
v -480 -225 0
v -465 -225 0
v -90 -255 0
v -105 -255 0
v -105 -240 0
v -90 -240 0
v -105 -255 0
v -120 -255 0
v -120 -240 0
v -105 -240 0
v -120 -255 0
v -135 -255 0
v -135 -240 0
v -120 -240 0
v -465 -255 0
v -480 -255 0
v -480 -240 0
v -465 -240 0
v -465 -270 0
v -480 -270 0
v -480 -255 0
v -465 -255 0
v -465 -285 0
v -480 -285 0
v -480 -270 0
v -465 -270 0
v -120 -300 0
v -135 -300 0
v -135 -285 0
v -120 -285 0
v -465 -300 0
v -480 -300 0
v -480 -285 0
v -465 -285 0
v -105 -315 0
v -120 -315 0
v -120 -300 0
v -105 -300 0
v -120 -315 0
v -135 -315 0
v -135 -300 0
v -120 -300 0
v -465 -315 0
v -480 -315 0
v -480 -300 0
v -465 -300 0
v -480 -315 0
v -495 -315 0
v -495 -300 0
v -480 -300 0
v -105 -330 0
v -120 -330 0
v -120 -315 0
v -105 -315 0
v -120 -330 0
v -135 -330 0
v -135 -315 0
v -120 -315 0
v -570 -330 0
v -585 -330 0
v -585 -315 0
v -570 -315 0
v -585 -330 0
v -600 -330 0
v -600 -315 0
v -585 -315 0
v -105 -345 0
v -120 -345 0
v -120 -330 0
v -105 -330 0
v -120 -345 0
v -135 -345 0
v -135 -330 0
v -120 -330 0
v -570 -345 0
v -585 -345 0
v -585 -330 0
v -570 -330 0
v -585 -345 0
v -600 -345 0
v -600 -330 0
v -585 -330 0
v -105 -360 0
v -120 -360 0
v -120 -345 0
v -105 -345 0
v -120 -360 0
v -135 -360 0
v -135 -345 0
v -120 -345 0
v -465 -360 0
v -480 -360 0
v -480 -345 0
v -465 -345 0
v -90 -375 0
v -105 -375 0
v -105 -360 0
v -90 -360 0
v -105 -375 0
v -120 -375 0
v -120 -360 0
v -105 -360 0
v -120 -375 0
v -135 -375 0
v -135 -360 0
v -120 -360 0
v -465 -375 0
v -480 -375 0
v -480 -360 0
v -465 -360 0
v -90 -390 0
v -105 -390 0
v -105 -375 0
v -90 -375 0
v -105 -390 0
v -120 -390 0
v -120 -375 0
v -105 -375 0
v -120 -390 0
v -135 -390 0
v -135 -375 0
v -120 -375 0
v -465 -390 0
v -480 -390 0
v -480 -375 0
v -465 -375 0
v -120 -405 0
v -135 -405 0
v -135 -390 0
v -120 -390 0
v -105 -420 0
v -120 -420 0
v -120 -405 0
v -105 -405 0
v -120 -420 0
v -135 -420 0
v -135 -405 0
v -120 -405 0
v -465 -420 0
v -480 -420 0
v -480 -405 0
v -465 -405 0
v -480 -420 0
v -495 -420 0
v -495 -405 0
v -480 -405 0
v -105 -435 0
v -120 -435 0
v -120 -420 0
v -105 -420 0
v -120 -435 0
v -135 -435 0
v -135 -420 0
v -120 -420 0
v -465 -435 0
v -480 -435 0
v -480 -420 0
v -465 -420 0
v -480 -435 0
v -495 -435 0
v -495 -420 0
v -480 -420 0
v -105 -450 0
v -120 -450 0
v -120 -435 0
v -105 -435 0
v -120 -450 0
v -135 -450 0
v -135 -435 0
v -120 -435 0
v -465 -450 0
v -480 -450 0
v -480 -435 0
v -465 -435 0
v -480 -450 0
v -495 -450 0
v -495 -435 0
v -480 -435 0
v -105 -465 0
v -120 -465 0
v -120 -450 0
v -105 -450 0
v -120 -465 0
v -135 -465 0
v -135 -450 0
v -120 -450 0
v -465 -465 0
v -480 -465 0
v -480 -450 0
v -465 -450 0
v -480 -465 0
v -495 -465 0
v -495 -450 0
v -480 -450 0
v -75 -480 0
v -90 -480 0
v -90 -465 0
v -75 -465 0
v -90 -480 0
v -105 -480 0
v -105 -465 0
v -90 -465 0
v -120 -480 0
v -135 -480 0
v -135 -465 0
v -120 -465 0
v -465 -480 0
v -480 -480 0
v -480 -465 0
v -465 -465 0
v -480 -480 0
v -495 -480 0
v -495 -465 0
v -480 -465 0
v -495 -480 0
v -510 -480 0
v -510 -465 0
v -495 -465 0
v -75 -495 0
v -90 -495 0
v -90 -480 0
v -75 -480 0
v -90 -495 0
v -105 -495 0
v -105 -480 0
v -90 -480 0
v -105 -495 0
v -120 -495 0
v -120 -480 0
v -105 -480 0
v -120 -495 0
v -135 -495 0
v -135 -480 0
v -120 -480 0
v -465 -495 0
v -480 -495 0
v -480 -480 0
v -465 -480 0
v -480 -495 0
v -495 -495 0
v -495 -480 0
v -480 -480 0
v -495 -495 0
v -510 -495 0
v -510 -480 0
v -495 -480 0
v -105 -510 0
v -120 -510 0
v -120 -495 0
v -105 -495 0
v -120 -510 0
v -135 -510 0
v -135 -495 0
v -120 -495 0
v -465 -510 0
v -480 -510 0
v -480 -495 0
v -465 -495 0
v -480 -510 0
v -495 -510 0
v -495 -495 0
v -480 -495 0
v -465 -525 0
v -480 -525 0
v -480 -510 0
v -465 -510 0
v -480 -525 0
v -495 -525 0
v -495 -510 0
v -480 -510 0
v -255 -540 0
v -270 -540 0
v -270 -525 0
v -255 -525 0
v -270 -540 0
v -285 -540 0
v -285 -525 0
v -270 -525 0
v -285 -540 0
v -300 -540 0
v -300 -525 0
v -285 -525 0
v -300 -540 0
v -315 -540 0
v -315 -525 0
v -300 -525 0
v -315 -540 0
v -330 -540 0
v -330 -525 0
v -315 -525 0
v -330 -540 0
v -345 -540 0
v -345 -525 0
v -330 -525 0
v -345 -540 0
v -360 -540 0
v -360 -525 0
v -345 -525 0
v -360 -540 0
v -375 -540 0
v -375 -525 0
v -360 -525 0
v -375 -540 0
v -390 -540 0
v -390 -525 0
v -375 -525 0
v -390 -540 0
v -405 -540 0
v -405 -525 0
v -390 -525 0
v -405 -540 0
v -420 -540 0
v -420 -525 0
v -405 -525 0
v -420 -540 0
v -435 -540 0
v -435 -525 0
v -420 -525 0
v -435 -540 0
v -450 -540 0
v -450 -525 0
v -435 -525 0
v -450 -540 0
v -465 -540 0
v -465 -525 0
v -450 -525 0
v -465 -540 0
v -480 -540 0
v -480 -525 0
v -465 -525 0
v -45 -555 0
v -60 -555 0
v -60 -540 0
v -45 -540 0
v -60 -555 0
v -75 -555 0
v -75 -540 0
v -60 -540 0
v -255 -555 0
v -270 -555 0
v -270 -540 0
v -255 -540 0
v -270 -555 0
v -285 -555 0
v -285 -540 0
v -270 -540 0
v -285 -555 0
v -300 -555 0
v -300 -540 0
v -285 -540 0
v -300 -555 0
v -315 -555 0
v -315 -540 0
v -300 -540 0
v -45 -570 0
v -60 -570 0
v -60 -555 0
v -45 -555 0
v -60 -570 0
v -75 -570 0
v -75 -555 0
v -60 -555 0
v -30 -585 0
v -45 -585 0
v -45 -570 0
v -30 -570 0
v -45 -585 0
v -60 -585 0
v -60 -570 0
v -45 -570 0
v -30 -600 0
v -45 -600 0
v -45 -585 0
v -30 -585 0
v -45 -600 0
v -60 -600 0
v -60 -585 0
v -45 -585 0

# Texture cooridinates (Count = 76)
vt 0.9020833 0.8125
vt 0.9333333 0.8125
vt 0.9333333 0.8710938
vt 0.9020833 0.8710938
vt 0.8020833 0.875
vt 0.8333333 0.875
vt 0.8333333 0.9335938
vt 0.8020833 0.9335938
vt 0.8354167 0.875
vt 0.8666667 0.875
vt 0.8666667 0.9335938
vt 0.8354167 0.9335938
vt 0.86875 0.875
vt 0.9 0.875
vt 0.9 0.9335938
vt 0.86875 0.9335938
vt 0.8020833 0.75
vt 0.8333333 0.75
vt 0.8333333 0.8085938
vt 0.8020833 0.8085938
vt 0.8354167 0.75
vt 0.8666667 0.75
vt 0.8666667 0.8085938
vt 0.8354167 0.8085938
vt 0.1354167 0.3125
vt 0.1666667 0.3125
vt 0.1666667 0.3710938
vt 0.1354167 0.3710938
vt 0.8020833 0.8125
vt 0.8333333 0.8125
vt 0.8333333 0.8710938
vt 0.8020833 0.8710938
vt 0.6020833 0.3125
vt 0.6333333 0.3125
vt 0.6333333 0.3710938
vt 0.6020833 0.3710938
vt 0.6354167 0.3125
vt 0.6666667 0.3125
vt 0.6666667 0.3710938
vt 0.6354167 0.3710938
vt 0.7020833 0.4375
vt 0.7333333 0.4375
vt 0.7333333 0.4960938
vt 0.7020833 0.4960938
vt 0.6020833 0.25
vt 0.6333333 0.25
vt 0.6333333 0.3085938
vt 0.6020833 0.3085938
vt 0.6354167 0.25
vt 0.6666667 0.25
vt 0.6666667 0.3085938
vt 0.6354167 0.3085938
vt 0.96875 0.875
vt 1 0.875
vt 1 0.9335938
vt 0.96875 0.9335938
vt 0.9020833 0.875
vt 0.9333333 0.875
vt 0.9333333 0.9335938
vt 0.9020833 0.9335938
vt 0.6354167 0.4375
vt 0.6666667 0.4375
vt 0.6666667 0.4960938
vt 0.6354167 0.4960938
vt 0.6020833 0.375
vt 0.6333333 0.375
vt 0.6333333 0.4335938
vt 0.6020833 0.4335938
vt 0.66875 0.4375
vt 0.7 0.4375
vt 0.7 0.4960938
vt 0.66875 0.4960938
vt 0.86875 0.75
vt 0.9 0.75
vt 0.9 0.8085938
vt 0.86875 0.8085938

# Normal
vn 0 0 -1

# Mesh description
g map1-1_mesh_0004

# Faces
f 1/1/1 2/2/1 3/3/1 4/4/1
f 5/1/1 6/2/1 7/3/1 8/4/1
f 9/1/1 10/2/1 11/3/1 12/4/1
f 13/5/1 14/6/1 15/7/1 16/8/1
f 17/9/1 18/10/1 19/11/1 20/12/1
f 21/9/1 22/10/1 23/11/1 24/12/1
f 25/9/1 26/10/1 27/11/1 28/12/1
f 29/9/1 30/10/1 31/11/1 32/12/1
f 33/9/1 34/10/1 35/11/1 36/12/1
f 37/9/1 38/10/1 39/11/1 40/12/1
f 41/9/1 42/10/1 43/11/1 44/12/1
f 45/13/1 46/14/1 47/15/1 48/16/1
f 49/1/1 50/2/1 51/3/1 52/4/1
f 53/1/1 54/2/1 55/3/1 56/4/1
f 57/17/1 58/18/1 59/19/1 60/20/1
f 61/21/1 62/22/1 63/23/1 64/24/1
f 65/5/1 66/6/1 67/7/1 68/8/1
f 69/9/1 70/10/1 71/11/1 72/12/1
f 73/13/1 74/14/1 75/15/1 76/16/1
f 77/25/1 78/26/1 79/27/1 80/28/1
f 81/25/1 82/26/1 83/27/1 84/28/1
f 85/25/1 86/26/1 87/27/1 88/28/1
f 89/29/1 90/30/1 91/31/1 92/32/1
f 93/29/1 94/30/1 95/31/1 96/32/1
f 97/25/1 98/26/1 99/27/1 100/28/1
f 101/25/1 102/26/1 103/27/1 104/28/1
f 105/25/1 106/26/1 107/27/1 108/28/1
f 109/1/1 110/2/1 111/3/1 112/4/1
f 113/33/1 114/34/1 115/35/1 116/36/1
f 117/37/1 118/38/1 119/39/1 120/40/1
f 121/41/1 122/42/1 123/43/1 124/44/1
f 125/45/1 126/46/1 127/47/1 128/48/1
f 129/49/1 130/50/1 131/51/1 132/52/1
f 133/41/1 134/42/1 135/43/1 136/44/1
f 137/41/1 138/42/1 139/43/1 140/44/1
f 141/29/1 142/30/1 143/31/1 144/32/1
f 145/41/1 146/42/1 147/43/1 148/44/1
f 149/41/1 150/42/1 151/43/1 152/44/1
f 153/41/1 154/42/1 155/43/1 156/44/1
f 157/41/1 158/42/1 159/43/1 160/44/1
f 161/41/1 162/42/1 163/43/1 164/44/1
f 165/29/1 166/30/1 167/31/1 168/32/1
f 169/41/1 170/42/1 171/43/1 172/44/1
f 173/41/1 174/42/1 175/43/1 176/44/1
f 177/41/1 178/42/1 179/43/1 180/44/1
f 181/29/1 182/30/1 183/31/1 184/32/1
f 185/53/1 186/54/1 187/55/1 188/56/1
f 189/29/1 190/30/1 191/31/1 192/32/1
f 193/25/1 194/26/1 195/27/1 196/28/1
f 197/25/1 198/26/1 199/27/1 200/28/1
f 201/25/1 202/26/1 203/27/1 204/28/1
f 205/53/1 206/54/1 207/55/1 208/56/1
f 209/53/1 210/54/1 211/55/1 212/56/1
f 213/29/1 214/30/1 215/31/1 216/32/1
f 217/25/1 218/26/1 219/27/1 220/28/1
f 221/25/1 222/26/1 223/27/1 224/28/1
f 225/53/1 226/54/1 227/55/1 228/56/1
f 229/29/1 230/30/1 231/31/1 232/32/1
f 233/57/1 234/58/1 235/59/1 236/60/1
f 237/57/1 238/58/1 239/59/1 240/60/1
f 241/57/1 242/58/1 243/59/1 244/60/1
f 245/53/1 246/54/1 247/55/1 248/56/1
f 249/29/1 250/30/1 251/31/1 252/32/1
f 253/57/1 254/58/1 255/59/1 256/60/1
f 257/53/1 258/54/1 259/55/1 260/56/1
f 261/29/1 262/30/1 263/31/1 264/32/1
f 265/53/1 266/54/1 267/55/1 268/56/1
f 269/53/1 270/54/1 271/55/1 272/56/1
f 273/53/1 274/54/1 275/55/1 276/56/1
f 277/29/1 278/30/1 279/31/1 280/32/1
f 281/29/1 282/30/1 283/31/1 284/32/1
f 285/41/1 286/42/1 287/43/1 288/44/1
f 289/29/1 290/30/1 291/31/1 292/32/1
f 293/61/1 294/62/1 295/63/1 296/64/1
f 297/29/1 298/30/1 299/31/1 300/32/1
f 301/29/1 302/30/1 303/31/1 304/32/1
f 305/61/1 306/62/1 307/63/1 308/64/1
f 309/61/1 310/62/1 311/63/1 312/64/1
f 313/29/1 314/30/1 315/31/1 316/32/1
f 317/29/1 318/30/1 319/31/1 320/32/1
f 321/33/1 322/34/1 323/35/1 324/36/1
f 325/37/1 326/38/1 327/39/1 328/40/1
f 329/29/1 330/30/1 331/31/1 332/32/1
f 333/29/1 334/30/1 335/31/1 336/32/1
f 337/45/1 338/46/1 339/47/1 340/48/1
f 341/49/1 342/50/1 343/51/1 344/52/1
f 345/29/1 346/30/1 347/31/1 348/32/1
f 349/29/1 350/30/1 351/31/1 352/32/1
f 353/61/1 354/62/1 355/63/1 356/64/1
f 357/33/1 358/34/1 359/35/1 360/36/1
f 361/37/1 362/38/1 363/39/1 364/40/1
f 365/29/1 366/30/1 367/31/1 368/32/1
f 369/61/1 370/62/1 371/63/1 372/64/1
f 373/45/1 374/46/1 375/47/1 376/48/1
f 377/49/1 378/50/1 379/51/1 380/52/1
f 381/29/1 382/30/1 383/31/1 384/32/1
f 385/41/1 386/42/1 387/43/1 388/44/1
f 389/29/1 390/30/1 391/31/1 392/32/1
f 393/33/1 394/34/1 395/35/1 396/36/1
f 397/37/1 398/38/1 399/39/1 400/40/1
f 401/33/1 402/34/1 403/35/1 404/36/1
f 405/37/1 406/38/1 407/39/1 408/40/1
f 409/45/1 410/46/1 411/47/1 412/48/1
f 413/49/1 414/50/1 415/51/1 416/52/1
f 417/45/1 418/46/1 419/47/1 420/48/1
f 421/49/1 422/50/1 423/51/1 424/52/1
f 425/33/1 426/34/1 427/35/1 428/36/1
f 429/37/1 430/38/1 431/39/1 432/40/1
f 433/33/1 434/34/1 435/35/1 436/36/1
f 437/37/1 438/38/1 439/39/1 440/40/1
f 441/45/1 442/46/1 443/47/1 444/48/1
f 445/49/1 446/50/1 447/51/1 448/52/1
f 449/45/1 450/46/1 451/47/1 452/48/1
f 453/49/1 454/50/1 455/51/1 456/52/1
f 457/33/1 458/34/1 459/35/1 460/36/1
f 461/37/1 462/38/1 463/39/1 464/40/1
f 465/65/1 466/66/1 467/67/1 468/68/1
f 469/41/1 470/42/1 471/43/1 472/44/1
f 473/33/1 474/34/1 475/35/1 476/36/1
f 477/37/1 478/38/1 479/39/1 480/40/1
f 481/45/1 482/46/1 483/47/1 484/48/1
f 485/49/1 486/50/1 487/51/1 488/52/1
f 489/33/1 490/34/1 491/35/1 492/36/1
f 493/37/1 494/38/1 495/39/1 496/40/1
f 497/41/1 498/42/1 499/43/1 500/44/1
f 501/45/1 502/46/1 503/47/1 504/48/1
f 505/49/1 506/50/1 507/51/1 508/52/1
f 509/45/1 510/46/1 511/47/1 512/48/1
f 513/49/1 514/50/1 515/51/1 516/52/1
f 517/33/1 518/34/1 519/35/1 520/36/1
f 521/37/1 522/38/1 523/39/1 524/40/1
f 525/45/1 526/46/1 527/47/1 528/48/1
f 529/49/1 530/50/1 531/51/1 532/52/1
f 533/69/1 534/70/1 535/71/1 536/72/1
f 537/69/1 538/70/1 539/71/1 540/72/1
f 541/69/1 542/70/1 543/71/1 544/72/1
f 545/65/1 546/66/1 547/67/1 548/68/1
f 549/65/1 550/66/1 551/67/1 552/68/1
f 553/65/1 554/66/1 555/67/1 556/68/1
f 557/61/1 558/62/1 559/63/1 560/64/1
f 561/73/1 562/74/1 563/75/1 564/76/1
f 565/5/1 566/6/1 567/7/1 568/8/1
f 569/9/1 570/10/1 571/11/1 572/12/1
f 573/9/1 574/10/1 575/11/1 576/12/1
f 577/9/1 578/10/1 579/11/1 580/12/1
f 581/9/1 582/10/1 583/11/1 584/12/1
f 585/9/1 586/10/1 587/11/1 588/12/1
f 589/13/1 590/14/1 591/15/1 592/16/1
f 593/33/1 594/34/1 595/35/1 596/36/1
f 597/37/1 598/38/1 599/39/1 600/40/1
f 601/69/1 602/70/1 603/71/1 604/72/1
f 605/69/1 606/70/1 607/71/1 608/72/1
f 609/65/1 610/66/1 611/67/1 612/68/1
f 613/65/1 614/66/1 615/67/1 616/68/1
f 617/45/1 618/46/1 619/47/1 620/48/1
f 621/49/1 622/50/1 623/51/1 624/52/1
f 625/33/1 626/34/1 627/35/1 628/36/1
f 629/37/1 630/38/1 631/39/1 632/40/1
f 633/45/1 634/46/1 635/47/1 636/48/1
f 637/49/1 638/50/1 639/51/1 640/52/1

